<svg xmlns="http://www.w3.org/2000/svg" width="112" height="29" viewBox="0 0 112 29">
  <style>.a { fill: #FFF; }</style>
  <g transform="translate(-32 -24)translate(32 24)translate(71.323383 0.292342)">
    <defs>
      <filter filterUnits="userSpaceOnUse" x="0.3" y="0.3" width="40.1" height="28.1">
        <feColorMatrix type="matrix" values="1 0 0 0 0  0 1 0 0 0  0 0 1 0 0  0 0 0 1 0"></feColorMatrix>
      </filter>
    </defs>
    <mask maskUnits="userSpaceOnUse" x="0.3" y="0.3" width="40.1" height="28.1">
      <g filter="url(#Adobe_OpacityMaskFilter)">
        <polygon points="40.4 28.4 40.4 0.3 0.3 0.3 0.3 28.4 " class="a"></polygon>
      </g>
    </mask>
    <path mask="url(#mask-2)" d="M14.4 15.8h6.8c0-0.3-0.1-0.6-0.2-0.9 -0.1-0.4-0.3-0.8-0.6-1.2s-0.6-0.6-1-0.8c-0.4-0.2-0.9-0.3-1.5-0.3 -0.6 0-1.1 0.1-1.5 0.3 -0.4 0.2-0.8 0.5-1 0.8 -0.3 0.3-0.5 0.7-0.6 1.2C14.6 15.1 14.5 15.4 14.4 15.8L14.4 15.8zM26.3 17.9c0 0.3 0 0.7 0 1.1 0 0.1 0 0.3 0 0.4H14.3c0 0.2 0 0.4 0.1 0.6 0.1 1.1 0.6 2 1.5 2.7 0.9 0.7 2.1 1 3.6 1 1 0 1.9-0.1 2.8-0.3 0.9-0.2 1.7-0.4 2.3-0.7l0.7 4.5c-0.3 0.1-0.7 0.3-1.1 0.4 -0.5 0.1-1 0.3-1.6 0.4 -0.6 0.1-1.2 0.2-1.8 0.3 -0.7 0.1-1.3 0.1-2 0.1 -1.7 0-3.1-0.3-4.3-0.8 -1.2-0.5-2.2-1.2-3-2.1 -0.8-0.9-1.4-2-1.8-3.2 -0.4-1.2-0.6-2.6-0.6-4 0-1.7 0.3-3.2 0.8-4.5 0.5-1.3 1.2-2.4 2-3.2 0.8-0.9 1.8-1.5 2.8-2 1.1-0.4 2.2-0.7 3.3-0.7 2.6 0 4.7 0.8 6.2 2.5C25.5 12.1 26.3 14.6 26.3 17.9L26.3 17.9zM0.3 1.2v26.8h5.6V0.3L0.3 1.2zM40.4 27.6c-0.4 0.1-0.9 0.3-1.3 0.4 -0.8 0.2-1.7 0.3-2.8 0.3 -1.4 0-2.6-0.2-3.5-0.6 -0.9-0.4-1.7-0.9-2.2-1.6 -0.6-0.7-0.9-1.5-1.2-2.5 -0.2-1-0.3-3.1-0.3-4.3V3.8l5.2-0.8v5.4h6.3v4.3h-6.3v6.5c0 1.1 0.2 3 0.6 3.7 0.4 0.7 1.2 1 2.3 1 0.6 0 1.1-0.1 1.7-0.2 0.6-0.1 1.1-0.2 1.6-0.4V27.6z" fill="#F2AE25"></path>
  </g>
  <path d="M68.7 13.1v-4.3h-6.3V3.3l-5.2 0.8v3.2c0 0.8-0.3 1.2-0.7 1.4 -0.7 0.3-2 0.3-3.3 0.1 -0.6-0.1-1.4-0.2-2-0.3C50.2 8.4 49.1 8.3 48 8.3c-2.2 0-4 0.5-5.3 1.6 -1.3 1.1-1.9 2.5-1.9 4.3 0 0.9 0.1 1.7 0.4 2.4 0.3 0.7 0.6 1.2 1.1 1.7 0.5 0.5 1 0.9 1.7 1.2 0.7 0.3 1.4 0.7 2.2 1 1 0.4 1.8 0.8 2.3 1.1 0.5 0.3 0.8 0.7 0.8 1.2 0 0.6-0.2 1.1-0.6 1.3 -0.4 0.2-1.1 0.3-2 0.3 -0.9 0-1.8-0.1-2.8-0.3 -0.9-0.2-1.8-0.5-2.7-0.9l-0.9 4.3c0.4 0.2 1.2 0.4 2.3 0.7 1.1 0.3 2.4 0.4 4.1 0.4 2.5 0 4.4-0.5 5.8-1.5 1.4-1 2-2.4 2-4.3 0-0.8-0.1-1.5-0.3-2.1 -0.2-0.6-0.5-1.2-0.9-1.7 -0.4-0.5-1-1-1.8-1.4 -0.7-0.4-1.7-0.9-2.8-1.3 -0.6-0.2-1-0.4-1.4-0.6 -0.4-0.2-0.6-0.4-0.9-0.5 -0.2-0.2-0.3-0.3-0.4-0.5 -0.1-0.2-0.1-0.6-0.1-0.8 0-1 0.8-1.4 2.4-1.4 0.9 0 2.8 0.4 3.1 0.4 1.9 0.4 3.6 0.3 4.4 0 1.7-0.6 2.9-2.1 3-2 0.2 0.1-1.7 1.5-1.7 7.6 0 1.5 0.2 4.5 0.4 5.4 0.2 1 0.6 1.8 1.2 2.5 0.6 0.7 1.3 1.2 2.2 1.6 0.9 0.4 2.1 0.6 3.5 0.6 1.1 0 2.1-0.1 2.8-0.3 0.5-0.1 0.9-0.2 1.3-0.4v-4.3c-0.5 0.2-1 0.3-1.6 0.4 -0.6 0.1-1.2 0.2-1.7 0.2 -1.2 0-1.9-0.3-2.3-1 -0.4-0.7-0.6-1.5-0.6-2.6v-7.5H68.7z"></path>
  <path d="M26.1 16.2c0.1-0.3 0.2-0.6 0.3-1 0.2-0.5 0.4-0.9 0.6-1.2 0.3-0.3 0.6-0.6 1-0.8 0.4-0.2 0.9-0.3 1.5-0.3 0.6 0 1.1 0.1 1.5 0.3s0.7 0.5 1 0.8c0.3 0.3 0.5 0.7 0.6 1.2 0.1 0.3 0.2 0.6 0.2 0.9H26.1zM29.5 8.3c-1.1 0-2.2 0.2-3.3 0.7 -1.1 0.4-2 1.1-2.8 2 -0.8 0.9-1.5 1.9-2 3.2 -0.5 1.3-0.8 2.8-0.8 4.5 0 1.4 0.2 2.8 0.6 4 0.4 1.2 1 2.3 1.8 3.2 0.8 0.9 1.8 1.6 3 2.1 1.2 0.5 2.7 0.8 4.3 0.8 0.7 0 1.3 0 2-0.1 0.7-0.1 1.3-0.2 1.8-0.3 0.6-0.1 1.1-0.2 1.6-0.4 0.5-0.1 0.8-0.3 1.1-0.4l-0.7-4.5c-0.6 0.3-1.3 0.5-2.3 0.7 -0.9 0.2-1.9 0.3-2.8 0.3 -1.5 0-2.7-0.3-3.6-1 -0.9-0.7-1.4-1.6-1.5-2.7 0-0.2 0-0.4-0.1-0.6h11.9c0-0.1 0-0.3 0-0.4 0-0.4 0-0.7 0-1.1 0-3.3-0.8-5.7-2.3-7.4C34.1 9.2 32.1 8.3 29.5 8.3L29.5 8.3z"></path>
  <path d="M14.8 28.2c0.1 0 0.1 0 0.2 0h4.8c-0.4-0.9-5.5-9.3-6-9.9 1.5-0.6 2.6-1.4 3.4-2.5 0.8-1.1 1.2-2.4 1.2-4.1 0-2.7-1-4.7-2.9-6 -1.9-1.3-4.7-1.9-8.4-1.9H0.8C0.3 3.7 0 4 0 4.5v23.8h5.5v-8.9h0l0-4.3V8.4c0.3 0 1.6 0 2 0 1.7 0 3.1 0.3 4 0.8 0.9 0.5 1.3 1.3 1.3 2.5 0 1.2-0.4 2.1-1.3 2.6 -0.9 0.5-2.4 0.8-4.4 0.8H6.9c-0.8 0-1.1 0.4-0.7 1.2l2 3.2c0.4 0.5 3.8 6 5.1 8.1C13.5 27.7 13.9 28.2 14.8 28.2"></path>
</svg>