    <svg xmlns="http://www.w3.org/2000/svg" id="elements" width="1040.95" height="255.89" viewBox="0 0 1040.95 255.89" class="svg replaced-svg">
        <title>restlet_icons_screen</title>
        <g>
            <path d="M13.62,54.2L100.73,3.58a26.45,26.45,0,0,1,26.57,0l87.2,50.62A27,27,0,0,1,228,77.32V178.57a27,27,0,0,1-13.46,23.12l-87,50.62a26.38,26.38,0,0,1-26.53,0L13.65,201.69A27.13,27.13,0,0,1,0,178.57V77.32A27.11,27.11,0,0,1,13.62,54.2Z" fill="#fff"></path>
            <path d="M132.71,170.76a6.16,6.16,0,0,1,.73.24h17c-1.5-4-19.69-33.31-21.43-35.47a27.66,27.66,0,0,0,12-9c2.78-3.78,4.17-8.75,4.17-14.82,0-9.72-3.45-17-10.34-21.64S118.08,83,105.12,83H82.6c-1.8,0-2.6,1.15-2.6,2.89V171H99V139h0.27L99,123.62V99.82c1-.08,5.7,0,7.11,0,6.23,0,11,.89,14.21,2.68s4.83,4.8,4.83,9c0,4.4-1.56,7.71-4.72,9.54S112.06,124,104.75,124h-0.27c-2.85,0-3.8,1.22-2.64,4l7,11.21c1.42,1.7,13.71,21.39,18.29,28.91A6.86,6.86,0,0,0,132.71,170.76Z" fill="#1b252f"></path>
        </g>
        <g>
            <path d="M315.51,165.4V95.15h42.38v8.41H325.34v21.19h28.89v8.31H325.34V165.4h-9.83Z" fill="#fff"></path>
            <path d="M417,136q1.62,2,4.11,5.32t5.12,7.3q2.63,4,5.22,8.36a85.38,85.38,0,0,1,4.41,8.41H425.1q-2-3.85-4.41-7.81T415.87,150q-2.43-3.6-4.82-6.74t-4.31-5.47c-0.88.07-1.77,0.1-2.69,0.1H392.45V165.4h-9.83V96.16a55.66,55.66,0,0,1,9.28-1.37q5.12-.36,9.38-0.35,14.8,0,22.56,5.58t7.76,16.62a19.47,19.47,0,0,1-3.7,12A21.84,21.84,0,0,1,417,136Zm-14.9-32.95q-6.29,0-9.63.3v26.46h7a73.94,73.94,0,0,0,9.12-.51,20.64,20.64,0,0,0,6.84-1.93,10.29,10.29,0,0,0,4.31-4,13.43,13.43,0,0,0,1.52-6.84,13,13,0,0,0-1.52-6.59,11.26,11.26,0,0,0-4.11-4.16,17.92,17.92,0,0,0-6.08-2.13A43.4,43.4,0,0,0,402.08,103.06Z" fill="#fff"></path>
            <path d="M508.83,165.4q-1.73-4.56-3.24-9t-3.14-9H470.61l-6.39,17.94H454q4.06-11.15,7.6-20.63t6.94-18q3.4-8.52,6.74-16.27t7-15.36h9q3.65,7.6,7,15.36T505,126.78q3.4,8.52,6.95,18t7.6,20.63H508.83Zm-9.23-26.05q-3.25-8.82-6.44-17.08t-6.64-15.87q-3.55,7.6-6.74,15.87t-6.34,17.08h26.16Z" fill="#fff"></path>
            <path d="M573.31,155.67q-1-2.43-2.69-6.18t-3.6-8.11q-1.93-4.36-4.11-9t-4.11-8.72q-1.93-4.11-3.6-7.35t-2.69-5q-1.12,12-1.82,25.9t-1.22,28.13h-9.63q0.4-9.12.91-18.4t1.17-18.25q0.66-9,1.42-17.49T545,95.15h8.62q2.74,4.46,5.88,10.54t6.29,12.72q3.14,6.64,6.08,13.28t5.37,12.11l5.37-12.11q2.94-6.64,6.08-13.28T595,105.69q3.14-6.08,5.88-10.54h8.62q3.44,34,5.17,70.25H605q-0.51-14.19-1.22-28.13T602,111.37q-1,1.72-2.69,5t-3.6,7.35l-4.11,8.72q-2.18,4.62-4.11,9t-3.6,8.11q-1.67,3.75-2.69,6.18h-7.91Z" fill="#fff"></path>
            <path d="M642.75,165.4V95.15h42.88v8.41h-33v20.88H682v8.21h-29.4V157h35.58v8.41H642.75Z" fill="#fff"></path>
            <path d="M751.72,117.75q-4.26,13.59-8.62,25.14t-8.72,22.5h-9.83q-5.38-15.51-9.48-32.75t-7.65-37.51h10.34q1.42,7.91,2.94,15.81t3.14,15.36q1.62,7.45,3.24,14.25t3.35,12.57q4.05-10.64,8.62-23.37t8.52-26.31h8.51q4,13.58,8.62,26.31t8.72,23.37q1.62-5.68,3.24-12.47t3.19-14.24q1.57-7.45,3.09-15.41t2.94-15.87h10q-3.65,20.28-7.76,37.51t-9.38,32.75H769q-4.46-10.95-8.72-22.5T751.72,117.75Z" fill="#fff"></path>
            <path d="M815.69,130.23a43.63,43.63,0,0,1,2.69-15.92,32.91,32.91,0,0,1,7.3-11.5,30.23,30.23,0,0,1,10.74-6.95,36.39,36.39,0,0,1,13-2.33,35.3,35.3,0,0,1,12.82,2.33,29.93,29.93,0,0,1,10.59,6.95,33.3,33.3,0,0,1,7.25,11.5,43.63,43.63,0,0,1,2.69,15.92,43.6,43.6,0,0,1-2.69,15.92,33.25,33.25,0,0,1-7.25,11.5,29.9,29.9,0,0,1-10.59,6.95,35.3,35.3,0,0,1-12.82,2.33,36.39,36.39,0,0,1-13-2.33,30.19,30.19,0,0,1-10.74-6.95,32.86,32.86,0,0,1-7.3-11.5A43.6,43.6,0,0,1,815.69,130.23Zm10.34,0a38.93,38.93,0,0,0,1.62,11.61,26,26,0,0,0,4.61,8.87,20.16,20.16,0,0,0,7.3,5.62,22.93,22.93,0,0,0,9.68,2,22.6,22.6,0,0,0,9.63-2,20.3,20.3,0,0,0,7.25-5.62,26,26,0,0,0,4.61-8.87,42.32,42.32,0,0,0,0-23.22,26,26,0,0,0-4.61-8.87,20.33,20.33,0,0,0-7.25-5.62,22.6,22.6,0,0,0-9.63-2,22.93,22.93,0,0,0-9.68,2,20.19,20.19,0,0,0-7.3,5.62,26,26,0,0,0-4.61,8.87A38.94,38.94,0,0,0,826,130.23Z" fill="#fff"></path>
            <path d="M944.44,136q1.62,2,4.11,5.32t5.12,7.3q2.63,4,5.22,8.36a85.38,85.38,0,0,1,4.41,8.41H952.55q-2-3.85-4.41-7.81T943.32,150q-2.43-3.6-4.82-6.74t-4.31-5.47c-0.88.07-1.77,0.1-2.69,0.1H919.9V165.4h-9.83V96.16a55.66,55.66,0,0,1,9.28-1.37q5.12-.36,9.38-0.35,14.8,0,22.56,5.58T959,116.64a19.47,19.47,0,0,1-3.7,12A21.84,21.84,0,0,1,944.44,136Zm-14.9-32.95q-6.29,0-9.63.3v26.46h7a73.94,73.94,0,0,0,9.12-.51,20.64,20.64,0,0,0,6.84-1.93,10.29,10.29,0,0,0,4.31-4,13.43,13.43,0,0,0,1.52-6.84,13,13,0,0,0-1.52-6.59,11.26,11.26,0,0,0-4.11-4.16,17.92,17.92,0,0,0-6.08-2.13A43.4,43.4,0,0,0,929.54,103.06Z" fill="#fff"></path>
            <path d="M1038.51,95.15q-3.14,3.45-7.1,7.65t-8.26,8.62q-4.31,4.41-8.57,8.67t-8,7.91a90.83,90.83,0,0,1,9.23,7.5q4.87,4.46,9.53,9.53t8.77,10.34a87.29,87.29,0,0,1,6.84,10h-11.56a99.32,99.32,0,0,0-7-9.58q-4-4.81-8.36-9.23t-8.92-8.16a78.91,78.91,0,0,0-8.77-6.39V165.4h-9.83V95.15h9.83v31q3.55-3.35,7.81-7.55t8.41-8.46q4.15-4.26,7.85-8.16t6.24-6.84h11.86Z" fill="#fff"></path>
        </g>
    </svg>