<svg id="elements" xmlns="http://www.w3.org/2000/svg" width="32" height="32" viewBox="0 0 32 32">
  <title>restlet_icons_screen</title>
  <path d="M2.94,6.78L14,0.45a3.46,3.46,0,0,1,3.41,0L28.37,6.78A3.31,3.31,0,0,1,30,9.67V22.33a3.28,3.28,0,0,1-1.6,2.89L17.48,31.55a3.3,3.3,0,0,1-3.32,0L2.93,25.22A3.61,3.61,0,0,1,1,22.33V9.67A3.62,3.62,0,0,1,2.94,6.78Z" fill="#fff"/>
  <path d="M18,20.82h2.22c-0.19-.39-2.46-4.14-2.68-4.41a3.44,3.44,0,0,0,1.5-1.11,3,3,0,0,0,.52-1.85,3,3,0,0,0-1.29-2.69,6.69,6.69,0,0,0-3.72-.86H11.77a0.31,0.31,0,0,0-.35.33V20.82h2.43V16.88h0V12c0.12,0,.7,0,0.87,0a3.71,3.71,0,0,1,1.77.33,1.19,1.19,0,0,1,.6,1.13,1.24,1.24,0,0,1-.59,1.17,4.14,4.14,0,0,1-2,.34h0c-0.36,0-.48.18-0.33,0.52l0.88,1.41c0.18,0.21,1.71,2.67,2.29,3.61A0.86,0.86,0,0,0,18,20.82Z" fill="#1b252f"/>
</svg>
