          <svg xmlns="http://www.w3.org/2000/svg" id="elements" width="516.19" height="127.95" viewBox="0 0 516.19 127.95" class="svg replaced-svg">
            <title>restlet_icons_screen</title>
            <path d="M6.81,27.1L50.36,1.79a13.22,13.22,0,0,1,13.28,0l43.6,25.31A13.5,13.5,0,0,1,114,38.66V89.28a13.48,13.48,0,0,1-6.73,11.56L63.75,126.16a13.19,13.19,0,0,1-13.26,0L6.82,100.85A13.57,13.57,0,0,1,0,89.28V38.66A13.55,13.55,0,0,1,6.81,27.1Z" fill="#1b252f"></path>
            <g>
              <path d="M156.46,79V44.15h21v4.17H161.33V58.83h14.33V63H161.33V79h-4.88Z" fill="#1b252f"></path>
              <path d="M206.78,64.41q0.8,1,2,2.64t2.54,3.62q1.31,2,2.59,4.15A42.34,42.34,0,0,1,216.13,79H210.8q-1-1.91-2.19-3.87t-2.39-3.75Q205,69.59,203.84,68t-2.14-2.71c-0.44,0-.88.05-1.33,0.05h-5.76V79h-4.88V44.66a27.6,27.6,0,0,1,4.6-.68q2.54-.18,4.65-0.18,7.34,0,11.19,2.76T214,54.81a9.66,9.66,0,0,1-1.83,5.93A10.83,10.83,0,0,1,206.78,64.41Zm-7.39-16.34q-3.12,0-4.78.15V61.35h3.47a36.67,36.67,0,0,0,4.52-.25,10.24,10.24,0,0,0,3.39-1,5.1,5.1,0,0,0,2.14-2,6.66,6.66,0,0,0,.75-3.39,6.46,6.46,0,0,0-.75-3.27,5.58,5.58,0,0,0-2-2.06,8.89,8.89,0,0,0-3-1.06A21.52,21.52,0,0,0,199.39,48.07Z" fill="#1b252f"></path>
              <path d="M252.32,79q-0.86-2.26-1.61-4.45t-1.56-4.45H233.37L230.2,79h-5.08q2-5.53,3.77-10.23t3.44-8.92q1.68-4.22,3.34-8.07t3.47-7.62h4.47q1.81,3.77,3.47,7.62t3.34,8.07q1.68,4.22,3.44,8.92T257.65,79h-5.33Zm-4.57-12.92q-1.61-4.37-3.19-8.47t-3.29-7.87q-1.76,3.77-3.34,7.87t-3.14,8.47h13Z" fill="#1b252f"></path>
              <path d="M284.29,74.16Q283.79,73,283,71.1l-1.78-4q-1-2.16-2-4.45l-2-4.32q-1-2-1.79-3.64T274,52.2q-0.55,5.93-.9,12.84T272.48,79H267.7q0.2-4.52.45-9.12t0.58-9q0.33-4.45.7-8.67t0.83-8h4.27q1.36,2.21,2.92,5.23t3.12,6.31q1.56,3.29,3,6.59l2.67,6,2.66-6q1.46-3.29,3-6.59t3.12-6.31q1.56-3,2.92-5.23h4.27Q303.95,61,304.8,79H300q-0.25-7-.6-13.95T298.52,52.2q-0.5.85-1.33,2.46T295.4,58.3l-2,4.32q-1.08,2.29-2,4.45l-1.79,4q-0.83,1.86-1.33,3.07h-3.92Z" fill="#1b252f"></path>
              <path d="M318.73,79V44.15H340v4.17H323.6V58.68h14.58v4.07H323.6V74.82h17.64V79H318.73Z" fill="#1b252f"></path>
              <path d="M372.77,55.36q-2.11,6.74-4.27,12.47T364.17,79H359.3q-2.67-7.69-4.7-16.24t-3.79-18.6h5.13q0.7,3.92,1.46,7.84t1.56,7.62q0.8,3.7,1.61,7.06t1.66,6.23q2-5.28,4.27-11.59t4.22-13h4.22q2,6.74,4.27,13t4.32,11.59q0.8-2.82,1.61-6.18t1.58-7.06Q387.5,56,388.25,52t1.46-7.87h5q-1.81,10.06-3.85,18.6T386.19,79h-4.88Q379.1,73.56,377,67.83T372.77,55.36Z" fill="#1b252f"></path>
              <path d="M404.49,61.55a21.63,21.63,0,0,1,1.33-7.89,16.32,16.32,0,0,1,3.62-5.71,15,15,0,0,1,5.33-3.44,18,18,0,0,1,6.46-1.16,17.51,17.51,0,0,1,6.36,1.16,14.84,14.84,0,0,1,5.25,3.44,16.51,16.51,0,0,1,3.59,5.71,21.63,21.63,0,0,1,1.33,7.89,21.62,21.62,0,0,1-1.33,7.89,16.49,16.49,0,0,1-3.59,5.71,14.83,14.83,0,0,1-5.25,3.44,17.51,17.51,0,0,1-6.36,1.16,18,18,0,0,1-6.46-1.16,15,15,0,0,1-5.33-3.44,16.3,16.3,0,0,1-3.62-5.71A21.62,21.62,0,0,1,404.49,61.55Zm5.13,0a19.3,19.3,0,0,0,.8,5.76,12.87,12.87,0,0,0,2.29,4.4,10,10,0,0,0,3.62,2.79,11.37,11.37,0,0,0,4.8,1,11.21,11.21,0,0,0,4.77-1,10.07,10.07,0,0,0,3.6-2.79,12.91,12.91,0,0,0,2.29-4.4,21,21,0,0,0,0-11.51,12.91,12.91,0,0,0-2.29-4.4,10.08,10.08,0,0,0-3.6-2.79,11.21,11.21,0,0,0-4.77-1,11.37,11.37,0,0,0-4.8,1,10,10,0,0,0-3.62,2.79,12.87,12.87,0,0,0-2.29,4.4A19.31,19.31,0,0,0,409.62,61.55Z" fill="#1b252f"></path>
              <path d="M468.33,64.41q0.8,1,2,2.64t2.54,3.62q1.31,2,2.59,4.15A42.34,42.34,0,0,1,477.68,79h-5.33q-1-1.91-2.19-3.87t-2.39-3.75q-1.21-1.78-2.39-3.34t-2.14-2.71c-0.44,0-.88.05-1.33,0.05h-5.76V79h-4.88V44.66a27.6,27.6,0,0,1,4.6-.68q2.54-.18,4.65-0.18,7.34,0,11.19,2.76t3.85,8.24a9.66,9.66,0,0,1-1.83,5.93A10.83,10.83,0,0,1,468.33,64.41Zm-7.39-16.34q-3.12,0-4.78.15V61.35h3.47a36.67,36.67,0,0,0,4.52-.25,10.24,10.24,0,0,0,3.39-1,5.1,5.1,0,0,0,2.14-2,6.66,6.66,0,0,0,.75-3.39,6.46,6.46,0,0,0-.75-3.27,5.58,5.58,0,0,0-2-2.06,8.89,8.89,0,0,0-3-1.06A21.52,21.52,0,0,0,460.94,48.07Z" fill="#1b252f"></path>
              <path d="M515,44.15q-1.56,1.71-3.52,3.8t-4.1,4.27q-2.14,2.19-4.25,4.3t-4,3.92a45,45,0,0,1,4.57,3.72q2.41,2.21,4.73,4.73T512.8,74a43.29,43.29,0,0,1,3.39,5h-5.73A49.25,49.25,0,0,0,507,74.24q-2-2.39-4.15-4.57t-4.42-4a39.13,39.13,0,0,0-4.35-3.17V79h-4.88V44.15h4.88V59.54q1.76-1.66,3.87-3.75t4.17-4.2q2.06-2.11,3.9-4t3.09-3.39H515Z" fill="#1b252f"></path>
            </g>
            <path d="M66.36,85.13A2.91,2.91,0,0,0,66.72,85h8.52c-0.75-1-9.84-16.4-10.72-17.48a13.63,13.63,0,0,0,6-4.38,12,12,0,0,0,2.09-7.35c0-4.86-1.72-8.23-5.17-10.54S59,42,52.56,42H41.3c-0.9,0-1.3.08-1.3,0.94V85H50V70H49.64L50,61.81V50h3.31c3.12,0,5.38.4,7,1.29a4.69,4.69,0,0,1,2.35,4.49,5.11,5.11,0,0,1-2.39,4.76C58.67,61.46,56,62,52.37,62H52.24c-1.42,0-1.9.61-1.32,2l3.51,5.61c0.71,0.85,6.85,10.57,9.14,14.33A3.43,3.43,0,0,0,66.36,85.13Z" fill="#fff"></path>
          </svg>