<svg xmlns="http://www.w3.org/2000/svg" xmlns:xlink="http://www.w3.org/1999/xlink" version="1.1" id="back" x="0px" y="0px" width="187px" height="auto" viewBox="73.5 103.5 491 448" enable-background="new 73.5 103.5 491 448" xml:space="preserve" class="svg replaced-svg">
  <title>restlet_illustration_tho</title>
  <g>
	<path fill="#182D3D" d="M134.17,329.76c-8.022-3.523-14.192-10.26-17-18.56c-1.465-4.495-1.973-9.247-1.49-13.95l1.38-6.47   c-1.129-0.072-2.261-0.072-3.39,0c-0.618,0.096-1.177,0.426-1.56,0.92c-1.06,1.6-2,3.29-2.95,4.95c-1.48,2.78-3.07,5.51-4.41,8.35   c-2.26,4.78-4.14,9.7-4.5,15.06c-0.34,5.061,1.44,9.051,6,11.5c1.572,0.847,3.219,1.546,4.92,2.091   c5.891,1.68,11.995,2.491,18.12,2.409c2.43,0,4.87,0,7.31-0.069c2.28,0.08,3.6-1.15,4.27-3.931l-6.29-2   C134.449,329.952,134.312,329.853,134.17,329.76z"></path>
    <path fill="#182D3D" d="M186.52,332.21c5.63-2.77,7.86-6.88,7.05-13.12c-1.06-8.22-4.76-15.41-8.85-22.45c-1-1.69-2-3.4-3-5.08   c-0.168-0.329-0.459-0.577-0.81-0.69c-1.33-0.07-2.66,0-4.06,0l1.35,6.13c-0.015,0.28-0.015,0.56,0,0.84   c0.844,7.309-0.97,14.678-5.11,20.76c-3.376,5.011-8.102,8.963-13.63,11.4l-6.46,2.11c1,3,2,4,4.28,3.89   c0.326,0.094,0.662,0.15,1,0.17c4.89-0.17,9.8-0.2,14.67-0.59C177.646,335.325,182.25,334.182,186.52,332.21z"></path>
    <path fill="#182D3D" d="M168.85,283.51c0.551-0.46,0.624-1.28,0.163-1.831c-0.077-0.091-0.165-0.171-0.263-0.239   c-1.18-1.08-2.37-2.15-3.5-3.28c-1.13-1.13-1.78-0.91-2.91-0.08c-9.272,6.829-21.938,6.719-31.09-0.27   c-0.52-0.58-1.411-0.629-1.991-0.109c-0.038,0.034-0.075,0.071-0.109,0.109c-1.22,1.1-2.43,2.23-3.68,3.3   c-1.06,0.91-1,1.72-0.07,2.74c5.78,6.61,13,10.1,22.68,10.23C156,293.78,163.21,290.26,168.85,283.51z"></path>
    <path fill="#182D3D" d="M158.31,328.15c0.684-0.096,1.161-0.728,1.065-1.411c-0.012-0.089-0.034-0.176-0.065-0.259   c-0.499-3.031-0.345-6.134,0.45-9.101c1.799-8.111,7.415-14.85,15.07-18.08c1-0.47,1.49-1,1.2-2.13c-0.38-1.5-0.68-3-1-4.55   c-0.25-1.36-1-1.73-2.31-1.5c-13.654,2.316-23.58,14.242-23.38,28.09c0.138,3.256,0.779,6.471,1.9,9.53   c0.127,0.74,0.831,1.237,1.571,1.109c0.121-0.021,0.238-0.058,0.35-0.109C154.9,329.22,156.6,328.67,158.31,328.15z"></path>
    <path fill="#182D3D" d="M140.06,303.39c-4.53-6.88-11-10.75-19-12.29c-0.776-0.306-1.653,0.075-1.958,0.851   c-0.057,0.144-0.091,0.295-0.102,0.449c-0.32,1.52-0.64,3-1,4.54c-0.31,1.26,0.1,1.9,1.34,2.45   c5.254,2.228,9.589,6.183,12.29,11.209c2.664,4.604,3.755,9.951,3.11,15.23c-0.34,1.051,0.236,2.179,1.287,2.519   c0.118,0.038,0.24,0.065,0.363,0.081c1.32,0.351,2.6,0.84,3.91,1.19c1.85,0.49,2.09,0.46,2.55-1.33c0.82-3.17,1.45-6.39,2.15-9.58   l-0.38-0.09C144.633,313.205,143.046,307.907,140.06,303.39z"></path>
    <path fill="#182D3D" d="M123,280.57l5.21-4.7l1.53-1c5.011-3.31,10.874-5.099,16.88-5.15c6.87-0.081,13.582,2.067,19.13,6.12   l5.28,4.71c0.61-1.14,1.23-2.14,1.67-3.21c0.182-0.505,0.16-1.061-0.06-1.55c-0.9-1.74-1.91-3.43-2.88-5.14   c-2.933-5.539-6.606-10.653-10.92-15.2c-1.862-1.857-3.929-3.498-6.16-4.89c-3.32-2.184-7.6-2.266-11-0.21   c-1.407,0.765-2.73,1.673-3.95,2.71c-5.73,4.92-9.76,11.16-13.49,17.62c-1,1.72-1.95,3.42-2.89,5.15   c-0.191,0.296-0.266,0.652-0.21,1C121.67,278.13,122.34,279.33,123,280.57z"></path>
    <path fill="#182D3D" d="M536,315.58c-1.57-1-3.59-1.41-5.41-2.08c-0.2-6.26,0.4-12.68-0.75-18.76   c-3.85-20.41-19.14-30.34-39.359-26.19c-4.25,0.87-8.48,1.85-12.711,2.77c-4.1-6.53-8.159-13.09-12.329-19.58   c-3.311-5.16-7.73-5.12-11.351-1c-2.219,2.764-3.551,6.135-3.82,9.67c-0.619,7.92-0.359,15.91-0.449,23.88l-7.36,26.2   c-7.26,2.75-14.6,5.33-21.75,8.359c-2.17,0.92-5.649,3.761-5.36,4.58c1,2.88,3,6,5.48,7.62s6.09,1.851,9.11,1.601   c6.72-0.58,13.38-1.851,20.06-2.841c5.54,3.681,10.6,8.851,16.69,10.78c20.92,6.63,41.14,6.32,58.12-10.41   c3.81-0.569,8-0.33,11.3-2c2.569-1.279,4.739-4.66,5.56-7.54C542,319.58,538.21,317.05,536,315.58z M517.07,323.22   c-7.36,13.5-22.45,13.41-30.11,0.11c-1.21-2.1-2.2-4.32-3.3-6.49c-0.1-2-0.2-4-0.3-6.06c0.1,2,0.2,4,0.3,6.06   c6.34,0.68,12.3,0.2,14.66-7c2-6,0-10.79-5.771-13.78l-7.39-2.77c2.41-7.11,6.64-12.38,14.14-14.06s12.891,2.14,16.63,8   c7.431,11.65,7.721,23.96,1.16,36L517.07,323.22z"></path>
    <path fill="#182D3D" d="M532.74,408.11c-0.524-1.807-1.941-3.216-3.75-3.73c-9.07-3-18.101-6-27.19-8.91   c-1.417-0.328-2.885-0.376-4.319-0.14c-1.41,0.14-2.48,0.25-3.23-1.4c-0.59-1.196-1.492-2.212-2.61-2.939   c-2.593-1.617-5.722-2.139-8.7-1.45c-9.899,1.689-19.85,3-29.77,4.649c-1.46,0.24-3.4,0.061-4,2.101c-3.34,2.78-2,6.28-1.15,9.61   c-0.477,0.219-0.968,0.406-1.47,0.56c-8.37,1.83-16.729,3.78-25.14,5.41c-3.4,0.66-5.521,2-6,5.649c-0.63,5.341-2.91,10.45-2.37,16   c0.41,4.28,0.89,8.551,1.27,12.841c0.801,9.09,1.45,18.189,2.391,27.26c0.229,1.963,0.974,3.829,2.16,5.41   c6.55,8.47,13.29,16.79,19.949,25.17c2.16,2.72,3.521,3.16,6.721,1.92c28.366-10.993,56.733-21.993,85.1-33   c1.819-0.534,3.135-2.114,3.33-4c0.67-5.891,1.24-11.79,1.88-17.69c0.7-6.479,1.51-13,2.101-19.45c0.31-3.42,1.159-6.8-0.351-10.3   C535.71,417.27,534.27,412.66,532.74,408.11z M478.59,431.21c-2.922,4.011-4.402,8.892-4.2,13.85c0,1.74-0.45,2.591-2.18,2.87   c-1.304,0.265-2.592,0.598-3.86,1c-1.67-6.689,3.67-18,10.681-22.75c8.18-5.569,22.899-5.58,31,0.19   c-2.34,2.06-3.58,5.07-7.101,6.28L504,430C497.3,422.48,484.69,423.08,478.59,431.21z M488.24,397.21l-32.36,7.12   c-1.41-2.6-1.2-3.08,1.311-3.55c8.54-1.59,17.069-3.221,25.609-4.771C484.44,395.71,486.25,395.13,488.24,397.21z M447.76,400.26   l1.44-4c3.729-0.77,7.439-1.64,11.2-2.27c5.18-0.86,10.399-1.53,15.67-1.891l-20.391,3.761c-0.88,0.159-1.739,0.399-2.63,0.5   c-2.51,0.33-4.39,1.35-5.3,3.899H447.76z M511.68,462.75c0,1.44-0.229,2.33-1.649,3c-5.57,2.46-10.92,5.54-16.67,7.43   c-9.79,3.221-18-0.64-22.221-10c-1.3-2.87-1.89-6.069-2.76-9.14c-0.209-0.935-0.369-1.879-0.479-2.83L454.67,455   c-3.64,1.06-7.27,2.2-10.939,3.14c-1.561,0.4-1.91,1.101-1.851,2.65c0.521,12.64,0.94,25.29,1.38,37.94c0,0.55-0.06,1.1-0.09,1.64   h-0.54c-0.09-0.74-0.22-1.48-0.25-2.22c-0.62-12.487-1.236-24.974-1.85-37.46c-0.11-2.221-0.54-2.561-2.561-1.71   c-1.75,0.729-2.68,0.31-3.439-1.44c-1.213-2.881-2.599-5.687-4.15-8.4c-2.29-3.89-4.82-7.63-7-11.079l0,0l1.11,0.47   c-2-2.811-3.7-5.07-5.2-7.48c-0.547-0.898-0.77-1.957-0.63-3c0.54-2.85,1.399-5.63,2-8.46c0.38-1.67,1.25-2.3,2.87-1.76   c4.239,1.41,7.439,4.28,10.45,7.41c0.103,0.106,0.185,0.232,0.239,0.37c0.37,1,0.47,2.439,1.141,2.77   c0.819,0.4,2.13-0.09,3.199-0.32c21.521-4.666,43.04-9.353,64.561-14.06c1.79-0.39,3.56-0.87,5.34-1.31l0.15,0.659l-75,17.271   c5.229,7.729,7.449,16.149,8.1,25.37l-6.11-6.23l-0.63,0.57c2.05,2.45,4,5,6.221,7.31c0.34,0.37,1.52,0.141,2.25-0.069   c14.227-4.073,28.449-8.17,42.67-12.29c8.293-2.387,16.593-4.754,24.899-7.101c-0.615,0.377-1.265,0.695-1.939,0.95   c-10.561,3.106-21.131,6.19-31.71,9.25c-2.82,0.82-2.841,0.811-2.181,3.79c0.822,4.354,2.742,8.427,5.58,11.83   c7.32,8.42,17.46,6.42,23.59,2.11c0.514-0.379,0.844-0.956,0.91-1.591c-0.069-3-0.27-6.069-0.45-9.439l-8.43,2.189   c2.92-3.819,6.29-5.06,16.69-6.22c-3.07,3.65-1.4,7.771-1.4,11.7H511.68z M511.91,437.94l12.42-3.71l0.17,0.63L511.91,437.94z"></path>
    <path fill="#182D3D" d="M331.82,358.7l-2.061-0.23l-1.789-0.2l-2.141-0.199l-1.78-0.16l-1.95-0.141v-102.2l13.78,6.1   c1.438,0.855,2.968,1.546,4.56,2.06l0.92,0.42l0.051-0.12c3.492,0.947,7.15,1.101,10.71,0.45c14.771-2.58,27-17.19,29-33.66   l12.11,5.36c1.438,0.854,2.968,1.545,4.56,2.06l0.92,0.42l0.05-0.12c3.492,0.947,7.151,1.101,10.71,0.45   c16-2.8,29.141-19.78,29.29-37.92c0.09-11.57-5.109-20.81-13.05-25.26l0.06-0.14l-57.289-26c0,0-8.57-1.81-13.301-1   c-0.789,0.14-1.58,0.32-2.359,0.53l-47.26-21.45c0,0-7.5-1.59-11.65-0.86c-12.84,2.24-23.54,14.88-25.36,29.17l-13.21-6l-0.16,0.25   c-3.649-1.444-7.632-1.829-11.49-1.11c-14,2.45-25.51,17.32-25.64,33.2c-0.09,10.73,5,19.18,12.7,22.77v0.14l39.39,17.44   c1.96,6.685,6.622,12.249,12.86,15.35v0.16l14.78,6.54v112.7h-0.08l-2.33,0.12l-1.78,0.12l-2.22,0.16l-1.79,0.159l-2.13,0.2   l-1.8,0.2l-2.06,0.23l-1.78,0.229l-2,0.271l-1.76,0.27l-1.93,0.3l-1.73,0.3l-1.87,0.341l-1.7,0.34l-1.81,0.37l-1.66,0.37   l-1.74,0.399l-1.63,0.4l-1.67,0.43l-1.58,0.43l-1.61,0.46l-1.54,0.46l-1.54,0.49l-1.49,0.5l-1.47,0.51l-1.45,0.53l-1.39,0.53   l-1.39,0.56l-1.32,0.55l-1.33,0.591l-1.25,0.58l-1.28,0.609l-1.16,0.59l-1.22,0.641l-1.08,0.609l-1.15,0.67l-1,0.62l-1.08,0.7   l-0.92,0.64l-1,0.73l0,0c-0.466-0.813-1.023-1.571-1.66-2.26c0.253,1.019,0.453,2.05,0.6,3.09l-0.69,0.56l-0.74,0.66   c-0.29,0.26-0.58,0.521-0.86,0.78c-0.28,0.26-0.44,0.439-0.65,0.66c-0.21,0.22-0.53,0.54-0.78,0.81   c-0.25,0.271-0.38,0.44-0.56,0.67c-0.18,0.23-0.47,0.561-0.69,0.84c-0.22,0.28-0.32,0.44-0.47,0.67c-0.15,0.23-0.42,0.58-0.6,0.87   s-0.25,0.44-0.38,0.66s-0.36,0.61-0.51,0.91s-0.19,0.43-0.29,0.64c-0.1,0.211-0.29,0.641-0.41,1c-0.12,0.36-0.13,0.4-0.19,0.601   s-0.23,0.68-0.31,1c0,0.16-0.06,0.33-0.09,0.49c-0.08,0.38-0.17,0.77-0.21,1.149h-0.1v9.65c-8,8-19.37,14.24-25.13,22.89   c-7.14,10.71,3.5,22.23,18,35.3c-5.65-12.77-24.82-24,0-43.56c2.486-1.951,4.863-4.037,7.12-6.25v3.17h0.08   c0.216,2.007,0.835,3.948,1.82,5.71c-8.71,6.86-13.72,16.82-2.14,30.16l0,0c7.38,8.49-1.94,16.14-1.94,16.14S242,452.07,233.36,440   c-5.23-7.35-9.66-12.3-2.92-20.19c11.53,12.61,41.75,21.61,77.26,21.61c44.38,0,80.54-14.06,82.21-31.64H390v-21.2h-0.1   c0-0.38-0.131-0.76-0.211-1.141c0-0.17-0.049-0.34-0.1-0.5c-0.08-0.34-0.199-0.68-0.311-1c-0.109-0.319-0.119-0.409-0.189-0.609   s-0.27-0.641-0.41-1c-0.14-0.36-0.18-0.43-0.289-0.65c-0.111-0.22-0.33-0.609-0.511-0.91c-0.18-0.3-0.239-0.439-0.38-0.659   c-0.141-0.221-0.4-0.58-0.6-0.87c-0.2-0.29-0.311-0.45-0.48-0.67c-0.17-0.221-0.45-0.561-0.689-0.841   c-0.24-0.279-0.371-0.449-0.57-0.67c-0.2-0.22-0.51-0.54-0.77-0.81c-0.261-0.271-0.431-0.45-0.66-0.67   c-0.23-0.22-0.561-0.521-0.851-0.78s-0.489-0.439-0.75-0.66c-0.26-0.22-0.62-0.5-0.93-0.75l-0.841-0.649l-1-0.721l-0.92-0.64   l-1.08-0.7l-1-0.63l-1.149-0.67l-1.09-0.61l-1.21-0.64l-1.17-0.59l-1.271-0.61l-1.25-0.58l-1.329-0.58l-1.32-0.56l-1.391-0.56   l-1.4-0.53l-1.439-0.53l-1.47-0.51l-1.49-0.49l-1.55-0.49l-1.53-0.46l-1.62-0.46l-1.58-0.43l-1.68-0.43l-1.62-0.4l-1.75-0.4   l-1.659-0.369l-1.811-0.37l-1.689-0.34l-1.871-0.341l-1.729-0.3l-1.94-0.31l-1.75-0.271l-2-0.27L331.82,358.7z"></path>
    <path fill="#182D3D" d="M198,490.75c-23.52,6.57,14.3,20.15,44.24,7.31c-2.918-1.128-5.735-2.503-8.42-4.109   c-13.36,2.53-19.55,2.729-31.67,1.34C192.14,494.15,198,490.75,198,490.75z"></path>
    <path fill="#182D3D" d="M238.65,477.93c-17.69,3.41-27.92,3.301-40.86,2c-10-1-3.46-5.89-3.46-5.89   c-25.91,8.6,14.41,18.35,50.61,7.76C242.6,480.955,240.459,479.638,238.65,477.93z"></path>
    <polygon fill="#182D3D" points="264.77,503.13 264.77,503.13 264.77,503.13  "></polygon>
    <path fill="#182D3D" d="M169.33,514.74c61,9.899,111.28-4.46,95.45-11.601c0,0,4.32,3.561-4.76,6.32   c-17.28,5.24-71.93,6.82-87.11,0.21c-5.46-2.37,4.78-5.67,8-6.36c1.728-0.422,3.502-0.62,5.28-0.59   C180.1,498.44,146.94,511.11,169.33,514.74z"></path>
    <path fill="#182D3D" d="M200.8,456.66c0,0-10.79-0.73-24.07,5.689c-15.7,7.591,38.83,11,67.06,3.62   c2.228-1.435,4.569-2.686,7-3.739c0,0-11.55,2.06-23.05,3c-14.08,1.18-29.19,1.409-36.77,0.39   C173,463.26,200.8,456.66,200.8,456.66z"></path>
    <path fill="#182D3D" d="M250.66,484.53c-0.144,0.284-0.341,0.539-0.58,0.75c38.32-10.07,24.23-35.511,5.91-29.07   c-0.989,0.368-1.843,1.027-2.45,1.89c1.068-0.379,2.165-0.674,3.28-0.88C266.09,455.29,279.36,469.62,250.66,484.53z"></path>
    <path fill="#182D3D" d="M274.46,510.92c0,0-1.93,4.94-22.76,8.86c-23.51,4.42-52.5,3.91-69.7,1.069c0,0,3.52,2.91,21.62,4.07   C231.16,526.7,273.46,524,274.46,510.92z"></path>
  </g>
  <ellipse opacity="0.15" enable-background="new    " cx="307.71" cy="435.49" rx="82.29" ry="32.92"></ellipse>
  <g>
	<path fill="#B78429" d="M115.73,297.25c-0.483,4.703,0.024,9.455,1.49,13.95c2.808,8.3,8.978,15.036,17,18.56   c0.166,0.087,0.326,0.184,0.48,0.29c-0.261,0.072-0.498,0.21-0.69,0.4c-0.69,1.72-1.32,3.46-2.11,5.56h4.82   c-2.44,0-4.87,0.11-7.31,0.07c-6.125,0.082-12.229-0.73-18.12-2.41c-1.701-0.544-3.348-1.243-4.92-2.09   c-4.59-2.44-6.37-6.44-6-11.5c0.36-5.35,2.23-10.28,4.5-15.06c1.35-2.84,2.93-5.57,4.41-8.35c1.9,0.35,3.79,0.71,5.7,1   C115.259,297.59,115.516,297.446,115.73,297.25z"></path>
    <path fill="#B78429" d="M184.73,296.65c4.08,7,7.78,14.23,8.85,22.45c0.81,6.24-1.43,10.341-7.05,13.12   c-4.291,1.983-8.919,3.131-13.64,3.38c-4.88,0.391-9.78,0.42-14.67,0.591c-0.339-0.021-0.674-0.077-1-0.171h4.91   c-0.75-2-1.34-3.6-2-5.189c-0.193-0.308-0.437-0.582-0.72-0.811c5.536-2.443,10.265-6.406,13.64-11.43   c4.141-6.082,5.955-13.451,5.11-20.76c-0.015-0.28-0.015-0.56,0-0.84c0.24,0.318,0.561,0.567,0.93,0.72   C181,297.4,182.87,297,184.73,296.65z"></path>
    <path fill="#B78429" d="M165.73,275.84c-5.548-4.053-12.26-6.2-19.13-6.12c-6.006,0.052-11.868,1.84-16.88,5.15l-1.53,1   c-0.313-0.64-0.674-1.255-1.08-1.84c-0.92-1.15-1.93-2.24-2.9-3.36c3.73-6.46,7.76-12.7,13.49-17.62   c1.22-1.037,2.543-1.945,3.95-2.71c3.401-2.056,7.68-1.974,11,0.21c2.231,1.393,4.298,3.033,6.16,4.89   c4.313,4.547,7.987,9.661,10.92,15.2c-1.34,1.54-2.68,3.08-4,4.64C165.681,275.463,165.682,275.656,165.73,275.84z"></path>
    <path fill="#E0A01F" d="M148.08,294.11c-9.67-0.14-16.9-3.63-22.68-10.23c-0.89-1-1-1.82,0.07-2.74c1.25-1.07,2.45-2.2,3.68-3.3   c0.52-0.58,1.411-0.628,1.991-0.109c0.038,0.034,0.075,0.071,0.109,0.109c9.152,6.989,21.818,7.099,31.09,0.27   c1.13-0.83,1.92-0.91,2.91,0.08c0.99,0.99,2.32,2.2,3.5,3.28c0.593,0.406,0.744,1.215,0.339,1.807   c-0.067,0.098-0.147,0.187-0.239,0.263C163.21,290.26,156,293.78,148.08,294.11z"></path>
    <path fill="#E0A01F" d="M149.37,319.2c-0.2-13.848,9.726-25.773,23.38-28.09c1.34-0.22,2.06,0.15,2.31,1.5c0.28,1.53,0.59,3,1,4.55   c0.29,1.15-0.16,1.66-1.2,2.13c-7.655,3.23-13.271,9.968-15.07,18.08c-0.795,2.967-0.948,6.069-0.45,9.1   c0.239,0.648-0.093,1.366-0.741,1.605c-0.084,0.03-0.171,0.053-0.259,0.064c-1.71,0.511-3.41,1.061-5.12,1.601   c-0.68,0.32-1.49,0.028-1.81-0.65c-0.052-0.111-0.089-0.229-0.11-0.35C150.167,325.679,149.517,322.461,149.37,319.2z"></path>
    <path fill="#E0A01F" d="M145,318.69c-0.71,3.199-1.33,6.42-2.15,9.59c-0.46,1.779-0.7,1.819-2.55,1.33   c-1.32-0.351-2.6-0.851-3.91-1.19c-1.096-0.14-1.871-1.141-1.731-2.236c0.016-0.124,0.043-0.245,0.082-0.363   c0.645-5.28-0.447-10.626-3.11-15.23c-2.701-5.027-7.036-8.981-12.29-11.21c-1.24-0.54-1.65-1.18-1.34-2.45c0.37-1.5,0.7-3,1-4.54   c0.058-0.832,0.779-1.459,1.611-1.402c0.154,0.011,0.305,0.045,0.449,0.102c8,1.54,14.49,5.41,19,12.29   c2.968,4.516,4.541,9.806,4.52,15.21L145,318.69z"></path>
    <path fill="#B78429" d="M165.73,275.84c-0.047-0.18-0.047-0.37,0-0.55c1.32-1.56,2.67-3.09,4-4.64c1,1.71,2,3.39,2.88,5.14   c0.22,0.489,0.242,1.045,0.06,1.55c-0.44,1.07-1.06,2.07-1.67,3.21L165.73,275.84z"></path>
    <path fill="#B78429" d="M124.21,270.67c1,1.12,2,2.2,2.9,3.36c0.406,0.585,0.767,1.201,1.08,1.84l-5.21,4.7   c-0.64-1.23-1.3-2.44-1.86-3.69c-0.056-0.348,0.019-0.704,0.21-1C122.26,274.1,123.24,272.39,124.21,270.67z"></path>
    <path fill="#B78429" d="M159.46,330c0.283,0.229,0.526,0.502,0.72,0.81c0.65,1.601,1.23,3.21,2,5.19h-4.91   c-2.25,0.09-3.3-0.86-4.28-3.89L159.46,330z"></path>
    <path fill="#B78429" d="M115.73,297.25c-0.233,0.219-0.52,0.374-0.83,0.45c-1.9-0.3-3.8-0.66-5.7-1c1-1.66,1.89-3.35,2.95-4.95   c0.383-0.495,0.942-0.824,1.56-0.92c1.129-0.073,2.261-0.073,3.39,0L115.73,297.25z"></path>
    <path fill="#B78429" d="M136.67,336h-4.82c0.79-2.1,1.42-3.84,2.11-5.56c0.192-0.19,0.43-0.328,0.69-0.4l6.29,2   C140.27,334.86,138.95,336.09,136.67,336z"></path>
    <path fill="#B78429" d="M184.73,296.65c-1.86,0.36-3.72,0.76-5.6,1c-0.369-0.153-0.689-0.401-0.93-0.72l-1.35-6.12   c1.39,0,2.73,0,4.06,0c0.351,0.112,0.643,0.361,0.81,0.69C182.75,293.25,183.73,295,184.73,296.65z"></path>
  </g>
  <g>
	<path fill="#E0A01F" d="M524.84,330.19c-17,16.729-37.2,17-58.12,10.409c-6.09-1.93-11.159-7.1-16.689-10.779   c2.29-1.36,4.6-2.7,6.88-4.08c3.74-2.28,6.82-4.83,5-10c-1.68-4.86-4.86-7-10-6.311c-3.13,0.44-6.28,0.71-9.42,1.061l7.359-26.2   l1.08,6.47l26.86-19.45c4.24-0.93,8.46-1.9,12.71-2.77c20.22-4.15,35.51,5.79,39.36,26.19c1.149,6.08,0.55,12.5,0.75,18.76   L524.84,330.19z M483.68,316.84c1.09,2.17,2.09,4.391,3.301,6.49c7.659,13.3,22.75,13.39,30.109-0.11c6.57-12,6.28-24.35-1.149-36   c-3.74-5.87-9.25-9.65-16.631-8c-7.38,1.65-11.729,6.95-14.14,14.06l7.39,2.77c-6.88-1.18-9.689,2.1-9.449,8.66   C483.26,308.76,483.48,312.8,483.68,316.84L483.68,316.84z"></path>
    <path fill="#B78429" d="M442.48,310.51c3.14-0.35,6.289-0.62,9.42-1.06c5.17-0.73,8.35,1.45,10,6.31c1.779,5.15-1.301,7.71-5,10   c-2.28,1.391-4.58,2.721-6.881,4.08c-6.68,1-13.34,2.26-20.06,2.84c-3,0.261-6.66-0.069-9.11-1.6   c-2.449-1.53-4.449-4.74-5.479-7.62c-0.29-0.82,3.189-3.66,5.36-4.58C427.88,315.84,435.22,313.26,442.48,310.51z"></path>
    <path fill="#B78429" d="M477.79,271.33l-26.86,19.45l-1.08-6.47c0.091-8-0.17-16,0.45-23.88c0.27-3.535,1.601-6.906,3.82-9.67   c3.63-4.14,8-4.18,11.35,1C469.63,258.24,473.69,264.8,477.79,271.33z"></path>
    <path fill="#B78429" d="M524.84,330.19l5.771-16.69c1.819,0.67,3.84,1,5.409,2.08c2.2,1.47,6,4,5.671,5.1   c-0.811,2.88-3,6.261-5.561,7.54C532.86,329.86,528.65,329.62,524.84,330.19z"></path>
    <path fill="#B78429" d="M492.57,296.05c5.75,3,7.729,7.76,5.77,13.78c-2.359,7.21-8.32,7.689-14.66,7   c-0.189-4-0.42-8.08-0.56-12.13C482.87,298.15,485.69,294.87,492.57,296.05z"></path>
  </g>
  <path fill="#E0A01F" d="M449.14,396.31c0.62-2.06,2.561-1.88,4-2.109c9.91-1.61,19.87-3,29.771-4.65  c2.978-0.688,6.106-0.167,8.7,1.45c1.118,0.728,2.02,1.743,2.609,2.94c0.75,1.649,1.82,1.54,3.23,1.399  c1.436-0.235,2.902-0.188,4.319,0.141c9.091,2.89,18.131,5.949,27.19,8.909c1.809,0.515,3.226,1.924,3.75,3.73  c1.53,4.56,3,9.17,4.86,13.57c1.5,3.5,0.649,6.88,0.35,10.3c-0.59,6.49-1.4,13-2.1,19.45c-0.63,5.89-1.21,11.8-1.88,17.689  c-0.195,1.886-1.512,3.466-3.33,4c-28.38,10.953-56.747,21.953-85.101,33c-3.21,1.24-4.56,0.8-6.72-1.92  c-6.66-8.39-13.4-16.7-19.95-25.17c-1.187-1.58-1.932-3.447-2.16-5.41c-0.939-9.07-1.59-18.18-2.39-27.26  c-0.38-4.28-0.86-8.561-1.271-12.84c-0.529-5.521,1.74-10.62,2.37-16c0.44-3.69,2.55-5,6-5.65c8.41-1.63,16.771-3.58,25.141-5.41  c0.502-0.153,0.993-0.341,1.47-0.56c-0.84-3.351-2.21-6.88,1.23-9.67l-1.471,4c0.91-2.55,2.79-3.57,5.29-3.86  c0.88-0.1,1.75-0.34,2.63-0.5l20.391-3.76c-5.271,0.35-10.48,1-15.67,1.89C456.62,394.66,452.89,395.54,449.14,396.31z   M511.14,438.16c-8.366,2.387-16.733,4.773-25.1,7.16c-14.227,4.093-28.45,8.189-42.67,12.29c-0.72,0.21-1.91,0.439-2.25,0.069  c-2.17-2.34-4.17-4.85-6.22-7.31l0.63-0.57l6.109,6.23c-0.649-9.23-2.87-17.641-8.1-25.37l75-17.271l-0.15-0.659  c-1.779,0.439-3.55,0.92-5.34,1.31c-21.52,4.667-43.04,9.354-64.56,14.06c-1.07,0.23-2.38,0.721-3.2,0.32  c-0.67-0.32-0.771-1.8-1.14-2.77c-0.056-0.138-0.137-0.264-0.24-0.37c-3-3.141-6.22-6-10.45-7.41c-1.62-0.54-2.5,0.1-2.87,1.76  c-0.64,2.83-1.5,5.61-2,8.46c-0.139,1.043,0.083,2.102,0.63,3c1.5,2.4,3.221,4.67,5.2,7.48l-1.1-0.471  c2.199,3.45,4.739,7.19,7,11.08c1.555,2.714,2.943,5.519,4.16,8.4c0.76,1.75,1.689,2.17,3.439,1.44c2-0.851,2.45-0.511,2.561,1.71  c0.619,12.486,1.236,24.973,1.85,37.46c0,0.739,0.17,1.479,0.25,2.22h0.54c0-0.55,0.11-1.101,0.09-1.641  c-0.44-12.649-0.86-25.289-1.37-37.939c-0.06-1.54,0.29-2.25,1.851-2.65c3.67-0.939,7.3-2.08,10.939-3.14l13.22-3.83  c0.111,0.951,0.271,1.896,0.48,2.83c0.87,3.06,1.46,6.27,2.76,9.14c4.25,9.37,12.43,13.23,22.221,10c5.75-1.89,11.1-5,16.67-7.43  c1.42-0.63,1.649-1.52,1.649-3c0-3.93-1.62-8.05,1.39-11.76c-10.399,1.16-13.77,2.399-16.689,6.22l8.43-2.19  c0.181,3.37,0.391,6.4,0.45,9.44c-0.066,0.635-0.396,1.212-0.91,1.59c-6.13,4.311-16.27,6.311-23.59-2.109  c-2.84-3.377-4.773-7.42-5.62-11.75c-0.66-3-0.64-3,2.18-3.79c10.574-3.073,21.144-6.157,31.711-9.25  c0.729-0.276,1.435-0.61,2.109-1l13.34-3.271l-0.17-0.63L511.14,438.16z M510.04,426.39c-8.14-5.779-22.86-5.76-31-0.189  c-7,4.77-12.35,16.06-10.68,22.75c1.268-0.402,2.556-0.736,3.859-1c1.73-0.28,2.2-1.13,2.181-2.87  c-0.202-4.958,1.277-9.839,4.199-13.85c6.101-8.12,18.71-8.73,25.431-1.24l-1.05,2.7c3.51-1.23,4.75-4.24,7.09-6.301H510.04z   M488.2,397.21c-2-2.08-3.79-1.5-5.44-1.2c-8.54,1.55-17.069,3.181-25.609,4.771c-2.511,0.47-2.721,1-1.311,3.55L488.2,397.21z"></path>
  <g>
	<path fill="#1B252F" d="M390,388.53h-0.1c-2.141-17.42-38.121-31.271-82.19-31.271c-44.07,0-80,13.86-82.19,31.271h-0.1v21.2h0.08   c1.67,17.59,37.83,31.64,82.21,31.64s80.54-14.061,82.21-31.64H390V388.53L390,388.53z"></path>
    <ellipse fill="#345470" cx="307.71" cy="390.17" rx="82.29" ry="32.92"></ellipse>
  </g>
  <g>
	<path fill="#1B252F" d="M322.1,205.22L322.1,205.22c-0.32-2.57-5.629-4.62-12.149-4.62s-11.83,2-12.15,4.62l0,0v181.9l0,0   c0.25,2.6,5.59,4.68,12.15,4.68c6.56,0,11.899-2.08,12.149-4.68l0,0V205.22z"></path>
    <ellipse fill="#587289" cx="309.94" cy="205.46" rx="12.16" ry="4.86"></ellipse>
  </g>
  <path fill="#345470" d="M355.67,150.65l0.051-0.13l-50.161-22.76c0,0-7.5-1.59-11.65-0.86c-14,2.45-25.52,17.32-25.64,33.2  c-0.09,10.73,5,19.18,12.7,22.77v0.14l46.299,20.5c1.262,0.751,2.604,1.358,4,1.81l0.801,0.36v-0.11  c3.057,0.832,6.262,0.968,9.38,0.4c14-2.45,25.521-17.32,25.64-33.2C367.18,162.64,362.62,154.55,355.67,150.65z"></path>
  <path fill="#345470" d="M305.45,173l0.05-0.13l-50.16-22.76l-0.16,0.25c-3.649-1.444-7.632-1.829-11.49-1.11  c-14,2.45-25.52,17.32-25.64,33.2c-0.09,10.73,5,19.18,12.7,22.77v0.14l46.3,20.5c1.262,0.751,2.604,1.358,4,1.81l0.8,0.36v-0.11  c3.058,0.832,6.263,0.968,9.38,0.4c14-2.45,25.52-17.32,25.64-33.2C317,185,312.4,176.87,305.45,173z"></path>
  <path fill="#1B252F" d="M425.72,175.81l0.061-0.14l-57.29-26c0,0-8.57-1.81-13.301-1c-16,2.8-29.14,19.78-29.289,37.92  c-0.101,12.26,5.75,21.91,14.51,26v0.15l52.88,23.42c1.438,0.854,2.968,1.545,4.56,2.06l0.92,0.42l0.051-0.12  c3.491,0.947,7.15,1.101,10.71,0.45c16-2.8,29.14-19.78,29.29-37.92C438.86,189.51,433.66,180.27,425.72,175.81z"></path>
  <path fill="#E0A01F" d="M433.21,202c-0.12,14.67-10.72,28.39-23.68,30.66s-23.37-7.79-23.251-22.46  C386.4,195.53,397,181.85,410,179.59C423,177.33,433.33,187.38,433.21,202z"></path>
  <path fill="#1B252F" d="M368.359,201.3l0.061-0.14l-57.29-26l-0.18,0.29c-4.167-1.65-8.714-2.09-13.12-1.27  c-16,2.8-29.14,19.78-29.29,37.92c-0.1,12.26,5.75,21.91,14.51,26v0.15l52.88,23.42c1.438,0.854,2.969,1.546,4.561,2.06l0.92,0.42  l0.05-0.12c3.491,0.947,7.151,1.101,10.71,0.45c16-2.8,29.141-19.78,29.29-37.92C381.5,215,376.3,205.76,368.359,201.3z"></path>
  <path fill="#E0A01F" d="M375.85,227.53c-0.119,14.67-10.72,28.39-23.68,30.66s-23.37-7.79-23.25-22.46s10.721-28.39,23.68-30.66  C365.561,202.8,376,212.87,375.85,227.53z"></path>
  <g id="g10302">
	<path id="path3265" fill="#E0A01F" d="M198,490.75c0,0-5.84,3.4,4.16,4.55c12.12,1.38,18.31,1.181,31.67-1.34   c2.685,1.606,5.501,2.981,8.42,4.11c-29.94,12.83-67.76-0.74-44.24-7.311"></path>
    <path id="path3267" fill="#E0A01F" d="M194.33,474c0,0-6.56,4.85,3.46,5.89c12.95,1.341,23.17,1.44,40.86-2   c1.812,1.697,3.953,3.004,6.29,3.841c-36.2,10.59-76.52,0.829-50.61-7.761"></path>
    <path id="path3269" fill="#E0A01F" d="M225.17,445.6c7.38,8.49-1.94,16.141-1.94,16.141S242,452.07,233.36,440   c-8-11.29-14.2-16.9,19.16-36.25c0,0-52.36,13.08-27.35,41.89"></path>
    <path id="path3271" fill="#E0A01F" d="M264.77,503.14c0,0,4.33,3.561-4.76,6.32c-17.28,5.24-71.93,6.82-87.11,0.21   c-5.46-2.37,4.78-5.67,8-6.36c1.728-0.422,3.502-0.62,5.28-0.59c-6.07-4.279-39.23,8.391-16.84,12c61,9.9,111.28-4.46,95.45-11.6"></path>
    <path id="path3273" fill="#E0A01F" d="M200.8,456.66c0,0-27.8,6.6-9.84,9c7.58,1,22.69,0.79,36.77-0.391c11.5-1,23.05-3,23.05-3   c-2.431,1.055-4.772,2.306-7,3.74c-28.23,7.42-82.76,4-67.06-3.62c13.28-6.42,24.07-5.689,24.07-5.689"></path>
    <path id="path3275" fill="#E0A01F" d="M250.66,484.53c28.69-14.91,15.43-29.24,6.17-27.311c-1.115,0.207-2.212,0.501-3.28,0.88   c0.607-0.862,1.461-1.521,2.45-1.89c18.32-6.44,32.41,19-5.91,29.07c0.24-0.211,0.437-0.466,0.58-0.75"></path>
    <path id="path3277" fill="#E0A01F" d="M233.36,372.47c0,0,15.89,15.9-15.07,40.34c-24.83,19.61-5.66,30.79,0,43.561   c-14.49-13.08-25.13-24.59-18-35.3c10.47-15.73,39.49-23.351,33.08-48.601"></path>
    <path id="path3279" fill="#E0A01F" d="M203.62,524.93c27.54,1.761,69.84-1,70.84-14c0,0-1.93,4.94-22.76,8.86   c-23.51,4.42-52.5,3.91-69.7,1.07C182,520.86,185.52,523.77,203.62,524.93"></path>
  </g>
</svg>