<svg xmlns="http://www.w3.org/2000/svg" xmlns:xlink="http://www.w3.org/1999/xlink" version="1.1" id="back" x="0px" y="0px" width="235px" height="auto" viewBox="60.5 150.5 526 336" enable-background="new 60.5 150.5 526 336" xml:space="preserve" class="svg larger replaced-svg">
  <title>restlet_illustration_tho</title>
  <polygon fill="#182D3D" points="323.01,212.84 320.07,214.13 320.07,211.72 241.28,246.05 241.28,335.24 244.22,333.96   244.22,336.37 246.88,337.54 243.32,339.09 323.63,374.56 402.42,340.22 399.76,339.05 403.32,337.5 403.32,248.31 403.31,248.31   403.32,248.31 "></polygon>
  <g opacity="0.35">
	<polyline fill="#345470" points="320.07,211.72 239.76,176.25 160.97,210.59 160.98,210.59 160.97,210.59 160.97,299.78    241.28,335.24 320.07,300.91 320.07,211.72 320.06,211.72 320.07,211.72  "></polyline>
    <polyline fill="#182D3D" points="320.07,211.72 320.07,211.72 241.28,246.05 241.28,335.24 320.07,300.91 320.07,211.72  "></polyline>
    <polyline fill="#4D6982" points="239.76,176.25 160.97,210.59 241.28,246.05 320.07,211.72 239.76,176.25  "></polyline>
  </g>
  <g opacity="0.15">
	<polyline fill="#E0A01F" points="240.82,248.82 160.51,213.36 81.72,247.7 81.73,247.7 81.72,247.7 81.72,336.89 162.03,372.35    240.82,338.02 240.82,248.83 240.81,248.83 240.82,248.82  "></polyline>
    <polyline fill="#B78429" points="240.82,248.83 240.82,248.83 162.03,283.16 162.03,372.35 240.82,338.02 240.82,248.83  "></polyline>
    <polyline fill="#F2BE61" points="160.51,213.36 81.72,247.7 162.03,283.16 240.82,248.82 160.51,213.36  "></polyline>
  </g>
  <g opacity="0.3">
	<polyline fill="#345470" points="402.42,340.22 322.109,304.76 243.32,339.09 243.33,339.1 243.32,339.1 243.32,428.28    323.63,463.75 402.42,429.41 402.42,340.23 402.41,340.23 402.42,340.22  "></polyline>
    <polyline fill="#182D3D" points="402.42,340.23 402.42,340.23 323.63,374.56 323.63,463.75 402.42,429.41 402.42,340.23  "></polyline>
    <polyline fill="#4D6982" points="322.109,304.76 243.32,339.09 323.63,374.56 402.42,340.22 322.109,304.76  "></polyline>
  </g>
  <g>
    <polyline fill="#345470" points="403.32,248.31 323.01,212.84 244.22,247.18 244.23,247.18 244.22,247.18 244.22,336.37    324.529,371.83 403.32,337.5 403.32,248.31 403.31,248.31 403.32,248.31  "></polyline>
    <polyline fill="#182D3D" points="403.32,248.31 403.32,248.31 324.529,282.64 324.529,371.83 403.32,337.5 403.32,248.31  "></polyline>
    <polyline fill="#4D6982" points="323.01,212.84 244.22,247.18 324.529,282.64 403.32,248.31 323.01,212.84  "></polyline>
  </g>
  <g opacity="0.15">
	<polyline fill="#345470" points="485.6,284.77 405.29,249.31 326.5,283.64 326.51,283.65 326.5,283.65 326.5,372.83 406.81,408.3    485.6,373.96 485.6,284.78 485.59,284.78 485.6,284.77  "></polyline>
    <polyline fill="#182D3D" points="485.6,284.78 485.6,284.78 406.81,319.11 406.81,408.3 485.6,373.96 485.6,284.78  "></polyline>
    <polyline fill="#4D6982" points="405.29,249.31 326.5,283.64 406.81,319.11 485.6,284.77 405.29,249.31  "></polyline>
  </g>
  <g opacity="0.15">
	<polyline fill="#E0A01F" points="565.99,249.45 485.68,213.99 406.89,248.32 406.9,248.33 406.89,248.33 406.89,337.52    487.2,372.98 565.99,338.64 565.99,249.46 565.98,249.46 565.99,249.45  "></polyline>
    <polyline fill="#B78429" points="565.99,249.46 565.99,249.46 487.2,283.79 487.2,372.98 565.99,338.64 565.99,249.46  "></polyline>
    <polyline fill="#F2BE61" points="485.68,213.99 406.89,248.32 487.2,283.79 565.99,249.45 485.68,213.99  "></polyline>
  </g>
  <path fill="#FFFFFF" d="M345.939,258.12c-9.699,5.18-34.6-0.52-35.649-0.77c-0.345-0.066-0.681-0.173-1-0.32  c-0.256-0.115-0.49-0.274-0.69-0.47c-0.54-0.52-13.17-12.75-3.47-17.93l17.7-9.44c1.147-0.413,2.414-0.344,3.51,0.19l36.7,17.54  c1.12,0.53,1.37,1.33,0.56,1.76L345.939,258.12z M354.58,247.33l-14.27-6.82l-26.21,14c2.25,0.44,5.94,1.11,9.94,1.56  c5.34,0.6,12.44,0.93,15.78-0.85L354.58,247.33z"></path>
  <path fill="#FFFFFF" d="M296.17,317.65c0,12.779-14.26,15-14.87,15c-0.213,0.037-0.433,0.01-0.63-0.08  c-0.238-0.103-0.452-0.252-0.63-0.44c-0.61-0.58-14.87-14.54-14.87-27.32v-23.26c0-1.06,0.7-1.65,1.55-1.3l27.9,11.51  c0.942,0.52,1.533,1.504,1.55,2.58V317.65L296.17,317.65z M291.52,296.31l-10.85-4.48v34.5c1.802-0.433,3.538-1.105,5.16-2  c2.59-1.48,5.69-4.18,5.69-8.58V296.31z"></path>
  <path fill="#FFFFFF" d="M383,307.37c0,12.78-14.09,26.52-14.689,27.1c-0.176,0.186-0.387,0.332-0.621,0.431  c-0.193,0.089-0.41,0.113-0.619,0.069c-0.6-0.09-14.69-2.489-14.69-15.26V296.4c0.003-1.069,0.59-2.051,1.53-2.56l27.57-11.1  c0.84-0.34,1.529,0.26,1.529,1.33v23.31L383,307.37z M378.41,289.8l-10.721,4.32v34.5c1.83-1.96,3.533-4.034,5.101-6.21  c2.56-3.58,5.62-8.79,5.62-13.19V289.8z"></path>
</svg>