<svg xmlns="http://www.w3.org/2000/svg" xmlns:xlink="http://www.w3.org/1999/xlink" version="1.1" id="Layer_1" x="0px" y="0px" width="235px" height="auto" viewBox="0 78.5 640 453" enable-background="new 0 78.5 640 453" xml:space="preserve" class="svg larger replaced-svg">
<title>restlet_illustration_tho</title>
    <g>
	<g id="back">
		<g>
			<path fill="#182D3D" d="M277.2,253.63l0.31,0.26l0.78,0.63l0.5,0.39c0.5,0.39,1,0.82,1.689,1.3l1.391,1l1.569,1.14     c0.551,0.41,1.141,0.82,1.75,1.25l1.92,1.32l0.29,0.2c1.261,0.87,2.61,1.76,4,2.69l2.28,1.45c0.16,0.74,0.33,1.477,0.51,2.21     c1.276,5.195,3.018,10.266,5.2,15.15c-0.42,0.62-0.823,1.233-1.21,1.84s-0.773,1.22-1.16,1.84c-0.366,0.6-0.699,1.187-1,1.76     c-0.33,0.57-0.649,1.11-1,1.64c-0.35,0.53-0.58,1-0.84,1.53l-0.21,0.38l-0.54,1l-0.62,1.27l-0.27,0.55     c-0.271,0.55-0.5,1.06-0.69,1.49c-0.34,0.76-0.56,1.29-0.66,1.56l-0.08,0.21l15.12,20.77h0.13c0.26,0,0.9,0,1.851-0.07h0.56     c0.521,0,1.09-0.07,1.75-0.14h0.29l1.16-0.11l1.61-0.2c1.14-0.13,2.369-0.32,3.699-0.54c1.33-0.22,2.761-0.46,4.261-0.77     l2.199-0.47c1.16,1.046,2.344,2.066,3.551,3.06c2.413,2,4.913,3.851,7.5,5.55c1.293,0.86,2.603,1.688,3.93,2.48     c0.21,0.88,0.43,1.73,0.64,2.561c0.447,1.739,0.894,3.376,1.34,4.909c0.44,1.521,0.841,2.931,1.261,4.21l0.569,1.811l0.551,1.609     l0,0l0.3,0.87l0.39,1.08l0.2,0.55l0.12,0.32l0.13,0.34l0.24,0.631l0.25,0.619l0.1,0.24l0,0l22.28,6.87l13.89-9     c0,0,0.37-0.54,1-1.591c0.3-0.52,0.681-1.17,1.09-1.939l0.66-1.24l0.7-1.42c0.18-0.35,0.35-0.71,0.53-1.09     c0.767-0.12,1.523-0.254,2.27-0.4l0.3-0.06c0.771-0.16,1.53-0.33,2.28-0.521l0.82,0.681l1.399,1.17l2.131,1.729     c2.069,1.66,4,3.11,5.63,4.34c1.109,0.82,2.1,1.551,3,2.16c0.659,0.471,1.229,0.86,1.76,1.201l0.52,0.35l0.44,0.289     c1,0.641,1.52,1,1.52,1l13.57-9.17l0.32,0.201L437.3,329.5c0,0-0.17-0.78-0.55-2.2c-0.19-0.71-0.431-1.58-0.74-2.59     c-0.311-1.01-0.67-2.17-1.09-3.45c-0.851-2.56-1.931-5.64-3.28-9.09c-0.333-0.86-0.687-1.74-1.06-2.64     c1.038-1.446,1.996-2.949,2.869-4.5l0.551-0.06l0,0l1.93-0.23l1.13-0.16c0.89-0.12,1.65-0.25,2.271-0.37     c1.229-0.22,1.89-0.4,1.89-0.4l13.89-9L456,272.3c0,0-0.63-0.57-1.811-1.54c-0.59-0.49-1.319-1.08-2.18-1.74     c-0.86-0.66-1.85-1.42-3-2.24c-2.22-1.63-4.91-3.55-8-5.58l-2.37-1.54c-1.271-5.718-3.107-11.295-5.479-16.65     c0.426-0.667,0.84-1.31,1.239-1.93c1.59-2.55,2.88-4.89,3.91-6.88c0.51-1,1-1.89,1.33-2.71c0.33-0.82,0.68-1.5,0.92-2.08     c0.49-1.15,0.71-1.81,0.71-1.81l-15.12-20.77c0,0-0.72,0-2,0c-0.649,0-1.439,0.06-2.34,0.13c-0.899,0.07-1.95,0.16-3.1,0.28     c-2.29,0.25-5,0.63-8,1.2l-2.311,0.46c-4.444-3.995-9.26-7.558-14.38-10.64c-0.227-0.913-0.456-1.803-0.689-2.67     c-0.931-3.5-1.881-6.59-2.721-9.15c-0.42-1.28-0.81-2.43-1.18-3.44c-0.37-1.01-0.68-1.87-1-2.57c-0.54-1.4-0.88-2.17-0.88-2.17     l-22.28-6.87l-13.89,9c0,0-0.28,0.39-0.74,1.12l-0.29,0.46c-0.18,0.29-0.38,0.63-0.6,1c-0.221,0.37-0.351,0.6-0.53,0.93     c-0.45,0.76-0.91,1.65-1.42,2.64l-0.58,1.16c-1.68,0.27-3.33,0.6-4.94,1l-2.109-1.8c-1.44-1.21-2.811-2.33-4.101-3.35     s-2.47-2-3.569-2.78l-1.5-1.09l-1.4-1c-0.86-0.63-1.63-1.16-2.24-1.58c-1.229-0.85-1.93-1.27-1.93-1.27l-13.891,9L295.2,195.85     c0,0,0.069,0.28,0.199,0.79c0.091,0.35,0.221,0.82,0.391,1.39c0.17,0.57,0.45,1.57,0.779,2.57l0.381,1.21l0.13,0.4l0.149,0.45     l0.46,1.35c0.33,1,0.71,2.06,1.13,3.17l0.37,1c0.17,0.47,0.36,1,0.551,1.47c0.409,1.09,0.84,2.2,1.319,3.38     c0.33,0.82,0.681,1.66,1,2.53c-0.52,0.71-1,1.45-1.5,2.2l-0.24,0.37c-0.486,0.767-0.953,1.55-1.399,2.35l0,0h-0.48l-1.62,0.15     l-1.43,0.18c-0.89,0.1-1.649,0.23-2.26,0.32c-1.23,0.2-1.89,0.35-1.89,0.35l-13.891,9l0,0l-0.79,20l-0.1,2.47l0,0L277.2,253.63z"></path>
      <path fill="#182D3D" d="M390.699,481.87L390.699,481.87l1.431,1.189l0.229,0.19l0.15,0.12c2.12,1.74,4,3.22,5.649,4.42     c0.83,0.61,1.57,1.16,2.24,1.61l1.21,0.84l0.49,0.33l0.39,0.26c0.681,0.439,1.08,0.68,1.08,0.68l10.15-6.85l0.28,0.14l12.25-8.27     c0,0-0.12-0.59-0.41-1.65c-0.141-0.53-0.32-1.18-0.551-1.939c-0.229-0.761-0.5-1.62-0.81-2.58c-0.63-1.92-1.44-4.221-2.45-6.801     c-0.253-0.666-0.517-1.333-0.79-2c0.778-1.083,1.496-2.208,2.15-3.369h0.41l0,0l1.54-0.19l0.75-0.1     c0.67-0.091,1.229-0.19,1.689-0.28c0.92-0.17,1.41-0.3,1.41-0.3l10.39-6.71l0.66-16.83c0,0-0.47-0.431-1.359-1.15     c-0.44-0.37-1-0.81-1.63-1.3c-0.631-0.49-1.381-1.06-2.211-1.68c-1.659-1.221-3.67-2.65-6-4.17l-1.77-1.15     c-0.952-4.275-2.325-8.445-4.1-12.45c0.319-0.493,0.626-0.977,0.92-1.45c1.189-1.899,2.16-3.659,2.92-5.14     c0.38-0.75,0.72-1.41,1-2s0.51-1.12,0.689-1.56c0.36-0.86,0.53-1.351,0.53-1.351l-11.33-15.55c0,0-0.54,0-1.5,0     c-0.479,0-1.08,0-1.75,0.1s-1.46,0.12-2.31,0.211c-1.71,0.189-3.75,0.469-6,0.899l-1.73,0.34c-3.32-3.002-6.921-5.681-10.75-8     c-0.173-0.667-0.347-1.333-0.52-2c-0.7-2.62-1.41-4.93-2-6.84c-0.32-1-0.601-1.82-0.88-2.57c-0.28-0.75-0.511-1.399-0.721-1.92     c-0.399-1-0.66-1.62-0.66-1.62l-16.649-5.13L362,365.061l-0.16,0.229c-0.13,0.19-0.34,0.5-0.61,1l-0.46,0.76l-0.39,0.681     c-0.33,0.569-0.681,1.229-1.061,2l-0.439,0.869c-1.261,0.2-2.49,0.45-3.69,0.76l-1.58-1.34c-1.08-0.91-2.1-1.739-3.07-2.5     c-0.97-0.76-1.84-1.47-2.67-2.08l-1.159-0.879l-1-0.761c-0.65-0.47-1.221-0.86-1.681-1.18c-0.92-0.63-1.439-1-1.439-1     l-10.391,6.71l-12.25,8.27c0,0,0.08,0.33,0.24,0.93l0.2,0.701c0.149,0.52,0.34,1.17,0.58,1.92l0.29,0.91l0.1,0.299l0.12,0.341     l0.35,1c0.2,0.61,0.44,1.26,0.681,1.94l0.439,1.189c0.207,0.566,0.427,1.153,0.66,1.76c0.233,0.607,0.48,1.23,0.74,1.87     c0.25,0.61,0.5,1.24,0.77,1.89l0,0c-0.479,0.66-0.939,1.351-1.38,2.051c-0.16,0.26-0.31,0.529-0.47,0.789     c-0.16,0.261-0.34,0.551-0.49,0.83h-0.359l-1.21,0.11l-1.07,0.13c-0.67,0.08-1.23,0.17-1.69,0.24c-0.92,0.15-1.41,0.26-1.41,0.26     l-10.39,6.71l0,0l-0.59,15l-0.07,1.84l0,0l0.771,0.641l0.59,0.47l0.37,0.29c0.37,0.29,0.779,0.61,1.26,1l1,0.78l1.18,0.85     c0.83,0.61,1.75,1.24,2.75,1.93c1,0.69,2.08,1.41,3.24,2.16l1.71,1.09c0.48,2.218,1.077,4.407,1.79,6.561     c0.719,2.177,1.547,4.316,2.48,6.41l-0.9,1.37c-0.3,0.467-0.59,0.927-0.87,1.38s-0.54,0.894-0.78,1.319     c-0.5,0.851-1,1.631-1.34,2.37l-0.18,0.34l-0.37,0.7l-0.47,0.95c-0.3,0.58-0.53,1.101-0.721,1.521     c-0.189,0.42-0.229,0.529-0.319,0.729l-0.16,0.4l-0.05,0.14v0.05l11.31,15.53h0.38h1.101h0.399c0.38,0,0.79-0.05,1.261-0.1h0.069     l1.08-0.101l1.2-0.149c0.85-0.091,1.77-0.24,2.77-0.4s2.07-0.35,3.19-0.57l1.65-0.35c0.866,0.786,1.753,1.547,2.659,2.28     c1.807,1.479,3.677,2.863,5.61,4.149c0.967,0.667,1.946,1.283,2.94,1.851c0.159,0.659,0.319,1.3,0.479,1.92     c0.333,1.333,0.667,2.557,1,3.67l0.24,0.82c0.24,0.819,0.47,1.609,0.7,2.329l0.43,1.351l0.41,1.21c0.12,0.37,0.25,0.72,0.359,1     l0.32,0.87c0.141,0.39,0.26,0.689,0.36,0.939l0.149,0.38l0.12,0.29l0,0l16.65,5.131l10.31-6.811c0,0,0.28-0.41,0.73-1.19     c0.229-0.39,0.51-0.869,0.81-1.449l0.5-0.931l0.521-1.06c0.13-0.26,0.26-0.53,0.399-0.811l0.46-0.079l0.851-0.15     C389.17,482.22,389.949,482.06,390.699,481.87z"></path>
      <path fill="#182D3D" d="M68.67,412.88l1.17,0.94l0.54,0.42c0.439,0.35,0.93,0.729,1.5,1.149l1.29,1l1.46,1.061l1.32,0.939     l1.21,0.841l0.899,0.619c1.247,0.867,2.58,1.764,4,2.69l2.13,1.35c0.294,1.374,0.627,2.74,1,4.101     c0.374,1.359,0.787,2.696,1.24,4.01c0.896,2.717,1.927,5.387,3.09,8l-0.89,1.36l-0.23,0.35c-0.373,0.587-0.733,1.156-1.08,1.71     s-0.68,1.1-1,1.64c-0.619,1.051-1.189,2-1.659,3l-0.33,0.62l-0.36,0.67l-0.58,1.181c-0.28,0.54-0.5,1-0.689,1.46l-0.2,0.439     l-0.311,0.7l-0.22,0.521l-0.17,0.43l14.08,19.34H96c0.24,0,0.83,0,1.72-0.07h0.06c0.58,0,1.29-0.08,2.091-0.159l1.35-0.131     l1.5-0.189c1.06-0.12,2.21-0.3,3.45-0.5s2.569-0.43,4-0.71l2.05-0.43l0.46,0.399c3.638,3.241,7.537,6.175,11.66,8.771     c0.61,0.38,1.21,0.779,1.83,1.149c0.2,0.82,0.399,1.61,0.6,2.391c0.413,1.619,0.83,3.143,1.25,4.569l0.11,0.38     c0.359,1.271,0.71,2.46,1.07,3.54l0.529,1.69l0.51,1.5c0.23,0.7,0.461,1.32,0.66,1.86l0.19,0.51c0.18,0.49,0.33,0.89,0.46,1.2     l0.11,0.279l0.119,0.29l0.091,0.23l0,0l20.739,6.39L165.54,498c0,0,0.35-0.51,0.92-1.48c0.279-0.489,0.64-1.09,1-1.81l0.62-1.15     l0.649-1.319c0.16-0.32,0.33-0.66,0.49-1c0.713-0.113,1.417-0.237,2.11-0.37l0.279-0.05c0.71-0.15,1.42-0.301,2.12-0.48     l1.38,1.15l0.69,0.51l2,1.61c1.93,1.55,3.7,2.89,5.24,4c1,0.76,2,1.439,2.79,2c0.609,0.439,1.149,0.8,1.63,1.12l0.49,0.329     l0.409,0.271c0.78,0.51,1.261,0.8,1.381,0.87l0,0l12.64-8.53l0.3,0.18l15.25-10.3c0,0-0.16-0.729-0.52-2     c-0.181-0.66-0.4-1.47-0.69-2.41c-0.29-0.939-0.62-2-1-3.21c-0.79-2.39-1.79-5.25-3.05-8.46c-0.313-0.8-0.646-1.62-1-2.46     c0.966-1.347,1.857-2.745,2.67-4.189l0.51-0.051l0,0l1.92-0.229l0.931-0.13c0.829-0.11,1.539-0.24,2.109-0.351     c0.57-0.109,1-0.199,1.311-0.26l0.449-0.109l12.931-8.351l0.83-21c0,0-0.59-0.53-1.69-1.43c-0.55-0.46-1.229-1-2-1.62     c-0.77-0.62-1.72-1.32-2.75-2.09c-2.06-1.521-4.57-3.3-7.46-5.2l-2.21-1.43c-1.184-5.323-2.893-10.515-5.1-15.5     c0.399-0.613,0.783-1.214,1.149-1.801c1.48-2.369,2.69-4.549,3.641-6.399c0.47-0.931,0.899-1.761,1.239-2.521     s0.641-1.399,0.86-1.939c0.45-1.07,0.66-1.689,0.66-1.689l-14.07-19.25c0,0-0.67,0-1.87,0c-0.6,0-1.34,0.049-2.18,0.119     s-1.81,0.15-2.88,0.26c-2.13,0.23-4.67,0.58-7.49,1.121l-2.15,0.43c-4.139-3.718-8.622-7.032-13.39-9.9     c-0.213-0.854-0.427-1.684-0.64-2.49c-0.87-3.26-1.75-6.13-2.53-8.52c-0.4-1.19-0.75-2.26-1.1-3.2     c-0.351-0.94-0.63-1.74-0.891-2.39c-0.5-1.311-0.819-2-0.819-2l-20.74-6.391L138,344.87c0,0-0.21,0.28-0.561,0.83l-0.399,0.64     l-0.13,0.21c-0.271,0.44-0.58,1-0.931,1.58c-0.35,0.58-0.84,1.53-1.319,2.46l-0.54,1.08c-1.561,0.25-3.101,0.561-4.601,1l-2-1.67     c-1.34-1.13-2.609-2.17-3.819-3.109c-1.21-0.94-2.29-1.83-3.32-2.591l-1.45-1.09l-1.31-0.94c-0.801-0.59-1.511-1.08-2.091-1.47     c-1.149-0.79-1.789-1.19-1.789-1.19l-12.931,8.351L85.57,359.2l0.061,0.239v0.11c0.06,0.25,0.16,0.63,0.3,1.12l0.16,0.55     c0.189,0.65,0.42,1.46,0.72,2.39l0.36,1.131l0.12,0.38l0.14,0.42l0.43,1.26c0.4,1.19,0.87,2.49,1.391,3.89     c0.26,0.707,0.533,1.438,0.819,2.19c0.287,0.753,0.597,1.534,0.931,2.341c0.31,0.76,0.63,1.549,1,2.35l0,0     c-0.601,0.83-1.17,1.68-1.71,2.56c-0.2,0.32-0.391,0.649-0.59,1c-0.2,0.351-0.421,0.681-0.62,1h-0.45l-1.51,0.14l-1.33,0.17     c-0.83,0.091-1.53,0.211-2.11,0.301c-1.15,0.18-1.76,0.32-1.76,0.32L69,391.48l0,0l-0.74,18.659l-0.09,2.301l0,0L68.67,412.88z"></path>
      <path fill="#182D3D" d="M440.14,320.51l0.06,0.23l0.13,0.51l0.19,0.689l0.12,0.42c0.17,0.601,0.38,1.33,0.66,2.181l0.33,1     l0.109,0.34l0.13,0.38l0.391,1.15c0.359,1.09,0.79,2.27,1.27,3.55c0.48,1.28,1,2.66,1.59,4.12c0.28,0.7,0.57,1.41,0.881,2.141     l0,0c-0.551,0.75-1.061,1.539-1.561,2.34c-0.18,0.289-0.36,0.6-0.53,0.899s-0.38,0.62-0.56,0.94h-0.41l-1.38,0.13l-1.22,0.149     c-0.761,0.09-1.4,0.19-1.92,0.271c-1,0.17-1.601,0.3-1.601,0.3L425,349.92l0,0l-0.671,17L424.26,369l0,0c0,0,0.3,0.26,0.88,0.73     l0.66,0.529l0.5,0.4c0.399,0.32,0.84,0.66,1.35,1l1.18,0.89l1.33,1c0.471,0.351,1,0.7,1.49,1.06l1.63,1.121l0.28,0.189     c1.06,0.73,2.19,1.48,3.39,2.26l1.94,1.23c0.267,1.254,0.57,2.5,0.91,3.74s0.713,2.477,1.12,3.709     c0.817,2.473,1.759,4.902,2.819,7.281l-0.81,1.239l-0.21,0.32c-0.667,1.066-1.29,2.083-1.87,3.05l-0.85,1.41     c-0.25,0.45-0.49,0.88-0.711,1.3L439,402l-0.33,0.61l-0.53,1.069c-0.33,0.66-0.601,1.25-0.811,1.73     c-0.21,0.479-0.369,0.85-0.479,1.109l-0.15,0.391l9,12.399l3.801,5.221c0,0,0.6,0,1.68-0.061c0.54,0,1.2-0.069,2-0.149     l1.229-0.11l1.36-0.17c1-0.11,2-0.271,3.14-0.46c1.141-0.19,2.351-0.39,3.62-0.65l1.87-0.399c3.919,3.546,8.18,6.694,12.72,9.399     c0.181,0.74,0.36,1.471,0.54,2.17c0.23,0.9,0.46,1.761,0.69,2.601c0.15,0.53,0.3,1.06,0.45,1.57     c0.37,1.29,0.71,2.479,1.069,3.569l0.49,1.54l0.32,0.931l0.149,0.43l0.131,0.359c0.17,0.48,0.319,0.921,0.46,1.311l0.18,0.49     l0.29,0.779c0.17,0.431,0.29,0.73,0.35,0.9l0.061,0.15l0,0l18.899,5.819L513,447c0,0,0.319-0.46,0.829-1.35     c0.261-0.44,0.58-1,0.921-1.65l0.56-1.05l0.59-1.2c0.15-0.29,0.3-0.6,0.45-0.92l0.52-0.09l1-0.17     c0.881-0.17,1.761-0.351,2.61-0.561l0,0l1.25,1l0.63,0.521l1.811,1.47c1.76,1.41,3.369,2.64,4.779,3.68     c0.94,0.69,1.78,1.311,2.54,1.83l1,0.73l0.891,0.59l0.71,0.46l0.52,0.33l0.431,0.27l11.51-7.779l0.27,0.17l13.9-9.391     c0,0-0.14-0.66-0.47-1.87c-0.16-0.6-0.37-1.34-0.63-2.199c-0.261-0.86-0.561-1.841-0.921-2.931c-0.72-2.17-1.64-4.779-2.779-7.71     c-0.287-0.727-0.587-1.473-0.9-2.24c0.879-1.228,1.69-2.503,2.43-3.819h0.45l0,0l1.78-0.22l0.81-0.11     c0.761-0.101,1.4-0.22,1.921-0.32c1-0.189,1.6-0.34,1.6-0.34l11.79-7.61l0.75-19.1c0,0-0.53-0.48-1.54-1.3     c-0.5-0.42-1.12-0.92-1.85-1.479c-0.73-0.561-1.57-1.201-2.511-1.9c-1.88-1.391-4.17-3-6.79-4.74l-2-1.3     c-1.079-4.849-2.637-9.579-4.649-14.12c0.366-0.561,0.7-1.107,1-1.641c1.35-2.16,2.45-4.149,3.319-5.83     c0.431-0.85,0.82-1.6,1.131-2.299c0.31-0.701,0.579-1.271,0.779-1.761c0.41-1,0.601-1.54,0.601-1.54l-12.83-17.619     c0,0-0.61,0-1.71,0c-0.551,0-1.221,0-2,0.109c-0.78,0.109-1.65,0.13-2.631,0.24c-1.939,0.21-4.26,0.529-6.819,1l-2,0.39     c-3.772-3.38-7.857-6.394-12.2-9c-0.193-0.773-0.39-1.53-0.59-2.27c-0.79-3-1.601-5.59-2.311-7.77c-0.359-1.09-0.68-2.06-1-2.92     c-0.319-0.86-0.58-1.58-0.81-2.18c-0.46-1.19-0.75-1.84-0.75-1.84l-18.9-5.82l-11.79,7.61l-0.229,0.34l-0.271,0.42l-0.359,0.58     l-0.12,0.2c-0.25,0.41-0.53,0.87-0.84,1.44c-0.311,0.57-0.771,1.4-1.21,2.24l-0.5,1c-1.431,0.23-2.83,0.51-4.19,0.87l-1.61-1.53     c-1.22-1.027-2.38-1.973-3.479-2.84c-1.09-0.87-2.09-1.66-3-2.36l-1.32-1l-1.189-0.86c-0.73-0.54-1.381-1-1.9-1.34     c-1-0.72-1.63-1.08-1.63-1.08l-11.85,7.6L440.14,320.51z"></path>
		</g>
	</g>
      <g id="elements">
		<g>
			
				<polyline opacity="0.35" fill="none" stroke="#182D3D" stroke-width="2.81" stroke-miterlimit="10" enable-background="new    " points="     168.85,454.6 392.8,467.65 500.449,410.25 392.8,235.61    "></polyline>

      <line opacity="0.35" fill="none" stroke="#182D3D" stroke-width="2.81" stroke-miterlimit="10" enable-background="new    " x1="139.12" y1="384.7" x2="315.619" y2="270.04"></line>
      <g>
				<path fill="#B78429" d="M454.289,270.81c-0.59-0.49-1.319-1.08-2.18-1.74c-0.859-0.66-1.85-1.42-3-2.24      c-2.22-1.63-4.91-3.55-8-5.58l-2.37-1.54c-1.271-5.717-3.107-11.294-5.479-16.65c0.427-0.667,0.84-1.31,1.24-1.93      c1.59-2.55,2.88-4.89,3.909-6.88c0.511-1,1-1.89,1.33-2.71s0.681-1.5,0.92-2.08c0.49-1.15,0.71-1.81,0.71-1.81l-15.119-20.77      c0,0-0.721,0-2,0c-0.65,0-1.44,0.06-2.351,0.13c-0.91,0.07-1.95,0.16-3.1,0.28c-2.29,0.25-5,0.63-8,1.2l-2.311,0.46      c-4.444-3.995-9.26-7.558-14.38-10.64c-0.227-0.914-0.457-1.803-0.689-2.67c-0.931-3.5-1.881-6.59-2.721-9.15      c-0.42-1.28-0.81-2.43-1.18-3.44c-0.37-1.01-0.68-1.87-1-2.57c-0.54-1.4-0.88-2.17-0.88-2.17l-22.28-6.87l-13.89,9      c0,0-0.391,0.54-1,1.58c-0.32,0.52-0.71,1.16-1.13,1.92c-0.42,0.76-0.91,1.65-1.42,2.64l-0.58,1.16      c-1.681,0.267-3.327,0.6-4.94,1l-2.11-1.8c-1.439-1.21-2.81-2.33-4.1-3.35s-2.47-2-3.57-2.78L331,179.68l-1.4-1      c-0.86-0.63-1.63-1.16-2.24-1.58c-1.229-0.85-1.93-1.27-1.93-1.27l-13.891,9L295.2,195.85c0,0,0.18,0.77,0.59,2.18      c0.2,0.7,0.45,1.57,0.779,2.57l0.511,1.62l0.62,1.811c0.42,1.28,0.939,2.67,1.5,4.18c0.56,1.51,1.18,3.14,1.869,4.85      c0.33,0.82,0.681,1.66,1,2.53c-1.12,1.574-2.145,3.214-3.069,4.91h-0.48l-1.62,0.15l-1.43,0.18c-0.89,0.1-1.65,0.23-2.26,0.32      c-1.23,0.2-1.891,0.35-1.891,0.35l-13.89,9l-0.95,22.5c0,0,0.63,0.55,1.811,1.49c0.59,0.47,1.319,1.05,2.18,1.69l1.39,1      l1.57,1.14c1.11,0.82,2.34,1.66,3.68,2.58c1.341,0.92,2.79,1.89,4.341,2.89l2.279,1.45c1.301,5.964,3.215,11.778,5.71,17.35      c-0.42,0.62-0.823,1.233-1.21,1.84c-0.81,1.25-1.55,2.45-2.2,3.6c-0.649,1.15-1.27,2.18-1.79,3.17l-0.739,1.39l-0.62,1.27      c-0.391,0.78-0.7,1.47-1,2c-0.51,1.12-0.74,1.77-0.74,1.77l15.12,20.77c0,0,0.71,0,2-0.07c0.63,0,1.42-0.08,2.31-0.17l1.45-0.13      l1.61-0.2c1.14-0.13,2.37-0.32,3.699-0.54c1.33-0.22,2.761-0.46,4.261-0.77l2.199-0.47c4.622,4.181,9.646,7.892,15,11.08      c0.211,0.88,0.431,1.729,0.641,2.56c0.446,1.74,0.894,3.377,1.34,4.91c0.44,1.521,0.84,2.92,1.26,4.211l0.57,1.81l0.55,1.61      c0.33,1,0.65,1.859,0.91,2.549c0.51,1.391,0.84,2.15,0.84,2.15l22.28,6.87l13.89-9c0,0,0.37-0.54,1-1.59      c0.3-0.521,0.681-1.17,1.09-1.94l0.66-1.24l0.7-1.42c0.18-0.35,0.35-0.709,0.53-1.09c1.649-0.25,3.27-0.58,4.85-1l2.22,1.86      c2.91,2.399,5.54,4.431,7.761,6.069c1.109,0.82,2.1,1.551,3,2.16c0.899,0.61,1.649,1.141,2.279,1.551c1.25,0.83,2,1.25,2,1.25      l13.57-9.17l0.32,0.199l16.38-11.06c0,0-0.17-0.78-0.55-2.2c-0.19-0.71-0.431-1.58-0.74-2.59s-0.67-2.17-1.09-3.45      c-0.851-2.56-1.93-5.64-3.28-9.09c-0.333-0.86-0.687-1.74-1.06-2.64c1.038-1.446,1.996-2.949,2.87-4.5l0.569-0.061      c1.15-0.13,2.17-0.24,3.061-0.39c0.89-0.15,1.649-0.25,2.27-0.37c1.23-0.22,1.891-0.4,1.891-0.4l13.89-9l0.89-22.51      C456.15,272.18,455.47,271.78,454.289,270.81z"></path>
        <path fill="#E0A01F" d="M440.39,279.78c-0.59-0.49-1.32-1.08-2.18-1.74c-0.86-0.66-1.851-1.42-3-2.24      c-2.221-1.63-4.91-3.55-8-5.58l-2.37-1.54c-1.258-5.726-3.08-11.314-5.44-16.68c0.427-0.667,0.84-1.31,1.24-1.93      c1.59-2.55,2.88-4.89,3.91-6.88c0.51-1,1-1.89,1.33-2.71c0.329-0.82,0.68-1.5,0.92-2.08c0.489-1.15,0.71-1.81,0.71-1.81      l-15.12-20.77c0,0-0.72,0-2,0c-0.65,0-1.44,0.06-2.351,0.13c-0.909,0.07-1.949,0.16-3.1,0.28c-2.29,0.25-5,0.63-8,1.2      l-2.31,0.46c-4.445-3.995-9.261-7.558-14.381-10.64c-0.227-0.913-0.456-1.803-0.689-2.67c-0.93-3.5-1.88-6.59-2.72-9.15      c-0.42-1.28-0.811-2.43-1.181-3.44c-0.37-1.01-0.68-1.87-1-2.57c-0.54-1.4-0.88-2.17-0.88-2.17l-22.28-6.87      c0,0-0.39,0.54-1,1.58c-0.319,0.52-0.71,1.16-1.13,1.92c-0.42,0.76-0.91,1.64-1.42,2.64c-1,2-2.189,4.43-3.37,7.28      c-0.293,0.7-0.586,1.427-0.88,2.18c-5.111-0.141-10.217,0.432-15.17,1.7l-2.109-1.8c-1.44-1.213-2.807-2.33-4.101-3.35      c-1.28-1-2.47-2-3.57-2.78l-1.55-1.18l-1.399-1c-0.86-0.63-1.63-1.15-2.24-1.58c-1.23-0.85-1.93-1.271-1.93-1.271l-16.43,11.13      c0,0,0.18,0.77,0.59,2.18c0.2,0.7,0.45,1.57,0.779,2.57l0.511,1.62l0.62,1.811c0.42,1.28,0.939,2.67,1.5,4.18      c0.56,1.51,1.18,3.14,1.869,4.85c0.33,0.82,0.681,1.66,1,2.53c-2.961,4.1-5.29,8.62-6.909,13.41h-2.341      c-1.59,0-3.079,0.09-4.46,0.18c-1.38,0.09-2.64,0.15-3.79,0.27l-1.619,0.15l-1.431,0.18c-0.89,0.1-1.649,0.23-2.26,0.32      c-1.23,0.2-1.89,0.35-1.89,0.35L276.48,253c0,0,0.63,0.55,1.82,1.49c0.59,0.47,1.32,1.05,2.18,1.69l1.391,1l1.569,1.14      c1.11,0.82,2.34,1.66,3.681,2.58c1.34,0.92,2.79,1.89,4.34,2.89l2.28,1.45c1.301,5.964,3.214,11.778,5.71,17.35      c-0.421,0.62-0.824,1.233-1.21,1.84c-0.811,1.25-1.551,2.45-2.2,3.6c-0.65,1.15-1.271,2.18-1.79,3.17l-0.74,1.39l-0.62,1.27      c-0.39,0.78-0.7,1.47-1,2c-0.51,1.12-0.74,1.77-0.74,1.77l15.12,20.77c0,0,0.71,0,2-0.07c0.63,0,1.42-0.08,2.31-0.17l1.45-0.13      l1.61-0.2c1.14-0.13,2.37-0.32,3.7-0.54c1.33-0.22,2.76-0.46,4.26-0.77l2.2-0.47c4.621,4.181,9.646,7.892,15,11.08      c0.21,0.88,0.43,1.729,0.64,2.56c0.447,1.74,0.894,3.377,1.34,4.91c0.44,1.521,0.84,2.92,1.261,4.211l0.569,1.81l0.55,1.61      c0.33,1,0.65,1.859,0.91,2.549c0.511,1.391,0.84,2.15,0.84,2.15l22.28,6.87c0,0,0.37-0.54,1-1.59c0.3-0.521,0.68-1.17,1.09-1.94      l0.66-1.24l0.7-1.42c0.51-1,1-2.119,1.56-3.34c0.561-1.22,1.12-2.55,1.69-4c0.27-0.68,0.55-1.39,0.83-2.109      c5.113,0.169,10.226-0.373,15.189-1.61l2.221,1.86c2.91,2.4,5.54,4.43,7.76,6.07c1.11,0.819,2.1,1.549,3,2.16      c0.9,0.609,1.65,1.139,2.28,1.549c1.25,0.83,2,1.25,2,1.25l16.38-11.06c0,0-0.17-0.78-0.55-2.2c-0.19-0.71-0.431-1.58-0.74-2.59      c-0.311-1.01-0.67-2.17-1.09-3.449c-0.851-2.561-1.931-5.641-3.28-9.091c-0.333-0.86-0.687-1.74-1.06-2.64      c2.826-3.961,5.066-8.309,6.649-12.91l2.43-0.06c3.181-0.1,6-0.33,8.25-0.57c1.15-0.13,2.171-0.24,3.061-0.39      s1.649-0.25,2.27-0.37c1.23-0.22,1.891-0.4,1.891-0.4l0.89-22.51C442.27,281.2,441.579,280.75,440.39,279.78z"></path>
			</g>
      <g>
				<path fill="#B78429" d="M438.85,432.63c-0.44-0.37-1-0.81-1.63-1.3s-1.38-1.061-2.21-1.68c-1.66-1.221-3.67-2.65-6-4.17      l-1.771-1.15c-0.952-4.271-2.325-8.438-4.1-12.44c0.32-0.493,0.627-0.977,0.92-1.449c1.19-1.9,2.16-3.66,2.92-5.141      c0.38-0.75,0.72-1.41,1-2s0.51-1.12,0.69-1.56c0.359-0.86,0.529-1.351,0.529-1.351l-11.3-15.56c0,0-0.54,0-1.5,0      c-0.479,0-1.08,0-1.75,0.1s-1.46,0.12-2.31,0.211c-1.71,0.189-3.75,0.469-6,0.899l-1.73,0.34c-3.321-3.002-6.921-5.681-10.75-8      c-0.173-0.667-0.347-1.333-0.52-2c-0.7-2.62-1.41-4.93-2-6.84c-0.32-1-0.601-1.82-0.88-2.57c-0.28-0.75-0.511-1.399-0.721-1.92      c-0.399-1-0.66-1.62-0.66-1.62l-16.649-5.13L362,365.061c0,0-0.29,0.399-0.771,1.18c-0.24,0.39-0.53,0.869-0.85,1.439      c-0.32,0.57-0.681,1.23-1.061,2l-0.439,0.87c-1.261,0.2-2.49,0.454-3.69,0.761l-1.58-1.34c-1.08-0.91-2.1-1.74-3.07-2.5      c-0.97-0.761-1.84-1.471-2.67-2.08l-1.159-0.881l-1-0.76c-0.65-0.471-1.221-0.859-1.681-1.18c-0.92-0.631-1.439-1-1.439-1      l-10.391,6.709l-12.25,8.271c0,0,0.141,0.58,0.44,1.63c0.149,0.521,0.34,1.17,0.58,1.92l0.38,1.211l0.46,1.35      c0.32,1,0.7,2,1.12,3.13s0.88,2.351,1.399,3.63c0.25,0.609,0.5,1.24,0.771,1.891c-0.856,1.178-1.642,2.406-2.351,3.68h-0.359      l-1.21,0.109l-1.07,0.131c-0.67,0.08-1.229,0.17-1.689,0.24c-0.921,0.149-1.41,0.26-1.41,0.26l-10.391,6.71l-0.659,16.829      c0,0,0.47,0.41,1.359,1.11c0.44,0.351,1,0.79,1.63,1.271l1,0.779l1.181,0.851c0.829,0.609,1.75,1.239,2.75,1.93      s2.079,1.41,3.239,2.16l1.71,1.09c0.972,4.469,2.402,8.825,4.271,13l-0.9,1.37c-0.6,0.939-1.16,1.83-1.649,2.689      c-0.49,0.86-1,1.631-1.341,2.37l-0.56,1l-0.47,0.95c-0.3,0.58-0.53,1.101-0.721,1.521c-0.38,0.84-0.56,1.319-0.56,1.319      l11.31,15.53c0,0,0.53,0,1.48-0.05c0.47,0,1.06-0.061,1.73-0.13l1.079-0.101l1.2-0.149c0.851-0.101,1.771-0.24,2.771-0.4      s2.069-0.35,3.189-0.57l1.65-0.35c3.453,3.127,7.208,5.904,11.21,8.29c0.16,0.65,0.32,1.3,0.479,1.92      c0.334,1.333,0.667,2.557,1,3.67c0.33,1.141,0.631,2.19,0.94,3.15l0.43,1.35l0.41,1.21c0.25,0.75,0.49,1.391,0.68,1.91      c0.381,1,0.62,1.61,0.62,1.61l16.65,5.13l10.39-6.7c0,0,0.28-0.41,0.73-1.19c0.229-0.39,0.51-0.869,0.81-1.449l0.5-0.931      l0.521-1.06c0.13-0.26,0.26-0.53,0.399-0.811c1.23-0.189,2.44-0.43,3.62-0.729l1.66,1.39c2.18,1.8,4.15,3.311,5.8,4.54      c0.83,0.61,1.57,1.16,2.24,1.61s1.23,0.85,1.7,1.16c0.939,0.62,1.47,0.939,1.47,0.939l10.15-6.85l0.28,0.18l12.25-8.27      c0,0-0.131-0.59-0.41-1.65c-0.141-0.53-0.32-1.18-0.551-1.939c-0.229-0.761-0.5-1.62-0.81-2.58      c-0.63-1.92-1.44-4.221-2.45-6.801c-0.253-0.666-0.517-1.333-0.79-2c0.778-1.083,1.496-2.208,2.15-3.369h0.42      c0.86-0.101,1.62-0.181,2.29-0.29c0.67-0.11,1.229-0.19,1.689-0.28c0.921-0.17,1.41-0.3,1.41-0.3l10.391-6.71l0.66-16.83      C440.25,433.78,439.73,433.35,438.85,432.63z"></path>
        <path fill="#E0A01F" d="M428.46,439.33c-0.44-0.37-1-0.811-1.631-1.3c-0.63-0.49-1.38-1.061-2.21-1.681      c-1.659-1.22-3.67-2.649-6-4.17l-1.76-1.18c-0.952-4.275-2.325-8.445-4.1-12.45c0.319-0.493,0.626-0.977,0.92-1.45      c1.189-1.899,2.16-3.659,2.92-5.14c0.38-0.75,0.72-1.41,1-2s0.51-1.12,0.689-1.56c0.36-0.86,0.53-1.351,0.53-1.351l-11.31-15.53      c0,0-0.54,0-1.5,0c-0.48,0-1.08,0-1.75,0.101c-0.67,0.1-1.46,0.12-2.311,0.21c-1.71,0.189-3.75,0.47-6,0.9l-1.729,0.34      c-3.321-3.002-6.921-5.682-10.75-8c-0.174-0.667-0.347-1.334-0.521-2c-0.699-2.62-1.41-4.93-2-6.84c-0.319-1-0.6-1.82-0.88-2.57      s-0.51-1.4-0.72-1.92c-0.4-1-0.66-1.62-0.66-1.62L362,365.061c0,0-0.29,0.399-0.771,1.18c-0.24,0.39-0.53,0.869-0.85,1.439      c-0.32,0.57-0.681,1.23-1.061,2c-0.76,1.49-1.63,3.311-2.52,5.44c-0.221,0.526-0.44,1.069-0.66,1.63      c-3.823-0.112-7.644,0.309-11.351,1.25l-1.579-1.34c-1.073-0.906-2.097-1.74-3.07-2.5c-1-0.76-1.84-1.471-2.67-2.08l-1.16-0.88      l-1-0.761c-0.65-0.469-1.22-0.859-1.68-1.18c-0.92-0.63-1.44-1-1.44-1l-12.25,8.27c0,0,0.14,0.58,0.44,1.631      c0.149,0.52,0.34,1.17,0.58,1.92l0.38,1.21l0.46,1.351c0.319,1,0.7,2,1.12,3.129c0.42,1.131,0.88,2.351,1.399,3.631      c0.25,0.609,0.5,1.24,0.771,1.89c-2.222,3.074-3.969,6.466-5.181,10.06h-1.75c-1.189,0-2.3,0.07-3.33,0.131      c-1.029,0.06-2,0.109-2.829,0.21l-1.211,0.109l-1.069,0.13c-0.67,0.08-1.23,0.17-1.69,0.24c-0.92,0.15-1.41,0.26-1.41,0.26      l-0.659,16.83c0,0,0.47,0.41,1.359,1.11c0.44,0.35,1,0.79,1.63,1.27l1,0.78l1.181,0.85c0.829,0.61,1.75,1.24,2.75,1.931      c1,0.689,2.079,1.41,3.239,2.16l1.71,1.09c0.972,4.469,2.402,8.825,4.271,13l-0.9,1.37c-0.6,0.939-1.16,1.84-1.649,2.689      c-0.49,0.851-1,1.63-1.341,2.37l-0.56,1l-0.47,0.95c-0.3,0.58-0.53,1.1-0.721,1.52c-0.38,0.841-0.56,1.32-0.56,1.32l11.31,15.53      c0,0,0.53,0,1.48-0.05c0.47,0,1.06-0.061,1.73-0.131l1.079-0.1l1.2-0.15c0.851-0.1,1.771-0.239,2.771-0.399      s2.069-0.351,3.189-0.57l1.65-0.35c3.453,3.127,7.208,5.904,11.21,8.29c0.16,0.649,0.32,1.3,0.479,1.92      c0.334,1.333,0.667,2.557,1,3.67c0.33,1.14,0.631,2.189,0.94,3.15l0.43,1.35l0.41,1.21c0.25,0.75,0.49,1.39,0.68,1.91      c0.381,1,0.62,1.609,0.62,1.609l16.65,5.131c0,0,0.28-0.41,0.729-1.19c0.23-0.39,0.511-0.87,0.811-1.45l0.5-0.93l0.52-1.061      c0.381-0.739,0.761-1.579,1.17-2.5c0.41-0.92,0.841-1.899,1.271-3c0.2-0.51,0.41-1,0.62-1.579      c3.824,0.128,7.647-0.276,11.359-1.2l1.66,1.39c2.181,1.8,4.15,3.311,5.801,4.54c0.829,0.61,1.569,1.16,2.239,1.61      c0.67,0.449,1.23,0.85,1.7,1.16c0.94,0.619,1.47,0.939,1.47,0.939l12.25-8.27c0,0-0.13-0.591-0.409-1.65      c-0.141-0.53-0.32-1.18-0.551-1.94c-0.229-0.76-0.5-1.619-0.81-2.579c-0.63-1.921-1.44-4.221-2.45-6.801      c-0.253-0.666-0.517-1.333-0.79-2c2.123-2.959,3.808-6.209,5-9.649h1.82c2.38-0.08,4.46-0.24,6.17-0.431      c0.86-0.1,1.62-0.18,2.29-0.289c0.67-0.11,1.229-0.19,1.689-0.28c0.92-0.17,1.41-0.3,1.41-0.3l0.66-16.83      C429.86,440.4,429.35,440.06,428.46,439.33z"></path>
			</g>
      <g>
				<path fill="#182D3D" d="M233.68,429c-0.55-0.46-1.229-1-2-1.62c-0.77-0.62-1.72-1.32-2.75-2.09c-2.06-1.521-4.57-3.3-7.46-5.2      l-2.21-1.43c-1.184-5.322-2.893-10.515-5.1-15.5c0.399-0.613,0.783-1.214,1.149-1.8c1.48-2.37,2.69-4.55,3.641-6.4      c0.47-0.93,0.899-1.76,1.239-2.521c0.34-0.76,0.641-1.399,0.86-1.939c0.45-1.07,0.66-1.689,0.66-1.689l-14.11-19.34      c0,0-0.67,0-1.87,0c-0.6,0-1.34,0.049-2.18,0.119s-1.81,0.15-2.88,0.26c-2.13,0.23-4.67,0.58-7.49,1.121l-2.15,0.43      c-4.139-3.718-8.622-7.033-13.39-9.9c-0.213-0.854-0.427-1.684-0.64-2.49c-0.87-3.26-1.75-6.13-2.53-8.52      c-0.4-1.19-0.75-2.26-1.1-3.2c-0.351-0.94-0.63-1.74-0.891-2.39c-0.5-1.311-0.819-2-0.819-2l-20.74-6.391L138,344.87      c0,0-0.37,0.5-1,1.47c-0.3,0.48-0.66,1.08-1.061,1.79c-0.399,0.71-0.84,1.53-1.319,2.46l-0.54,1.08      c-1.567,0.246-3.101,0.58-4.601,1l-2-1.67c-1.34-1.13-2.609-2.17-3.819-3.12s-2.29-1.819-3.32-2.59l-1.45-1.09l-1.31-0.94      c-0.801-0.59-1.511-1.08-2.09-1.47c-1.15-0.79-1.79-1.19-1.79-1.19l-12.931,8.351l-15.2,10.25c0,0,0.171,0.72,0.551,2      c0.189,0.649,0.42,1.46,0.72,2.39l0.479,1.5l0.58,1.68c0.391,1.19,0.87,2.49,1.391,3.891c0.52,1.4,1.1,2.92,1.739,4.52      c0.311,0.76,0.631,1.551,1,2.351c-1.063,1.467-2.039,2.996-2.92,4.579H88.66l-1.511,0.141l-1.34,0.17      c-0.83,0.09-1.53,0.21-2.109,0.301c-1.141,0.18-1.761,0.319-1.761,0.319L69,391.48l-0.83,21c0,0,0.59,0.51,1.689,1.39      c0.551,0.439,1.23,1,2,1.58l1.29,1l1.46,1.06c1,0.76,2.181,1.55,3.42,2.4c1.24,0.85,2.591,1.76,4,2.689l2.131,1.351      c1.234,5.52,3.034,10.898,5.369,16.05c-0.386,0.58-0.76,1.15-1.119,1.71c-0.75,1.17-1.44,2.28-2,3.35c-0.561,1.07-1.19,2-1.66,3      L84,449.33l-0.58,1.18c-0.37,0.721-0.66,1.37-0.891,1.891c-0.47,1-0.689,1.649-0.689,1.649l14.08,19.34c0,0,0.66,0,1.84-0.069      c0.59,0,1.32-0.08,2.15-0.16l1.35-0.13l1.5-0.19c1.06-0.12,2.21-0.3,3.45-0.5s2.569-0.43,4-0.71l2.05-0.43      c4.313,3.896,9.003,7.353,14,10.319c0.2,0.82,0.4,1.61,0.6,2.391c0.414,1.62,0.83,3.144,1.25,4.57      c0.41,1.42,0.78,2.72,1.17,3.92l0.53,1.689l0.51,1.5c0.311,0.93,0.61,1.73,0.851,2.38c0.479,1.3,0.78,2,0.78,2l20.739,6.391      L165.54,498c0,0,0.35-0.51,0.91-1.48c0.279-0.489,0.64-1.09,1-1.81l0.619-1.15l0.65-1.319c0.16-0.32,0.33-0.66,0.49-1      c1.529-0.24,3-0.54,4.51-0.91l2.08,1.67c2.71,2.24,5.16,4.12,7.22,5.65c1,0.76,2,1.439,2.79,2c0.79,0.56,1.53,1.06,2.12,1.449      c1.17,0.78,1.82,1.17,1.82,1.17l12.64-8.529l0.3,0.18l15.25-10.3c0,0-0.16-0.73-0.52-2c-0.18-0.66-0.4-1.47-0.69-2.41      s-0.62-2-1-3.21c-0.79-2.39-1.79-5.25-3.05-8.46c-0.313-0.8-0.646-1.62-1-2.46c0.966-1.347,1.857-2.746,2.67-4.19l0.53-0.05      c1.07-0.12,2-0.229,2.85-0.359c0.851-0.131,1.54-0.24,2.11-0.351c1.149-0.21,1.76-0.37,1.76-0.37l12.93-8.35l0.83-21      C235.36,430.41,234.78,429.89,233.68,429z"></path>
        <path fill="#345470" d="M220.75,437.35c-0.55-0.46-1.23-1-2-1.619c-0.771-0.62-1.75-1.33-2.75-2.091      c-2.061-1.52-4.57-3.3-7.46-5.199L206.3,427c-1.184-5.322-2.893-10.515-5.1-15.5c0.399-0.613,0.783-1.213,1.149-1.8      c1.48-2.37,2.69-4.55,3.64-6.4c0.471-0.93,0.9-1.76,1.24-2.52s0.641-1.4,0.86-1.94c0.45-1.07,0.66-1.689,0.66-1.689      l-14.08-19.34c0,0-0.67,0-1.87,0c-0.6,0-1.34,0.049-2.18,0.119c-0.841,0.07-1.811,0.15-2.88,0.26      c-2.131,0.23-4.671,0.58-7.49,1.121l-2.15,0.43c-4.139-3.717-8.623-7.032-13.39-9.9c-0.214-0.854-0.427-1.684-0.641-2.49      c-0.869-3.26-1.75-6.129-2.529-8.52c-0.4-1.189-0.75-2.26-1.101-3.2c-0.35-0.94-0.63-1.739-0.89-2.39c-0.5-1.301-0.82-2-0.82-2      L138,344.87c0,0-0.37,0.5-1,1.47c-0.3,0.48-0.66,1.08-1.061,1.79c-0.399,0.71-0.84,1.53-1.319,2.46      c-0.95,1.85-2,4.12-3.141,6.77c-0.273,0.668-0.547,1.334-0.819,2c-4.754-0.109-9.499,0.443-14.101,1.641l-2-1.67      c-1.333-1.127-2.606-2.167-3.819-3.12c-1.19-1-2.29-1.819-3.32-2.59L106,352.5l-1.311-0.939c-0.8-0.59-1.51-1.08-2.09-1.471      c-1.149-0.79-1.79-1.189-1.79-1.189l-15.24,10.3c0,0,0.171,0.72,0.551,2c0.189,0.649,0.42,1.46,0.72,2.39l0.479,1.5l0.58,1.68      c0.391,1.19,0.87,2.49,1.391,3.891c0.52,1.4,1.1,2.92,1.739,4.52c0.311,0.76,0.631,1.551,1,2.351      c-2.767,3.829-4.94,8.054-6.449,12.53H83.4c-1.479,0-2.87,0.08-4.149,0.17c-1.28,0.09-2.46,0.14-3.53,0.26l-1.51,0.14      l-1.33,0.171c-0.83,0.09-1.53,0.209-2.11,0.299c-1.14,0.181-1.76,0.32-1.76,0.32l-0.83,21c0,0,0.59,0.51,1.69,1.391      c0.55,0.439,1.229,1,2,1.579l1.29,1l1.46,1.061c1,0.76,2.18,1.55,3.42,2.399c1.239,0.851,2.59,1.761,4,2.69l2.13,1.35      c1.228,5.54,3.024,10.938,5.359,16.11c-0.386,0.58-0.76,1.15-1.119,1.71c-0.75,1.17-1.44,2.28-2,3.35c-0.561,1.07-1.19,2-1.66,3      L84,449.33l-0.58,1.18c-0.37,0.721-0.66,1.37-0.891,1.891c-0.47,1-0.689,1.649-0.689,1.649l14.08,19.34c0,0,0.66,0,1.84-0.069      c0.59,0,1.32-0.08,2.15-0.16l1.35-0.13l1.5-0.19c1.06-0.12,2.21-0.3,3.45-0.5s2.569-0.43,4-0.71l2.05-0.43      c4.313,3.896,9.003,7.353,14,10.319c0.2,0.82,0.4,1.61,0.6,2.391c0.414,1.62,0.83,3.144,1.25,4.57      c0.41,1.42,0.78,2.72,1.17,3.92l0.53,1.689l0.51,1.5c0.311,0.93,0.61,1.73,0.851,2.38c0.479,1.3,0.78,2,0.78,2l20.739,6.391      c0,0,0.351-0.511,0.91-1.48c0.28-0.49,0.64-1.09,1-1.81l0.62-1.15l0.65-1.32c0.47-0.93,0.939-2,1.449-3.109      c0.511-1.11,1-2.37,1.58-3.7c0.25-0.63,0.511-1.29,0.771-2c4.76,0.157,9.519-0.348,14.14-1.5l1.99,1.71      c2.71,2.24,5.16,4.12,7.22,5.65c1,0.76,2,1.439,2.79,2c0.79,0.56,1.53,1.06,2.12,1.449c1.17,0.78,1.82,1.17,1.82,1.17L205,492      c0,0-0.16-0.73-0.521-2c-0.18-0.66-0.399-1.47-0.689-2.41c-0.29-0.939-0.62-2-1-3.21c-0.79-2.39-1.79-5.25-3.051-8.47      c-0.312-0.8-0.646-1.62-1-2.46c2.631-3.682,4.716-7.723,6.19-12l2.26-0.05c3-0.091,5.55-0.301,7.681-0.53      c1.069-0.12,2-0.23,2.85-0.36s1.54-0.239,2.11-0.35c1.149-0.21,1.76-0.37,1.76-0.37l0.83-21      C222.42,438.79,221.85,438.25,220.75,437.35z"></path>
			</g>
      <g id="g10302" opacity="0.35">
				<g>
					<path id="path3265" fill="#182D3D" d="M198.18,229.37c0,0-2.07,1,1.48,2.43c3.524,1.618,7.361,2.441,11.239,2.41       c0.934,0.953,1.937,1.835,3,2.64c-10.63,2.89-24-6.77-15.699-7.48"></path>
          <path id="path3267" fill="#182D3D" d="M196.88,221.53c0,0-2.33,1.55,1.229,3c4.584,1.961,9.515,2.981,14.5,3       c0.609,0.889,1.363,1.67,2.23,2.31c-12.851,1.29-27.16-6.9-18-8.28"></path>
          <path id="path3269" fill="#182D3D" d="M207.82,211.76c2.62,4.5-0.689,7-0.689,7s6.649-2.54,3.59-8.78       c-2.85-5.81-5-8.91,6.8-14.39c0,0-18.58,0.87-9.71,16.13"></path>
          <path id="path3271" fill="#182D3D" d="M221.88,241.25c0,0,1.53,2-1.69,2.37c-6.13,0.7-25.529-3.79-30.91-8.19       c-1.939-1.58,1.7-2.08,2.841-2.08c0.632-0.019,1.263,0.062,1.869,0.24c-2.149-2.49-13.92,0-6,3.78       c21.66,10.23,39.49,8.58,33.87,3.88"></path>
          <path id="path3273" fill="#182D3D" d="M199.17,214.39c0,0-9.87,0.31-3.49,3.09c4.207,1.553,8.563,2.666,13,3.32       c2.711,0.417,5.441,0.694,8.18,0.83c-0.861,0.239-1.693,0.574-2.479,1c-10,0.64-29.37-6.09-23.8-8       c2.751-0.968,5.734-1.059,8.54-0.26"></path>
          <path id="path3275" fill="#182D3D" d="M216.87,231.59c10.18-3.94,5.479-11.61,2.189-11.62c-0.389-0.015-0.777,0.012-1.16,0.08       c0.198-0.311,0.511-0.53,0.87-0.61c6.5-1.14,11.5,11.57-2.1,12.44c0.087-0.077,0.155-0.173,0.2-0.28"></path>
          <path id="path3277" fill="#182D3D" d="M210.73,179.84c0,0,5.641,8.62-5.35,16.6c-8.811,6.41-2,13.23,0,19.48       c-5.141-7.22-8.92-13.38-6.391-17.49C202.71,192.43,212.99,191.74,210.73,179.84"></path>
          <path id="path3279" fill="#182D3D" d="M200.18,245.19c9.771,3.41,24.79,6.2,25.14,0.47c0,0-0.68,2-8.08,1.8       c-8.34-0.26-18.63-3.24-24.739-6.14c0,0,1.25,1.64,7.67,3.88"></path>
				</g>
			</g>
      <g opacity="0.35">
				<g opacity="0.5">
					<path fill="#182D3D" d="M191.29,173.07c-0.45,0.07-0.905,0.114-1.36,0.13c-0.972,0.003-1.938-0.135-2.87-0.41       c-1.296-0.314-2.514-0.889-3.58-1.69c-0.929-0.724-1.701-1.629-2.27-2.66c-0.591-1.095-0.993-2.282-1.19-3.51       c-0.231-1.844-0.345-3.702-0.34-5.56v-19.72L185,140v6.91l6.34,1.7v5.53l-6.34-1.7v8.25c-0.028,1.625,0.167,3.248,0.58,4.82       c0.43,0.973,1.307,1.674,2.35,1.88c0.572,0.153,1.159,0.244,1.75,0.27c0.546,0.032,1.094-0.005,1.63-0.11v5.52H191.29z        M150.72,128.49v34.15l5.64,1.51v-35.29L150.72,128.49z M177,156.84c0,0.407,0,0.85,0,1.33v0.51l-12.08-3.23       c0,0.26,0.02,0.523,0.06,0.79c0.091,1.408,0.622,2.751,1.521,3.84c0.935,1.111,2.199,1.896,3.609,2.24       c0.93,0.253,1.887,0.391,2.851,0.41c0.769,0.034,1.538-0.054,2.28-0.26l0.71,5.88c-0.365,0.131-0.745,0.218-1.131,0.26       c-0.523,0.063-1.052,0.087-1.579,0.07c-0.623-0.019-1.243-0.069-1.86-0.15c-0.675-0.084-1.343-0.214-2-0.39       c-1.593-0.401-3.085-1.13-4.38-2.14c-1.232-0.98-2.275-2.177-3.08-3.53c-0.837-1.413-1.447-2.948-1.811-4.55       c-0.393-1.715-0.587-3.47-0.58-5.23c-0.045-1.878,0.212-3.752,0.761-5.55c0.4-1.324,1.082-2.545,2-3.58       c0.764-0.839,1.753-1.44,2.85-1.73c1.084-0.29,2.226-0.29,3.311,0c2.664,0.722,4.925,2.489,6.27,4.9       C176.24,149.303,177,152.673,177,156.84z M165,150.93l6.859,1.84c-0.038-0.423-0.101-0.844-0.189-1.26       c-0.123-0.578-0.325-1.137-0.601-1.66c-0.258-0.504-0.596-0.963-1-1.36c-0.434-0.406-0.964-0.695-1.54-0.84       c-0.494-0.155-1.024-0.155-1.52,0c-0.42,0.15-0.788,0.417-1.06,0.77c-0.302,0.404-0.522,0.862-0.65,1.35       C165.179,150.151,165.078,150.538,165,150.93z"></path>
				</g>
        <g>
					<path fill="#182D3D" d="M147.77,142.55V137l-6.34-1.7v-6.91l-5.28-0.34v4.14c0,1-0.34,1.42-0.67,1.54       c-0.68,0.25-2-0.15-3.39-0.74c-0.64-0.271-1.38-0.62-2.05-1c-1.036-0.543-2.13-0.969-3.261-1.271       c-2.267-0.606-4.05-0.41-5.35,0.59s-1.95,2.667-1.95,5c-0.016,1.066,0.116,2.129,0.391,3.16c0.247,0.896,0.628,1.749,1.13,2.53       c0.485,0.738,1.063,1.41,1.72,2c0.667,0.62,1.417,1.243,2.25,1.87c0.844,0.626,1.637,1.318,2.37,2.07       c0.467,0.443,0.746,1.047,0.78,1.69c0.1,0.57-0.133,1.148-0.601,1.49c-0.686,0.129-1.395,0.07-2.05-0.17       c-0.977-0.269-1.916-0.655-2.8-1.15c-0.97-0.535-1.894-1.15-2.76-1.84l-0.91,5.25c0.722,0.57,1.484,1.088,2.279,1.55       c1.288,0.749,2.675,1.312,4.12,1.67c2.527,0.667,4.48,0.563,5.86-0.31c1.38-0.874,2.07-2.54,2.07-5       c0.007-0.937-0.083-1.872-0.271-2.79c-0.181-0.836-0.49-1.64-0.92-2.38c-0.495-0.832-1.097-1.595-1.79-2.27       c-0.901-0.879-1.86-1.698-2.87-2.45c-0.566-0.433-1.033-0.82-1.399-1.16c-0.312-0.275-0.602-0.573-0.87-0.89       c-0.191-0.219-0.338-0.474-0.431-0.75c-0.07-0.329-0.107-0.664-0.109-1c0-1.22,0.826-1.61,2.479-1.17       c1.064,0.383,2.101,0.841,3.101,1.37c1.355,0.811,2.91,1.23,4.49,1.21c1.699-0.27,2.779-2,3-1.79       c0.22,0.21-1.74,1.41-1.74,9.25c0.02,2.34,0.17,4.677,0.45,7c0.196,1.229,0.599,2.415,1.189,3.51       c0.568,1.031,1.341,1.936,2.271,2.66c1.065,0.801,2.284,1.376,3.58,1.69c0.932,0.275,1.898,0.413,2.869,0.41       c0.456-0.016,0.91-0.06,1.36-0.13V156c-0.536,0.105-1.084,0.142-1.63,0.11c-0.592-0.026-1.179-0.117-1.75-0.27       c-1.043-0.206-1.92-0.907-2.351-1.88c-0.419-1.118-0.616-2.307-0.579-3.5v-9.57L147.77,142.55z"></path>
          <path fill="#182D3D" d="M108,125.8c-1.085-0.289-2.226-0.289-3.311,0c-1.097,0.291-2.086,0.891-2.85,1.73       c-0.917,1.035-1.6,2.256-2,3.58c-0.549,1.797-0.806,3.671-0.76,5.55c-0.008,1.76,0.187,3.515,0.58,5.23       c0.362,1.602,0.973,3.137,1.81,4.55c0.805,1.354,1.848,2.55,3.08,3.53c1.29,1.017,2.779,1.752,4.37,2.16       c0.656,0.176,1.325,0.306,2,0.39c0.666,0.08,1.286,0.13,1.859,0.15c0.528,0.017,1.057-0.007,1.58-0.07       c0.386-0.042,0.766-0.129,1.131-0.26l-0.711-5.88c-0.741,0.206-1.511,0.293-2.279,0.26c-0.964-0.019-1.921-0.156-2.851-0.41       c-1.435-0.355-2.715-1.166-3.649-2.31c-0.898-1.088-1.43-2.432-1.521-3.84c0-0.273-0.02-0.537-0.06-0.79l12.08,3.23v-0.51       c0-0.48,0-0.923,0-1.33c0-4.167-0.767-7.526-2.3-10.08C112.867,128.291,110.635,126.534,108,125.8z M104.57,134.87       c0.065-0.391,0.152-0.778,0.261-1.16c0.128-0.487,0.349-0.946,0.649-1.35c0.272-0.353,0.641-0.621,1.061-0.77       c0.494-0.155,1.025-0.155,1.52,0c0.576,0.146,1.106,0.435,1.54,0.84c0.404,0.396,0.742,0.856,1,1.36       c0.276,0.526,0.479,1.088,0.601,1.67c0.088,0.416,0.151,0.836,0.189,1.26L104.57,134.87z"></path>
          <path fill="#182D3D" d="M93.22,147.22l0.21,0.07l4.84,1.3c-0.43-1.24-5.59-13.35-6.09-14.25c1.384-0.303,2.604-1.113,3.42-2.27       c0.892-1.509,1.306-3.251,1.19-5c0.134-3.098-0.917-6.13-2.94-8.48c-2.3-2.368-5.239-4.015-8.46-4.74L79,112.16       c-0.51-0.13-0.771,0.12-0.79,0.74v30.32l5.52,1.48v-11.29l0,0v-14.05c0.28,0,1.58,0.42,2,0.53c1.48,0.319,2.856,1.007,4,2       c0.937,0.957,1.43,2.263,1.36,3.6c0,1.573-0.45,2.573-1.35,3c-0.9,0.426-2.387,0.356-4.461-0.21H85.2       c-0.811-0.19-1.08,0.22-0.75,1.28l2,4.58c0.399,0.72,3.89,8.68,5.199,11.72C91.968,146.507,92.534,146.997,93.22,147.22z"></path>
				</g>
			</g>
      <g opacity="0.35">
				<path fill="#182D3D" d="M166.17,211.63c0.2,1.381,0.301,2.774,0.3,4.17c0,14-7.45,21.94-18.67,18.94      c-10.8-2.89-19.45-16.16-19.45-29.74s8.69-22.18,19.45-19.3c5.24,1.4,9.65,5,13,9.91l-5.29,5      c-1.799-2.819-4.549-4.902-7.75-5.87c-6.64-1.78-12.06,3.7-12.06,12.25c0,8.55,5.42,16.93,12.06,18.71      c7.7,2.06,10.59-4.12,11-7.61l-11-3v-8.43L166.17,211.63z"></path>
			</g>
      <g opacity="0.35">
				<path fill="#182D3D" d="M133.49,255.64l1.279-2.12c0.102,0.036,0.194,0.094,0.271,0.17c1.569,6.05,3,12.13,2.26,18      c-0.79,6.61-3.8,10.65-8.89,11.83c-4.891,1.14-9.49-1.11-13.58-5.79c0.354-0.793,0.635-1.616,0.84-2.46      c-0.16-0.473-0.492-0.869-0.93-1.11c-0.605,0.214-1.17,0.528-1.671,0.93c-4.55-5.31-5.479-16.52-1.64-22.61      c2.5-4,6-5.64,10.43-5C125.61,247.94,127.72,249.49,133.49,255.64z M134.82,255.09c-0.26,0.3-0.39,0.42-0.479,0.57      c-1.824,3.141-5.315,4.928-8.93,4.57c-1.62-0.12-3.28-0.54-4.91-0.74c-3.71-0.47-6.51,1.84-7.12,5.93      c-0.453,2.334,0.044,4.753,1.38,6.72c0.451,0.623,1.124,1.049,1.88,1.19c1.561,0.061,3.124,0.024,4.68-0.11      c4.237-0.175,8.14-2.354,10.511-5.87c0.15-0.152,0.326-0.277,0.52-0.37c-0.019,0.634-0.197,1.253-0.52,1.8      c-2.23,3.81-5.23,6.19-9.21,6.74l-4.091,0.57c2.668,1.04,5.409,1.882,8.2,2.52c6.07,1.39,9.5-1.32,10-7.92      C137.13,265.66,136.22,260.53,134.82,255.09z"></path>
        <path fill="#182D3D" d="M211.22,282.84c0.014-0.399,0.112-0.792,0.29-1.15c0.51-0.38,1.15-1,1.66-0.77      c0.68,0.494,1.143,1.232,1.29,2.06c0.08,4.73,0.21,9.49-0.07,14.09c-0.25,4-2.5,5.75-5.8,5.21      c-2.358-0.346-4.573-1.339-6.4-2.87c-0.84-0.7-1.58-1.52-1.13-2.7s1.25-0.68,2.15-0.1c1.356,0.943,2.832,1.7,4.39,2.25      c2,0.59,3.18-0.52,3.68-3.24c-1.64,1.34-3.279,2-5.279,1.11c-2.141-1-3.808-2.793-4.65-5c-1.85-4.37-1.28-9.76,1.25-11.89      S207.92,278.62,211.22,282.84z M203.54,287.1c0,3.34,1.62,6.06,4,6.63s3.899-1.39,3.91-4.49c0.01-3.1-1.681-6-4-6.62      C205.13,282,203.54,283.87,203.54,287.1L203.54,287.1z"></path>
        <path fill="#182D3D" d="M160.34,269.21c3.61-2.39,6.64-1.62,9,2.17s2.61,10,0.34,12.82c-2.27,2.82-5.29,2.28-9.479-2.12      c0,1.78,0.079,3.39,0,4.93c-0.005,0.737-0.274,1.447-0.761,2c-1,0.771-2.319-0.62-2.359-2.39c-0.051-2.7,0-5.39,0-8.08      c0-3.253,0-6.507,0-9.76c0-1.26,0-2.63,1.27-2.54C159.62,266.33,160.12,267.59,160.34,269.21z M168.07,277.69      c0-3.32-1.59-6-3.939-6.6c-2.351-0.6-4,1.27-4,4.33s1.8,6.21,4.09,6.78C166.51,282.77,168.07,280.89,168.07,277.69      L168.07,277.69z"></path>
        <path fill="#182D3D" d="M190.09,276.94c0.973-1.224,2.61-1.704,4.09-1.2c2.8,0.81,4.7,3.36,4.83,6.91c0.12,3.39,0,6.74,0,10.1      c0,1.26-0.521,1.94-1.521,1.7c-1.092-0.375-1.772-1.464-1.63-2.61c0-2.53,0-5.05,0-7.58c0-2.93-1-4.78-2.84-5.29      c-1.84-0.51-3.1,0.8-3.13,3.77c0,2.13,0,4.26,0,6.39c0.082,0.536,0.037,1.084-0.13,1.6c-0.43,0.55-1.09,1.26-1.61,1.08      c-0.718-0.506-1.206-1.275-1.359-2.14c-0.12-4.68-0.11-9.34,0-14c0.062-0.688,0.544-1.266,1.21-1.45c0.5,0,1.149,1,1.689,1.55      C189.881,276.138,190.016,276.532,190.09,276.94z"></path>
        <path fill="#182D3D" d="M150.71,263.84c1.27,0.81,2.55,1.57,3.79,2.47c0.843,0.534,1.211,1.575,0.89,2.52      c-0.37,1-1.1,0.76-1.92,0.21c-1.023-0.766-2.144-1.395-3.33-1.87c-0.51-0.17-1.06,0.58-1.6,0.92      c0.265,0.762,0.643,1.48,1.12,2.13c1.06,1,2.25,1.63,3.359,2.5c1.975,1.321,3.035,3.643,2.74,6c-0.2,2.21-1.47,3.45-3.53,3.44      c-2.359,0-4.49-1.35-6.51-3.4c-0.737-0.567-1.015-1.552-0.68-2.42c0.45-0.94,1.14-0.65,2-0.07c1.267,0.938,2.604,1.777,4,2.51      c0.517,0.36,1.227,0.233,1.587-0.284c0.146-0.209,0.218-0.462,0.203-0.716c0.072-0.978-0.442-1.905-1.311-2.36      c-1-0.7-1.95-1.31-2.91-2c-2.38-1.74-3.33-3.77-3-6.34c0.068-1.866,1.636-3.323,3.502-3.254      c0.242,0.009,0.483,0.044,0.719,0.104c0.27,0,0.529,0.14,0.8,0.21L150.71,263.84z"></path>
        <path fill="#182D3D" d="M175.71,272.42c1.066-0.354,2.177-0.562,3.3-0.62c0.729,0.33,1.289,0.945,1.55,1.7      c0.374,0.708,0.104,1.585-0.604,1.959c-0.124,0.066-0.257,0.113-0.396,0.141c-3.109,0.72-3.819,1.86-3.84,6c0,1.57,0,3.15,0,4.7      c0,1.32-0.53,2.21-1.69,1.84c-1.159-0.37-1.47-1.44-1.47-2.73c0-4.09,0-8.19,0-12.28c0-1.22-0.17-2.67,1.09-2.77      C174.91,270.26,175.48,271.3,175.71,272.42z"></path>
        <path fill="#182D3D" d="M185.11,282.15c0,2.18,0,4.36,0,6.55c0,1.33-0.399,2.22-1.56,2c-1-0.16-1.6-1.29-1.61-2.95      c0-4.31,0-8.62,0-12.93c0-1.36,0.4-2.23,1.59-1.9c1.19,0.33,1.551,1.39,1.57,2.65c0,2.19,0,4.37,0,6.55l0,0L185.11,282.15z"></path>
        <path fill="#182D3D" d="M183.27,270.22c-0.521-0.764-0.944-1.59-1.26-2.46c-0.246-0.645,0.078-1.367,0.724-1.613      c0.248-0.095,0.521-0.107,0.776-0.037c0.984,0.312,1.615,1.272,1.51,2.3c-0.217,0.726-0.597,1.393-1.109,1.95L183.27,270.22z"></path>
			</g>
      <g>
				<path fill="#FFFFFF" d="M383.28,417.25c-2.13,3.64-5,5.45-8.66,5.43c-1.569,0-3.18-0.319-4.76-0.42      c-3.6-0.22-6.31,2.4-6.899,6.71c-0.454,2.394,0.024,4.869,1.34,6.92c0.422,0.609,1.084,1.01,1.819,1.101      c1.519-0.053,3.032-0.206,4.53-0.46c4.17-0.54,7.57-2.83,10.19-6.9c0.146-0.167,0.317-0.31,0.51-0.42      c-0.018,0.67-0.189,1.326-0.5,1.92c-2.16,4.15-5.07,6.851-8.94,7.72l-4,0.9c2.608,0.884,5.283,1.552,8,2      c5.891,1,9.221-2.07,9.71-9c0.381-5.27-0.51-10.57-1.859-16.15C383.5,417,383.38,417.09,383.28,417.25z"></path>
        <path fill="#FFFFFF" d="M390.75,411l-36.48-19.67c-1.43-0.77-2.87,0.12-3.22,2l-8.771,47.64c-0.349,1.85,0.438,3.729,2,4.78      l36.48,19.67c1.43,0.771,2.87-0.12,3.22-2l8.771-47.64C393.098,413.93,392.312,412.051,390.75,411z M355.86,429.09      c0,3.23,0,6.46,0,9.68c0,2-0.55,3.32-2.14,3.171c-1.351-0.131-2.2-1.75-2.21-4.2c0-6.38,0-12.74,0-19.12c0-2,0.54-3.34,2.189-3      c1.65,0.34,2.12,1.899,2.15,3.76c0,3.24,0,6.46,0,9.68l0,0L355.86,429.09z M353.77,411.72c-1.26-0.27-2.28-1.87-2.28-3.569      c0-1.7,1-2.87,2.28-2.601c1.28,0.271,2.28,1.87,2.28,3.57s-1.05,2.88-2.28,2.59V411.72z M386.14,433.8      c-0.771,7-3.69,11.4-8.62,13c-4.74,1.55-9.2-0.47-13.17-5.06c0.345-0.854,0.619-1.732,0.82-2.63      c-0.146-0.47-0.47-0.864-0.9-1.101c-0.597,0.275-1.144,0.647-1.62,1.101c-4.41-5.21-5.31-16.86-1.59-23.5      c2.42-4.32,5.84-6.33,10.12-6c3.64,0.25,5.68,1.71,11.28,7.71l1.239-2.301c0.099,0.031,0.188,0.087,0.261,0.16      c1.51,6.181,2.869,12.42,2.18,18.61V433.8z"></path>
			</g>
      <g>
				<path fill="#182D3D" d="M575.11,384.109c-0.5-0.42-1.12-0.92-1.85-1.479c-0.73-0.56-1.57-1.2-2.51-1.899      c-1.881-1.391-4.171-3-6.79-4.74l-2-1.301c-1.08-4.848-2.638-9.578-4.65-14.119c0.366-0.561,0.7-1.107,1-1.641      c1.35-2.16,2.45-4.15,3.32-5.83c0.43-0.85,0.819-1.6,1.13-2.3c0.31-0.7,0.58-1.27,0.779-1.76c0.41-1,0.601-1.54,0.601-1.54      l-12.83-17.62c0,0-0.61,0-1.71,0c-0.55,0-1.22,0-2,0.11c-0.78,0.109-1.65,0.13-2.63,0.24c-1.94,0.209-4.261,0.529-6.82,1      l-2,0.39c-3.772-3.38-7.857-6.394-12.2-9c-0.193-0.773-0.39-1.53-0.59-2.27c-0.79-3-1.6-5.59-2.31-7.77      c-0.36-1.09-0.681-2.06-1-2.92c-0.32-0.86-0.58-1.58-0.811-2.18c-0.46-1.19-0.75-1.84-0.75-1.84l-18.899-5.82l-11.79,7.61      c0,0-0.33,0.46-0.87,1.34c-0.28,0.44-0.601,1-1,1.63c-0.4,0.63-0.771,1.4-1.21,2.24l-0.49,1c-1.427,0.227-2.823,0.517-4.19,0.87      l-1.67-1.51c-1.22-1-2.38-2-3.479-2.84c-1.101-0.84-2.09-1.66-3-2.36l-1.32-1l-1.189-0.86c-0.73-0.54-1.381-1-1.9-1.34      c-1-0.72-1.63-1.08-1.63-1.08l-11.85,7.6l-13.9,9.39c0,0,0.15,0.66,0.5,1.85c0.17,0.601,0.38,1.33,0.66,2.181l0.43,1.37      l0.521,1.529c0.359,1.09,0.79,2.271,1.27,3.551c0.479,1.279,1,2.66,1.59,4.119c0.28,0.701,0.57,1.41,0.88,2.141      c-0.97,1.339-1.857,2.734-2.66,4.18h-0.409l-1.381,0.131l-1.22,0.149c-0.75,0.09-1.399,0.19-1.92,0.271      c-1,0.17-1.6,0.299-1.6,0.299L425,349.92L424.26,369c0,0,0.529,0.471,1.54,1.26c0.5,0.4,1.12,0.891,1.85,1.44l1.18,0.89l1.33,1      c0.94,0.69,2,1.41,3.12,2.19s2.36,1.6,3.681,2.45l1.939,1.229c1.105,5.061,2.73,9.993,4.851,14.72      c-0.354,0.527-0.688,1.047-1,1.561c-0.69,1.06-1.311,2.08-1.87,3.05c-0.561,0.97-1.08,1.85-1.521,2.69l-0.63,1.18l-0.53,1.07      c-0.33,0.659-0.6,1.25-0.81,1.729c-0.43,1-0.63,1.5-0.63,1.5l12.83,17.62c0,0,0.6,0,1.68-0.06c0.54,0,1.2-0.07,2-0.15l1.23-0.11      l1.359-0.17c1-0.109,2-0.27,3.141-0.46c1.14-0.189,2.35-0.39,3.619-0.649l1.87-0.4c3.919,3.546,8.18,6.695,12.721,9.4      c0.18,0.739,0.359,1.47,0.54,2.17c0.38,1.479,0.76,2.87,1.14,4.17c0.37,1.29,0.71,2.479,1.07,3.569l0.489,1.54l0.471,1.37      c0.279,0.851,0.55,1.58,0.77,2.17c0.44,1.181,0.71,1.83,0.71,1.83l18.9,5.82L513,447c0,0,0.319-0.46,0.829-1.35      c0.261-0.44,0.58-1,0.921-1.65l0.56-1.05l0.59-1.2c0.15-0.29,0.3-0.6,0.45-0.92c1.4-0.22,2.77-0.49,4.11-0.83l1.88,1.57      c2.47,2,4.699,3.76,6.58,5.149c0.939,0.69,1.779,1.311,2.54,1.83c0.76,0.521,1.399,1,1.93,1.32c1.06,0.71,1.66,1.06,1.66,1.06      l11.51-7.779l0.27,0.17l13.9-9.391c0,0-0.14-0.66-0.47-1.87c-0.16-0.6-0.37-1.34-0.63-2.199c-0.261-0.86-0.57-1.841-0.92-2.931      c-0.721-2.17-1.641-4.779-2.78-7.71c-0.287-0.727-0.587-1.473-0.9-2.239c0.879-1.229,1.69-2.504,2.431-3.82h0.479      c1-0.11,1.84-0.21,2.6-0.33c0.761-0.12,1.4-0.22,1.92-0.32c1-0.189,1.601-0.34,1.601-0.34l11.79-7.61l0.75-19.1      C576.6,385.46,576.11,384.93,575.11,384.109z"></path>
        <path fill="#345470" d="M563.32,391.721c-0.5-0.421-1.12-0.921-1.85-1.48c-0.73-0.561-1.57-1.211-2.51-1.9      c-1.881-1.39-4.171-3-6.79-4.74l-2-1.3c-1.08-4.849-2.638-9.578-4.65-14.12c0.366-0.56,0.7-1.106,1-1.64      c1.35-2.16,2.45-4.149,3.32-5.83c0.43-0.851,0.819-1.601,1.13-2.3c0.31-0.7,0.58-1.27,0.78-1.76c0.409-1,0.6-1.541,0.6-1.541      l-12.83-17.619c0,0-0.61,0-1.71,0c-0.55,0-1.22,0-2,0.109c-0.78,0.11-1.65,0.131-2.63,0.24c-1.94,0.21-4.26,0.53-6.82,1      l-2,0.391c-3.772-3.381-7.857-6.394-12.2-9c-0.193-0.773-0.39-1.527-0.59-2.26c-0.79-3-1.6-5.591-2.31-7.771      c-0.36-1.09-0.681-2.06-1-2.92c-0.32-0.86-0.58-1.58-0.811-2.18c-0.46-1.19-0.75-1.84-0.75-1.84l-18.899-5.82      c0,0-0.33,0.46-0.87,1.34c-0.28,0.44-0.601,1-1,1.63c-0.4,0.63-0.771,1.4-1.21,2.24c-0.86,1.69-1.851,3.76-2.86,6.17      c-0.246,0.6-0.496,1.217-0.75,1.85c-4.336-0.119-8.668,0.365-12.87,1.439l-1.79-1.52c-1.22-1.026-2.38-1.973-3.479-2.84      c-1.09-0.87-2.09-1.66-3-2.36l-1.32-1l-1.189-0.86c-0.73-0.54-1.381-1-1.9-1.34c-1-0.72-1.63-1.08-1.63-1.08l-13.9,9.39      c0,0,0.15,0.66,0.5,1.85c0.17,0.601,0.38,1.33,0.66,2.181l0.43,1.37l0.521,1.529c0.359,1.09,0.79,2.271,1.27,3.551      c0.48,1.279,1,2.66,1.59,4.119c0.28,0.701,0.57,1.41,0.881,2.141c-2.522,3.49-4.505,7.34-5.881,11.42h-2      c-1.35,0-2.609,0.07-3.779,0.15s-2.24,0.129-3.21,0.229l-1.38,0.13l-1.221,0.15c-0.75,0.09-1.399,0.189-1.92,0.27      c-1,0.17-1.6,0.301-1.6,0.301L424.26,369c0,0,0.529,0.471,1.54,1.26c0.5,0.4,1.12,0.891,1.85,1.44l1.18,0.89l1.33,1      c0.94,0.69,2,1.41,3.12,2.19s2.36,1.6,3.681,2.45l1.939,1.229c1.105,5.061,2.73,9.993,4.851,14.72      c-0.354,0.527-0.688,1.047-1,1.561c-0.69,1.06-1.311,2.08-1.87,3.05c-0.561,0.97-1.08,1.85-1.521,2.69l-0.63,1.18l-0.53,1.07      c-0.33,0.659-0.6,1.25-0.81,1.729c-0.43,1-0.63,1.5-0.63,1.5l12.83,17.62c0,0,0.6,0,1.68-0.06c0.54,0,1.2-0.07,2-0.15l1.23-0.11      l1.359-0.17c1-0.109,2-0.27,3.141-0.46c1.14-0.189,2.35-0.39,3.619-0.649l1.87-0.4c3.919,3.546,8.18,6.695,12.721,9.4      c0.18,0.739,0.359,1.47,0.54,2.17c0.38,1.479,0.76,2.87,1.14,4.17c0.37,1.29,0.71,2.479,1.07,3.569l0.489,1.54l0.471,1.37      c0.279,0.851,0.55,1.58,0.77,2.17c0.44,1.181,0.71,1.82,0.71,1.82l18.9,5.82c0,0,0.319-0.46,0.83-1.351      c0.26-0.439,0.579-1,0.92-1.649l0.56-1.05l0.59-1.2c0.431-0.84,0.86-1.8,1.32-2.83s1-2.16,1.44-3.37      c0.229-0.58,0.47-1.18,0.699-1.79c4.316,0.136,8.631-0.325,12.82-1.37l1.88,1.57c2.47,2,4.7,3.76,6.58,5.149      c0.94,0.69,1.78,1.311,2.54,1.83c0.76,0.521,1.4,1,1.93,1.32c1.061,0.71,1.66,1.06,1.66,1.06l13.9-9.39      c0,0-0.141-0.66-0.47-1.87c-0.16-0.6-0.37-1.34-0.631-2.2c-0.26-0.859-0.569-1.84-0.92-2.93c-0.72-2.17-1.64-4.79-2.779-7.71      c-0.287-0.727-0.587-1.474-0.9-2.24c2.401-3.375,4.301-7.08,5.64-11h2.061c2.7-0.09,5.06-0.28,7-0.479      c1-0.11,1.84-0.21,2.6-0.33s1.4-0.221,1.92-0.32c1-0.19,1.601-0.34,1.601-0.34l0.75-19.101      C564.84,393.02,564.32,392.54,563.32,391.721z"></path>
			</g>
      <g>
				<polygon fill="#FFFFFF" points="144.44,402.16 146.09,395.561 140.51,394.23 138.93,400.85 119.67,396.27 119.67,402.52       160.85,412.31 160.85,406.06     "></polygon>
        <polygon fill="#FFFFFF" points="150.45,378.109 144.7,376.74 143.46,381.939 149.15,383.29     "></polygon>
        <polygon fill="#FFFFFF" points="148.5,385.891 142.83,384.54 141.13,391.63 146.74,392.96     "></polygon>
        <polygon fill="#FFFFFF" points="134.95,444.4 131.98,444.14 126.45,406.13 119.67,404.52 125.22,451.05 154.45,458       160.85,414.3 129.48,406.85     "></polygon>
			</g>
      <g>
				<path fill="#FFFFFF" d="M521.61,408.83c-1.089-3.127-3.556-5.58-6.689-6.65l-9.92-14.1c0,0,13.39-1.7,11.539-27.42      c0,0-5.31-1.15-7.39,2.14c0,0-9.77-3.659-12.62-3.6c0,0-4-7.45-6.54-8c0,0-0.689,11.79,0,15.93c0,0-28.62,4-36,19.761l7.62,2.31      c0,0-0.2-10.46,7.69-9.11l9.609,10.91l5.311,1.609c0,0-2.54-3.539-4.851-4.239c0,0-0.71-2.71-1.229-5.36      c13.753,5.33,26.268,13.424,36.77,23.78L521.61,408.83z"></path>
        <path fill="#FFFFFF" d="M466.31,374.23c-0.06-0.11-5.5-10.771-2.57-15c1.41-2,4.67-2.23,9.66-0.631      c0.771,3.541,9.2,4.871,9.2,4.871s-1.49-4.631-4.8-6.281c-0.761-0.379-3.32-1.609-4.181-0.229v-0.149      c-5.83-1.92-9.689-1.57-11.479,1c-3.47,5,2.34,16.379,2.59,16.859L466.31,374.23z"></path>
			</g>
      <g>
				<path fill="#FFFFFF" d="M328.18,234.43l25.21-9.19c2.35-0.88,5.38,0,7.729,2.18l24.94,23.36c2.362,2.286,3.725,5.414,3.79,8.7      V292c0,3.06-1.38,5.3-3.73,6.18l-24.909,9.27c-2.351,0.88-5.23,0-7.58-2.14l-25.471-23.49c-2.35-2.18-4.31-5.77-4.31-8.83      v-32.53C323.849,237.729,325.591,235.302,328.18,234.43z"></path>
        <path fill="#345470" d="M362.449,280.13l0.21,0.07l4.851,1.34c-0.431-1.13-5.601-12.17-6.101-13      c1.338-0.198,2.555-0.881,3.42-1.92c0.879-1.296,1.298-2.849,1.19-4.41c0.101-2.861-0.96-5.642-2.94-7.71      c-2.377-2.226-5.304-3.779-8.479-4.5c-0.88-0.24-4.19-1.22-6.18-1.77c-0.511-0.14-0.561,0.08-0.561,0.63V276l5,1.53V267h0.08      l-0.08-4.55v-7.64c0,0.05,1.62,0.44,2,0.55c1.468,0.356,2.835,1.04,4,2c0.919,0.837,1.42,2.038,1.37,3.28      c0,1.41-0.44,2.29-1.34,2.63c-0.9,0.34-2.39,0.22-4.47-0.35h-0.08c-0.811-0.2-1.08,0.16-0.75,1.12l2,4.18      c0.399,0.66,3.899,7.92,5.199,10.69C361.162,279.518,361.758,279.956,362.449,280.13z"></path>
			</g>
		</g>
	</g>
</g>
</svg>