<svg xmlns="http://www.w3.org/2000/svg" xmlns:xlink="http://www.w3.org/1999/xlink" version="1.1" id="back" x="0px" y="0px" width="235px" height="auto" viewBox="0 55.5 640 539" enable-background="new 0 55.5 640 539" xml:space="preserve" class="svg larger replaced-svg">
<title>restlet_illustration_tho</title>
    <g>
	<polygon fill="#182D3D" points="340.77,301.08 340.77,289.13 336.78,289.13 336.78,293.08 333.13,293.08 333.13,289.13    329.13,289.13 329.13,301.08 333.13,301.08 333.13,297.08 336.78,297.08 336.78,301.08  "></polygon>
      <polygon fill="#182D3D" points="350.01,301.08 350.01,293.1 353.53,293.1 353.53,289.13 342.51,289.13 342.51,293.1 346.02,293.1    346.02,301.08  "></polygon>
      <polygon fill="#182D3D" points="368.73,301.08 368.73,289.13 364.56,289.13 362,293.33 359.44,289.13 355.28,289.13 355.28,301.08    359.19,301.08 359.19,295.16 361.94,299.4 362,299.4 364.75,295.16 364.75,301.08  "></polygon>
      <polygon fill="#182D3D" points="370.71,289.13 370.71,301.08 380.32,301.08 380.32,297.13 374.71,297.13 374.71,289.13  "></polygon>
      <path fill="#182D3D" d="M176.14,267.09l2.32,2.32c0.567,0.588,1.504,0.604,2.093,0.037c0.013-0.012,0.024-0.024,0.037-0.037   l21.62-21.62c0.588-0.576,0.599-1.519,0.022-2.107c-0.007-0.008-0.015-0.016-0.022-0.023L180.6,224   c-0.575-0.588-1.519-0.599-2.106-0.023c-0.008,0.007-0.016,0.015-0.023,0.023l-2.32,2.32c-0.588,0.576-0.598,1.519-0.022,2.107   c0.008,0.007,0.015,0.015,0.022,0.023l18.24,18.24L176.14,265C175.57,265.58,175.57,266.51,176.14,267.09z"></path>
      <path fill="#182D3D" d="M144.31,226.35L142,224c-0.576-0.588-1.52-0.599-2.107-0.023c-0.008,0.007-0.016,0.015-0.022,0.023   l-21.62,21.62c-0.589,0.575-0.599,1.519-0.023,2.107c0.008,0.008,0.016,0.015,0.023,0.023l21.62,21.62   c0.567,0.588,1.504,0.604,2.093,0.037c0.013-0.012,0.024-0.024,0.037-0.037l2.319-2.32c0.589-0.567,0.605-1.504,0.038-2.093   c-0.013-0.012-0.025-0.025-0.038-0.037l-18.239-18.24l18.239-18.24C144.893,227.859,144.889,226.925,144.31,226.35z"></path>
      <path fill="#182D3D" d="M167.84,214.94c-0.774-0.213-1.578,0.23-1.811,1l-17.31,59.9c-0.233,0.79,0.213,1.62,1,1.86l2.88,0.79   c0.775,0.213,1.578-0.231,1.811-1l17.31-59.9c0.228-0.789-0.217-1.615-1-1.86L167.84,214.94z"></path>
      <path fill="#182D3D" d="M199.64,162.59c-16.479,4.6,10,14.12,31,5.13c-2.045-0.791-4.019-1.754-5.899-2.88   c-9.36,1.77-13.7,1.91-22.19,0.94C195.54,165,199.64,162.59,199.64,162.59z"></path>
      <path fill="#182D3D" d="M228.13,153.61c-12.4,2.39-19.561,2.31-28.63,1.37c-7-0.73-2.42-4.13-2.42-4.13   c-18.15,6,10.1,12.86,35.47,5.44C230.908,155.709,229.405,154.797,228.13,153.61z"></path>
      <path fill="#182D3D" d="M218.69,131L218.69,131c5.17,6-1.359,11.31-1.359,11.31s13.13-6.78,7.1-15.26   c-5.63-7.91-9.95-11.84,13.43-25.4C237.85,101.6,201.17,110.76,218.69,131z"></path>
      <path fill="#182D3D" d="M179.56,179.39c42.771,6.94,78-3.12,66.88-8.13c0,0,3,2.5-3.34,4.43c-12.109,3.67-50.399,4.78-61,0.15   c-3.82-1.66,3.351-4,5.601-4.46c1.21-0.298,2.453-0.439,3.699-0.42C187.11,168,163.87,176.85,179.56,179.39z"></path>
      <path fill="#182D3D" d="M231.73,145.22c1.56-1.004,3.198-1.881,4.9-2.62c0,0-8.09,1.45-16.15,2.13c-9.859,0.83-20.45,1-25.76,0.28   c-12.58-1.68,6.9-6.31,6.9-6.31s-7.561-0.51-16.87,4C173.74,148,212,150.42,231.73,145.22z"></path>
      <path fill="#182D3D" d="M236.55,158.23c-0.099,0.201-0.234,0.38-0.4,0.53c26.851-7.06,17-24.88,4.141-20.37   c-0.694,0.259-1.295,0.723-1.721,1.33c0.75-0.267,1.519-0.474,2.301-0.62C247.36,137.74,256.66,147.78,236.55,158.23z"></path>
      <path fill="#182D3D" d="M201.25,113.76c-5,7.51,2.45,15.57,12.609,24.74c-4-9-17.39-16.79,0-30.53   c21.7-17.13,10.561-28.27,10.561-28.27C228.92,97.4,208.59,102.74,201.25,113.76z"></path>
      <path fill="#182D3D" d="M237.27,182.93c-16.47,3.1-36.79,2.74-48.84,0.75c0,0,2.47,2,15.15,2.86c19.3,1.24,48.939-0.69,49.64-9.82   C253.22,176.72,251.88,180.18,237.27,182.93z"></path>
      <path fill="#182D3D" d="M411.39,292.82h43.16c7.141-0.027,12.922-5.809,12.95-12.95v-43.15c-0.028-7.141-5.81-12.922-12.95-12.95   h-43.16c-7.141,0.027-12.923,5.809-12.95,12.95v43.16C398.473,287.017,404.253,292.792,411.39,292.82z M409.949,238.2   c0.015-0.379,0.176-0.738,0.45-1c0.241-0.299,0.62-0.45,1-0.4c23.438,0.821,42.249,19.632,43.07,43.07   c0.042,0.379-0.107,0.754-0.4,1c-0.262,0.274-0.621,0.436-1,0.45h-5.75c-0.77-0.015-1.398-0.621-1.439-1.39   c-0.756-18.743-15.777-33.764-34.521-34.52c-0.769-0.042-1.375-0.67-1.39-1.44v-5.77H409.949z M409.949,255.46   c0.015-0.379,0.176-0.738,0.45-1c0.283-0.287,0.679-0.433,1.08-0.4c13.91,0.737,25.022,11.85,25.76,25.76   c0.033,0.402-0.113,0.797-0.399,1.08c-0.263,0.274-0.621,0.436-1,0.45H430c-0.748-0.015-1.358-0.603-1.4-1.35   c-0.708-9.251-8.06-16.602-17.311-17.31c-0.762-0.042-1.356-0.676-1.35-1.44v-5.75L409.949,255.46z M415.699,269.8   c3.176,0,5.75,2.575,5.75,5.75c0,3.176-2.574,5.75-5.75,5.75s-5.75-2.574-5.75-5.75c-0.005-3.17,2.561-5.744,5.73-5.75   C415.687,269.8,415.693,269.8,415.699,269.8L415.699,269.8z"></path>
      <path fill="#182D3D" d="M357.56,140.59l-0.36,2.79l-1.6,0.13v2.3h1.4v4.25c0,2.43,1,4.05,3.609,4.05   c0.789-0.004,1.571-0.133,2.32-0.38l-0.49-2.26c-0.318,0.127-0.657,0.198-1,0.21c-0.82,0-1.35-0.49-1.35-1.67v-4.2h2.51v-2.43   h-2.51v-2.79h-2.58H357.56z"></path>
      <path fill="#182D3D" d="M323.5,153.85l1.289-2.81c0.32-0.72,0.61-1.41,1-2.26h0.08c0.36,0.84,0.681,1.54,1,2.26l1.351,2.81h3.46   l-3.8-6.93l3.569-6.84h-3.319l-1.101,2.6c-0.27,0.63-0.55,1.35-0.87,2.22h-0.08c-0.399-0.87-0.699-1.58-1-2.22l-1.18-2.6h-3.479   l3.59,6.69l-3.8,7.07h3.319L323.5,153.85z"></path>
      <path fill="#182D3D" d="M345,150.94c-0.096,1.654,1.169,3.072,2.822,3.167c0.093,0.005,0.185,0.006,0.277,0.003   c1.15-0.045,2.242-0.52,3.06-1.33h0.061l0.229,1.08H354v-6c0-3.21-1.48-4.73-4.16-4.73c-1.591,0.037-3.142,0.511-4.48,1.37l1.101,2   c0.824-0.576,1.787-0.921,2.79-1c0.799-0.106,1.533,0.456,1.639,1.255c0.012,0.088,0.016,0.176,0.011,0.265   C346.71,147.54,345,148.74,345,150.94z M350.89,148.94v1.84c-0.419,0.535-1.052,0.859-1.73,0.89   c-0.541,0.111-1.069-0.238-1.18-0.779c-0.015-0.073-0.021-0.146-0.02-0.221c-0.051-0.76,0.67-1.4,2.89-1.67L350.89,148.94z"></path>
      <path fill="#182D3D" d="M377.76,169.06c-1.195,1.707-2.533,3.31-4,4.79c-14.195,14.191-37.205,14.191-51.4,0   c-1.383-1.383-2.654-2.875-3.8-4.46l-4.87,2.86c4.522,6.441,10.758,11.488,18,14.57c15.735,6.648,33.931,3.088,46-9   c1.849-1.841,3.522-3.849,5-6L377.76,169.06z"></path>
      <path fill="#182D3D" d="M386.69,164.48c9.012-21.374-1.009-46.006-22.383-55.018c-4.11-1.733-8.471-2.801-12.917-3.162v5.7   c20.004,1.883,34.693,19.626,32.81,39.63c-0.378,4.018-1.422,7.945-3.09,11.62L386,166C386.25,165.5,386.48,165,386.69,164.48z"></path>
      <path fill="#182D3D" d="M367.81,139.05h-3.1v14.8h3.1v-7.07c0.473-0.597,1.18-0.961,1.94-1c0.89,0,1.289,0.46,1.289,2v6.1h3.101   v-6.5c0-2.62-1-4.22-3.25-4.22c-1.221,0.052-2.375,0.567-3.23,1.44l0.15-1.88v-3.63V139.05z"></path>
      <path fill="#182D3D" d="M333.51,140.09v13.77h3.13v-4.67h1.899c2.91,0,5.391-1.44,5.391-4.67s-2.391-4.44-5.391-4.44h-5   L333.51,140.09z M340.88,144.53c0,1.439-0.82,2.2-2.53,2.2h-1.71v-4.16h1.71c1.65-0.01,2.53,0.51,2.53,1.95V144.53z"></path>
      <path fill="#182D3D" d="M344.64,106.3c-23.12,1.878-40.34,22.143-38.462,45.263c0.361,4.446,1.429,8.807,3.162,12.917   c0.279,0.667,0.573,1.313,0.88,1.94l4.859-2.86c-8.478-18.21-0.588-39.844,17.622-48.322c3.766-1.753,7.803-2.848,11.938-3.238   V106.3z"></path>
      <path fill="#182D3D" d="M504.65,178.82c1,0.29,1.92,0.62,2.9,0.85c1.844,0.412,3.756,0.412,5.6,0c0.083,0.005,0.167,0.005,0.25,0   c2.16-0.5,4.32-1,6.46-1.52c1.43-0.37,2.83-0.85,4.23-1.32c1.199-0.41,2.38-0.86,3.55-1.34c1.758-0.721,3.434-1.626,5-2.7   c0.082-0.042,0.162-0.089,0.24-0.14c0.64-0.48,1.3-0.95,1.92-1.46c1.566-1.225,2.893-2.731,3.909-4.44c1.65-3,2.2-6,0.44-9.16   l-0.66-0.68c-0.815-0.57-1.768-0.916-2.76-1c-0.68-0.09-1.36-0.15-2-0.2c-2.062-0.119-4.129-0.119-6.19,0   c-1.27,0.07-2.55,0.18-3.819,0.27c-0.66,0.06-1.33,0.1-2,0.18c-2.54,0.3-5.08,0.56-7.61,0.92c-4.213,0.606-8.403,1.343-12.57,2.21   c-1.119,0.23-2.239,0.49-3.369,0.73L498,160c-6.631,1.47-13.181,3.23-19.631,5.35c-5.094,1.658-10.077,3.639-14.92,5.93   c-3.882,1.847-7.64,3.944-11.25,6.28c-2.073,1.321-4.076,2.75-6,4.28l-1.3,1.16c0.215-1.178,0.259-2.38,0.13-3.57   c-0.069-1.176-0.273-2.341-0.609-3.47v0.14c-0.405,2.075-0.963,4.118-1.67,6.11c-0.608,1.744-1.453,3.396-2.511,4.91   c-0.27,0.37-0.56,0.72-0.859,1.11c-1.69-1.3-2.53-3.13-3.431-4.93c-0.018,0.316-0.018,0.634,0,0.95   c0.09,1.624,0.497,3.214,1.2,4.68c-2.17-1.68-4.71-2.07-7.24-2.5c0.068,0.062,0.146,0.113,0.23,0.15   c0.86,0.44,1.729,0.85,2.57,1.32c1.254,0.668,2.385,1.547,3.34,2.6c0.229,0.27,0.43,0.56,0.66,0.86l-0.25,0.13   c-4.471,2.13-9,4.229-13.41,6.4c-4.41,2.17-8.71,4.36-13.07,6.54l-1.64,0.81l-0.12,0.12c0.902,0.526,2.018,0.526,2.92,0   c0.689-0.36,1.38-0.73,2.08-1.07c5.899-2.89,11.79-5.83,17.72-8.66c4.65-2.22,9.36-4.34,14.061-6.46   c6.533-2.933,13.123-5.73,19.77-8.39c6.4-2.57,12.84-5.05,19.37-7.3c3.93-1.35,7.899-2.61,11.85-3.91   c0.761-0.25,1.521-0.48,2.28-0.71h0.16c2.34-0.66,4.66-1.34,7-2c3.45-0.93,6.92-1.78,10.43-2.48c1.82-0.36,3.66-0.68,5.49-1h0.22   c3-0.49,6.09-0.85,9.17-1H531c-1.48,0.24-3,0.41-4.41,0.64c-1.67,0.26-3.32,0.58-5,0.88h-0.08c-2.73,0.6-5.46,1.19-8.19,1.82   c-1.359,0.31-2.71,0.69-4.06,1l-0.681,0.17c-2,0.57-4,1.13-6,1.71c-1.439,0.42-2.869,0.87-4.3,1.31c-2.29,0.74-4.59,1.46-6.87,2.22   c-7,2.33-13.819,4.88-20.63,7.58c-10.593,4.2-21.047,8.723-31.359,13.57l-1.551,0.74c0.521,1.88-0.06,3.64-0.489,5.41   c1.325-1.442,2.042-3.342,2-5.3l0.239,0.25c0.79,0.79,1.561,1.61,2.391,2.37c1.522,1.417,3.27,2.573,5.17,3.42   c2.802,1.298,5.988,1.498,8.93,0.56l0.271-0.1c-2.511,0.17-4.25-1.15-5.75-2.92c2.306,0.96,4.749,1.548,7.239,1.74   c2.502,0.038,4.991-0.368,7.351-1.2c-5.272,0.071-10.2-2.612-13-7.08c0.439,0.3,0.82,0.57,1.21,0.82s0.8,0.5,1.22,0.71   c4.146,2.119,8.744,3.2,13.4,3.15c3.62-0.083,7.208-0.696,10.649-1.82c3.947-1.252,7.792-2.806,11.5-4.65l0.23-0.14   c-1.526-0.53-2.946-1.329-4.19-2.36c4,1.7,8,1.44,12,0.17c-2.082-0.452-4.042-1.346-5.75-2.62h0.08l0.49,0.19   c2.824,1.182,5.961,1.396,8.92,0.61c2.447-0.65,4.812-1.576,7.05-2.76c0.37-0.2,0.73-0.43,1.15-0.67   c-2.079-0.581-4.029-1.547-5.75-2.85v-0.07L504.65,178.82z"></path>
      <path fill="#182D3D" d="M252.15,220.18c-2.06,0.4-3.34,1.19-3.6,3.42c-0.38,3.23-1.76,6.32-1.44,9.66   c0.25,2.59,0.54,5.18,0.771,7.771c0.479,5.5,0.88,11,1.45,16.49c0.137,1.186,0.585,2.314,1.3,3.27c3.649,4.72,7.39,9.35,11.1,14   L171.8,314l37.56,61.34l-37.56,31.83L209.38,425v66.76L314.199,538L417,493.23v-116.42l0,0l45-8.951L433.23,355.65l27.93-36.36   l-56,24.42l-21.6-9.17l2.52-28.23H323.38l2,22.299l-12.7,2.091l-0.45-0.2l0,0l-35.109-57.33c13.72-5.333,27.443-10.65,41.169-15.95   c1.103-0.329,1.894-1.295,2-2.44c0.41-3.56,0.75-7.13,1.141-10.7c0.42-3.92,0.91-7.84,1.27-11.77c0.19-2.07,0.7-4.11-0.21-6.23   c-1.149-2.67-2-5.46-2.939-8.21c-0.319-1.091-1.177-1.941-2.271-2.25c-5.49-1.79-11-3.64-16.449-5.39   c-0.856-0.197-1.743-0.224-2.61-0.08c-0.86,0.08-1.5,0.15-2-0.85c-0.357-0.724-0.903-1.339-1.58-1.78   c-1.571-0.979-3.466-1.295-5.27-0.88c-6,1-12,1.84-18,2.81c-0.891,0.14-2.051,0-2.431,1.27c-2,1.68-1.199,3.8-0.699,5.81   c-0.289,0.133-0.587,0.247-0.891,0.34C262.3,218,257.24,219.2,252.15,220.18z M314.53,234.09l-7.62,1.91l7.511-2.25L314.53,234.09z    M286.76,231.88c-1.767,2.428-2.661,5.38-2.54,8.38c0,1.05-0.27,1.57-1.32,1.73c-0.787,0.165-1.564,0.372-2.33,0.62   c-1-4,2.221-10.87,6.46-13.76c5-3.37,13.86-3.38,18.78,0.12c-1.41,1.25-2.17,3.07-4.3,3.8l0.64-1.63   c-3.841-4.075-10.259-4.264-14.334-0.423C287.435,231.077,287.081,231.466,286.76,231.88z M292.6,211.31l-19.6,4.3   c-0.851-1.57-0.73-1.87,0.79-2.15c5.17-1,10.33-1.95,15.5-2.88C290.31,210.4,291.4,210,292.6,211.31z M268.11,213.16l0.87-2.4   c2.261-0.46,4.5-1,6.78-1.37c3.14-0.52,6.29-0.93,9.48-1.14l-12.341,2.27c-0.529,0.1-1.05,0.24-1.59,0.3   C269.856,210.845,268.574,211.782,268.11,213.16L268.11,213.16z M301.62,221.5c1.08-0.24,2.149-0.53,3.229-0.79l0.09,0.4   l-45.399,10.45c2.991,4.58,4.685,9.884,4.899,15.35l-3.689-3.77l-0.38,0.35c1.239,1.479,2.449,3,3.76,4.42   c0.437,0.172,0.923,0.172,1.36,0c8.606-2.467,17.21-4.947,25.81-7.44c5.02-1.446,10.04-2.88,15.06-4.3   c-0.374,0.227-0.77,0.417-1.18,0.57c-6.394,1.88-12.786,3.747-19.18,5.6c-1.71,0.5-1.721,0.49-1.32,2.29   c0.512,2.62,1.682,5.067,3.4,7.11c4.43,5.09,10.569,3.88,14.27,1.27c0.32-0.237,0.521-0.603,0.55-1c0-1.84-0.17-3.67-0.27-5.71   l-5.101,1.32c1.771-2.31,3.801-3.06,10.101-3.77c-1.82,2.24-0.841,4.73-0.841,7.11c0.144,0.76-0.277,1.514-0.999,1.79   c-3.37,1.49-6.61,3.35-10.08,4.5c-5.92,2-10.87-0.39-13.44-6.05c-0.692-1.8-1.251-3.648-1.67-5.53   c-0.126-0.564-0.223-1.135-0.29-1.71l-8,2.32c-2.2,0.64-4.399,1.33-6.62,1.9c-0.704,0.065-1.222,0.688-1.156,1.392   c0.007,0.07,0.019,0.14,0.036,0.208c0.311,7.65,0.57,15.3,0.83,23c0.01,0.166,0.01,0.333,0,0.5l-0.41,0.18   c0-0.33-0.09-0.67-0.109-1c-0.373-7.553-0.747-15.11-1.12-22.67c-0.07-1.35-0.32-1.55-1.55-1c-0.619,0.416-1.458,0.252-1.874-0.367   c-0.102-0.152-0.172-0.323-0.206-0.503c-0.733-1.742-1.572-3.438-2.51-5.08c-1.38-2.35-2.92-4.62-4.25-6.7l0.67,0.28   c-1.2-1.7-2.24-3.07-3.15-4.52c-0.329-0.542-0.464-1.181-0.38-1.81c0.32-1.72,0.85-3.4,1.23-5.12   c-0.009-0.657,0.518-1.196,1.175-1.205c0.196-0.002,0.391,0.044,0.564,0.135c2.444,0.948,4.616,2.488,6.32,4.48   c0.063,0.063,0.114,0.138,0.15,0.22c0.22,0.58,0.29,1.48,0.689,1.68c0.652,0.118,1.325,0.049,1.94-0.2L301.62,221.5z"></path>
</g>
    <polyline opacity="0.15" enable-background="new    " points="312.22,476.79 209.38,521.6 314.199,567.89 417.039,523.08   312.22,476.79 "></polyline>
    <polygon fill="#4D6982" points="357.24,323.37 312.22,330.79 417.039,376.811 462.07,367.87 "></polygon>
    <polygon fill="#345470" points="274.64,269.19 171.8,314.01 209.38,375.38 312.22,330.561 "></polygon>
    <polyline fill="#345470" points="417.039,376.811 312.22,330.52 209.38,375.33 209.39,375.34 209.38,375.34 209.38,491.75   314.199,538.04 417.039,493.23 417.039,376.811 417.03,376.811 417.039,376.811 "></polyline>
    <polyline fill="#182D3D" points="417.039,376.811 417.039,376.811 314.199,421.62 314.199,538.04 417.039,493.23 417.039,376.811   "></polyline>
    <polyline fill="#E0A01F" points="312.22,330.52 209.38,375.33 314.199,421.62 417.039,376.811 312.22,330.52 "></polyline>
    <polyline opacity="0.15" fill="#FFFFFF" enable-background="new    " points="248.13,508.87 248.13,464.5 260.31,470.74   260.31,514.25 248.13,508.87 "></polyline>
    <polyline fill="#4D6982" points="209.38,375.33 171.8,407.17 277.74,457.43 314.199,421.62 209.38,375.33 "></polyline>
    <g>
	<polygon fill="#FFFFFF" points="323.38,306.32 329.09,370.37 354.73,377.49 380.38,370.38 386.1,306.32  "></polygon>
      <polygon fill="#B78429" points="333.13,297.08 336.78,297.08 336.78,301.08 340.77,301.08 340.77,289.13 336.78,289.13    336.78,293.08 333.13,293.08 333.13,289.13 329.13,289.13 329.13,301.08 333.13,301.08  "></polygon>
      <polygon fill="#B78429" points="346.02,301.08 350.02,301.08 350.02,293.1 353.53,293.1 353.53,289.13 342.51,289.13 342.51,293.1    346.02,293.1  "></polygon>
      <polygon fill="#B78429" points="359.19,295.16 361.94,299.4 362,299.4 364.75,295.16 364.75,301.08 368.73,301.08 368.73,289.13    364.56,289.13 362,293.33 359.44,289.13 355.28,289.13 355.28,301.08 359.19,301.08  "></polygon>
      <polygon fill="#B78429" points="380.32,297.13 374.71,297.13 374.71,289.13 370.71,289.13 370.71,301.08 380.32,301.08  "></polygon>
      <path fill="#E0A01F" d="M323.38,306.32l5.71,64.05l25.64,7.12l25.66-7.11l5.72-64.06H323.38z M373.72,327.27h-30.07l0.72,8H373   l-2.15,24.131l-16.11,4.459l0,0l-16.09-4.469l-1.12-12.621h7.891l0.58,6.551l8.75,2.369l0,0l8.76-2.369l0.91-10.19h-27.23   l-2.12-23.76h39.351L373.72,327.27z"></path>
</g>
    <path fill="#E0A01F" d="M142,269.41c-0.576,0.588-1.52,0.598-2.107,0.023c-0.008-0.008-0.016-0.015-0.022-0.023l-21.62-21.62  c-0.589-0.576-0.599-1.519-0.023-2.107c0.008-0.008,0.016-0.016,0.023-0.023L139.86,224c0.576-0.588,1.52-0.599,2.107-0.023  c0.008,0.007,0.016,0.015,0.023,0.023l2.319,2.32c0.588,0.576,0.599,1.519,0.023,2.107c-0.008,0.007-0.016,0.015-0.023,0.023  l-18.24,18.24L144.31,265c0.588,0.576,0.599,1.519,0.023,2.107c-0.008,0.008-0.016,0.016-0.023,0.023L142,269.41z M154.44,277.48  c-0.231,0.77-1.035,1.213-1.81,1l-2.88-0.79c-0.787-0.241-1.233-1.071-1-1.86L166,216c0.231-0.77,1.035-1.213,1.81-1l2.88,0.79  c0.787,0.241,1.233,1.07,1,1.86L154.44,277.48z M180.61,269.41c-0.575,0.588-1.519,0.598-2.106,0.023  c-0.008-0.008-0.016-0.015-0.023-0.023l-2.319-2.32c-0.589-0.575-0.599-1.519-0.023-2.107c0.008-0.008,0.016-0.015,0.023-0.023  l18.239-18.24l-18.239-18.24c-0.589-0.576-0.599-1.519-0.023-2.107c0.008-0.008,0.016-0.016,0.023-0.023l2.319-2.32  c0.576-0.588,1.52-0.598,2.107-0.023c0.008,0.008,0.016,0.016,0.022,0.023l21.62,21.62c0.589,0.576,0.599,1.519,0.023,2.107  c-0.008,0.008-0.016,0.016-0.023,0.023L180.61,269.41z"></path>
    <g id="g10302">
	<path id="path3265" fill="#B78429" d="M199.64,162.59c0,0-4.1,2.38,2.91,3.19c8.49,1,12.83,0.83,22.19-0.94   c1.881,1.126,3.854,2.089,5.899,2.88C209.64,176.72,183.16,167.2,199.64,162.59"></path>
      <path id="path3267" fill="#B78429" d="M197.08,150.85c0,0-4.59,3.4,2.42,4.13c9.069,0.94,16.24,1,28.63-1.37   c1.271,1.189,2.771,2.105,4.41,2.69c-25.37,7.42-53.62,0.58-35.471-5.44"></path>
      <path id="path3269" fill="#E0A01F" d="M218.69,131c5.17,6-1.359,11.31-1.359,11.31s13.13-6.78,7.1-15.26   c-5.63-7.91-9.95-11.84,13.43-25.4C237.86,101.65,201.17,110.81,218.69,131"></path>
      <path id="path3271" fill="#B78429" d="M246.44,171.27c0,0,3,2.5-3.34,4.43c-12.109,3.67-50.399,4.78-61,0.15   c-3.82-1.66,3.351-4,5.601-4.46c1.21-0.298,2.453-0.439,3.699-0.42c-4.25-3-27.489,5.88-11.8,8.42c42.771,6.94,78-3.12,66.88-8.13"></path>
      <path id="path3273" fill="#B78429" d="M201.61,138.7c0,0-19.479,4.63-6.899,6.31c5.31,0.71,15.899,0.55,25.76-0.28   c8.06-0.68,16.15-2.13,16.15-2.13c-1.702,0.739-3.341,1.615-4.9,2.62c-19.78,5.2-58,2.78-47-2.54c9.3-4.5,16.87-4,16.87-4"></path>
      <path id="path3275" fill="#B78429" d="M236.55,158.23c20.11-10.45,10.81-20.49,4.32-19.14c-0.782,0.146-1.552,0.353-2.301,0.62   c0.426-0.607,1.025-1.071,1.721-1.33c12.84-4.51,22.71,13.31-4.141,20.37c0.166-0.149,0.302-0.33,0.4-0.53"></path>
      <path id="path3277" fill="#E0A01F" d="M224.43,79.71c0,0,11.13,11.14-10.56,28.29c-17.4,13.74-4,21.57,0,30.53   c-10.16-9.16-17.61-17.23-12.61-24.74c7.34-11,27.67-16.36,23.18-34.06"></path>
      <path id="path3279" fill="#B78429" d="M203.59,186.54c19.3,1.24,48.939-0.69,49.64-9.82c0,0-1.35,3.46-16,6.21   c-16.47,3.1-36.79,2.74-48.84,0.75c0,0,2.47,2,15.15,2.86"></path>
</g>
    <path fill="#E0A01F" d="M467.49,279.87c-0.027,7.141-5.809,12.922-12.95,12.95H411.39c-7.141-0.027-12.923-5.809-12.95-12.95v-43.15  c0.027-7.141,5.81-12.922,12.95-12.95h43.16c7.141,0.027,12.922,5.809,12.95,12.95v43.16L467.49,279.87z M411.43,236.76  c-0.381-0.05-0.76,0.102-1,0.4c-0.274,0.262-0.436,0.621-0.45,1V244c0.015,0.77,0.621,1.398,1.39,1.44  c18.743,0.756,33.765,15.777,34.521,34.52c0.042,0.769,0.67,1.375,1.439,1.39h5.75c0.38-0.015,0.738-0.176,1-0.45  c0.293-0.245,0.442-0.621,0.4-1C453.696,256.441,434.887,237.593,411.43,236.76z M411.43,254.02c-0.401-0.033-0.797,0.113-1.08,0.4  c-0.274,0.262-0.436,0.621-0.45,1v5.75c-0.007,0.764,0.588,1.397,1.351,1.44c9.294,0.695,16.677,8.094,17.35,17.39  c0.043,0.762,0.677,1.356,1.439,1.35h5.75c0.38-0.015,0.738-0.176,1-0.45c0.287-0.283,0.434-0.678,0.4-1.08  c-0.705-13.915-11.798-25.055-25.71-25.82L411.43,254.02z M415.659,269.8c-3.175,0-5.75,2.575-5.75,5.75  c0,3.176,2.575,5.75,5.75,5.75c3.176,0,5.75-2.574,5.75-5.75l0,0c0.006-3.162-2.548-5.733-5.71-5.75H415.659z"></path>
    <path fill="#E0A01F" d="M318.52,169.38c1.146,1.585,2.417,3.077,3.8,4.46c14.195,14.191,37.205,14.191,51.4,0  c1.467-1.48,2.805-3.083,4-4.79l4.899,2.8c-4.543,6.644-10.893,11.849-18.3,15c-15.735,6.647-33.93,3.088-46-9  c-1.722-1.721-3.29-3.588-4.689-5.58L318.52,169.38z M386.699,164.48c9.013-21.374-1.009-46.006-22.383-55.018  c-4.11-1.733-8.471-2.801-12.917-3.162v5.7c20.004,1.883,34.693,19.626,32.81,39.63c-0.378,4.018-1.422,7.945-3.09,11.62L386,166  c0.25-0.5,0.479-1,0.689-1.52H386.699z M344.64,106.3c-23.12,1.878-40.34,22.143-38.462,45.263  c0.361,4.446,1.429,8.807,3.162,12.917c0.279,0.667,0.573,1.313,0.88,1.94l4.859-2.86c-8.478-18.21-0.588-39.844,17.622-48.322  c3.766-1.753,7.803-2.848,11.938-3.238V106.3z M320.18,153.85h3.32l1.289-2.81c0.32-0.72,0.61-1.41,1-2.26h0.08  c0.36,0.84,0.681,1.54,1,2.26l1.351,2.81h3.46l-3.8-6.93l3.569-6.84h-3.319l-1.101,2.6c-0.27,0.63-0.55,1.35-0.87,2.22h-0.08  c-0.399-0.87-0.699-1.58-1-2.22l-1.18-2.6h-3.479l3.59,6.69L320.18,153.85z M333.51,153.85h3.13v-4.67h1.899  c2.91,0,5.391-1.44,5.391-4.67c0-3.229-2.391-4.44-5.391-4.44h-5v13.77L333.51,153.85z M336.64,146.71v-4.16h1.71  c1.65,0,2.53,0.53,2.53,2c0,1.47-0.82,2.2-2.53,2.2h-1.71V146.71z M344.96,150.93c-0.096,1.654,1.169,3.072,2.823,3.167  c0.092,0.005,0.184,0.007,0.276,0.003c1.15-0.046,2.242-0.52,3.06-1.33h0.061l0.229,1.08H354v-6c0-3.21-1.48-4.73-4.16-4.73  c-1.591,0.036-3.142,0.51-4.48,1.37l1.101,2c0.824-0.576,1.787-0.921,2.79-1c0.799-0.106,1.533,0.456,1.639,1.255  c0.012,0.087,0.016,0.176,0.011,0.264c-4.189,0.53-5.899,1.73-5.899,3.93L344.96,150.93z M347.96,150.7c0-0.8,0.72-1.44,2.939-1.73  v1.84c-0.419,0.535-1.051,0.86-1.729,0.89c-0.533,0.144-1.082-0.172-1.227-0.706c-0.024-0.093-0.036-0.188-0.034-0.285L347.96,150.7  z M357.079,150.05c0,2.43,1,4.05,3.61,4.05c0.788-0.004,1.571-0.133,2.32-0.38l-0.49-2.26c-0.319,0.127-0.657,0.198-1,0.21  c-0.82,0-1.35-0.49-1.35-1.67v-4.2h2.51v-2.43h-2.51v-2.79h-2.58l-0.36,2.79l-1.61,0.13v2.3H357v4.25H357.079z M364.75,153.85h3.1  v-7.07c0.473-0.597,1.18-0.961,1.939-1c0.891,0,1.29,0.46,1.29,2v6.1h3.101v-6.5c0-2.62-1-4.22-3.25-4.22  c-1.221,0.052-2.375,0.567-3.23,1.44l0.15-1.88v-3.63h-3.1v14.8V153.85z"></path>
    <g>
	<path fill="#E0A01F" d="M408.329,205.2l1.641-0.81c4.35-2.18,8.689-4.4,13.069-6.54c4.381-2.14,8.94-4.27,13.41-6.4l0.25-0.13   c-0.229-0.3-0.43-0.6-0.66-0.86c-0.955-1.053-2.085-1.932-3.34-2.6c-0.84-0.47-1.71-0.88-2.569-1.32   c-0.085-0.037-0.163-0.087-0.23-0.15c2.53,0.43,5.07,0.81,7.24,2.5c-0.703-1.466-1.111-3.057-1.2-4.68   c-0.018-0.316-0.018-0.634,0-0.95c0.9,1.8,1.75,3.62,3.43,4.93c0.301-0.38,0.601-0.74,0.86-1.11c1.058-1.514,1.902-3.166,2.51-4.91   c0.708-1.992,1.266-4.035,1.67-6.11v-0.14c0.336,1.129,0.541,2.294,0.61,3.47c0.128,1.19,0.084,2.392-0.13,3.57l1.37-1.1   c1.924-1.53,3.927-2.959,6-4.28c3.609-2.335,7.367-4.433,11.25-6.28c4.842-2.291,9.825-4.271,14.92-5.93   c6.45-2.12,13-3.88,19.63-5.35h0.16c-0.32,1.07-0.65,2.15-0.94,3.23c-0.059,0.236-0.059,0.483,0,0.72   c0.101,0.41,0.26,0.811,0.4,1.21c0.33,1,0.649,1.91,1,2.86c0.149,0.42,0.16,0.42-0.2,0.66l-0.17,0.14   c-0.76,0.24-1.521,0.46-2.28,0.71c-4,1.3-7.92,2.56-11.85,3.91c-6.53,2.24-13,4.72-19.37,7.3   c-6.667,2.667-13.257,5.463-19.771,8.39c-4.71,2.11-9.409,4.24-14.06,6.46c-5.93,2.83-11.82,5.76-17.72,8.66   c-0.7,0.34-1.391,0.71-2.07,1.07c-0.902,0.526-2.018,0.526-2.92,0L408.329,205.2z"></path>
      <path fill="#E0A01F" d="M523.71,155.94c1.27-0.09,2.55-0.2,3.819-0.27c2.062-0.119,4.129-0.119,6.19,0c0.68,0,1.37,0.11,2,0.2   c0.992,0.084,1.943,0.43,2.76,1l0.66,0.68c1.76,3.15,1.21,6.19-0.44,9.16c-1.017,1.709-2.343,3.215-3.91,4.44   c-0.619,0.51-1.279,1-1.92,1.46c-0.077,0.051-0.157,0.098-0.239,0.14l-0.21-0.14c-1.7-1.3-3.4-2.6-5.08-3.92   c-0.801-0.62-1.57-1.27-2.351-1.91c-0.626-0.521-1.246-1.047-1.859-1.58c-0.53-0.46-1-0.94-1.57-1.41c1.66-0.29,3.32-0.61,5-0.88   c1.46-0.23,2.94-0.4,4.41-0.64h-0.271c-3.069,0.2-6.13,0.56-9.17,1h-0.22c0.16-0.5,0.31-1,0.47-1.5c0.34-1.053,0.674-2.107,1-3.16   c0.28-0.84,0.57-1.68,0.851-2.52C523.662,156.043,523.69,155.993,523.71,155.94z"></path>
      <path fill="#E0A01F" d="M504.39,178.81c1.721,1.302,3.671,2.269,5.75,2.85c-0.42,0.25-0.78,0.47-1.15,0.67   c-2.237,1.184-4.603,2.11-7.05,2.76c-2.959,0.786-6.096,0.572-8.92-0.61l-0.49-0.19h-0.08c1.707,1.278,3.668,2.175,5.75,2.63   c-4,1.28-8,1.53-12-0.17c1.244,1.031,2.664,1.83,4.19,2.36l-0.23,0.14c-3.708,1.844-7.553,3.398-11.5,4.65   c-3.443,1.136-7.035,1.759-10.659,1.85c-4.656,0.051-9.255-1.03-13.4-3.15c-0.42-0.21-0.83-0.46-1.22-0.71   c-0.391-0.25-0.771-0.52-1.21-0.82c2.8,4.468,7.728,7.152,13,7.08c-2.36,0.833-4.849,1.239-7.351,1.2   c-2.49-0.192-4.934-0.78-7.24-1.74c1.511,1.77,3.24,3.09,5.75,2.92l-0.27,0.1c-2.941,0.938-6.129,0.738-8.93-0.56   c-1.9-0.847-3.647-2.002-5.17-3.42c-0.83-0.76-1.591-1.58-2.391-2.37l-0.24-0.25c0.043,1.958-0.674,3.857-2,5.3   c0.431-1.77,1-3.53,0.49-5.41l1.55-0.74c10.327-4.827,20.78-9.35,31.36-13.57c6.81-2.7,13.68-5.25,20.63-7.58   c2.28-0.76,4.58-1.48,6.88-2.22l1.7,4.85c0.018,0.042,0.018,0.088,0,0.13c-0.26,0.32,0,0.32,0.2,0.31   c0.014,0.093,0.048,0.182,0.1,0.26c0.181,0.15,0.391,0.28,0.59,0.42c0.178,0.124,0.349,0.257,0.511,0.4   c0.189,0.18,0.35,0.39,0.54,0.56c0.47,0.41,1,0.8,1.439,1.2L504.39,178.81z"></path>
      <path fill="#E0A01F" d="M521.6,163.77c0.52,0.47,1,0.95,1.57,1.41c0.569,0.46,1.239,1.06,1.859,1.58   c0.78,0.64,1.55,1.29,2.351,1.91c1.689,1.31,3.39,2.61,5.079,3.92l0.211,0.14c-1.566,1.075-3.243,1.979-5,2.7   c-1.17,0.48-2.351,0.93-3.551,1.34c-1.399,0.48-2.8,1-4.229,1.32c-2.14,0.56-4.311,1-6.46,1.52c-0.083,0.005-0.167,0.005-0.25,0   l0.35-0.18c0.131-0.043,0.203-0.185,0.16-0.315c-0.006-0.016-0.012-0.031-0.02-0.045c-0.381-1.1-0.75-2.21-1.131-3.31   c-0.767-2.233-1.539-4.463-2.319-6.69c-0.29-0.83-0.61-1.65-0.91-2.47c1.35-0.35,2.7-0.73,4.06-1c2.721-0.63,5.46-1.22,8.19-1.82   h0.08L521.6,163.77z"></path>
      <path fill="#E0A01F" d="M523.71,155.94c0.009,0.063,0.009,0.127,0,0.19c-0.28,0.84-0.57,1.68-0.851,2.52   c-0.347,1.053-0.68,2.107-1,3.16c-0.16,0.5-0.32,1-0.47,1.5c-1.83,0.34-3.67,0.65-5.49,1c-3.5,0.7-7,1.55-10.43,2.48   c-2.34,0.63-4.67,1.31-7,2h-0.16l0.17-0.14c0.36-0.24,0.351-0.23,0.2-0.66c-0.34-1-0.66-1.91-1-2.86c-0.14-0.4-0.3-0.8-0.4-1.21   c-0.059-0.236-0.059-0.483,0-0.72c0.301-1.08,0.63-2.15,0.94-3.23c1.12-0.24,2.24-0.5,3.37-0.729   c4.166-0.867,8.356-1.604,12.569-2.21c2.53-0.36,5.07-0.62,7.61-0.92C522.38,156,523,156,523.71,155.94z"></path>
      <path fill="#E0A01F" d="M509.28,166.64c0.3,0.82,0.62,1.64,0.91,2.47c0.78,2.227,1.554,4.457,2.32,6.69   c0.38,1.1,0.75,2.21,1.13,3.31c0.067,0.121,0.024,0.273-0.096,0.34c-0.014,0.008-0.029,0.015-0.044,0.02l-0.351,0.18   c-1.844,0.412-3.756,0.412-5.6,0c-1-0.23-1.94-0.56-2.9-0.85l-0.24-0.08v0.07l-1-0.86c-0.479-0.4-1-0.79-1.439-1.2   c-0.2-0.17-0.351-0.38-0.54-0.56c-0.162-0.143-0.332-0.277-0.51-0.4c-0.19-0.14-0.4-0.27-0.591-0.42   c-0.052-0.078-0.086-0.167-0.1-0.26c-0.229,0-0.46,0-0.2-0.31c0.018-0.042,0.018-0.089,0-0.13l-1.7-4.85   c1.431-0.44,2.86-0.89,4.301-1.31c2-0.58,4-1.14,6-1.71L509.28,166.64z"></path>
</g>
    <g>
	<path fill="#FFFFFF" d="M245.41,329.63c0.489,7.64,3.1,15.62,9.159,20.3c1.979,1.619,4.367,2.658,6.9,3   c2.55,0.312,5.112-0.465,7.06-2.14c0.989-0.985,1.828-2.11,2.49-3.34c1.135-1.79,2.058-3.707,2.75-5.71   c0.897-3.182,1.058-6.527,0.47-9.78c-0.597-4.535-2.392-8.829-5.199-12.44c-3-3.62-10.41-9.17-15.46-7.35   C246.5,314.69,245,323.07,245.41,329.63z"></path>
      <path fill="#E0A01F" d="M253.76,367.84c-20.29-4.32-32.71-23.84-29.07-41.689c3.051-15,15.59-27.11,33.431-28.94   c2.76-0.28,5.63,0.45,8.449,0.71c1.769,0.821,3.444,1.826,5,3c10.71,7.66,12.48,18.93,11.671,31.34   c-0.7,10.68-10,18.75-18.74,17.33c2.3-1.26,4.26-4.93,5.779-10.699c1.78-7.601-0.06-14.33-6-19.241   c-2.079-1.72-5.699-1.59-8.619-2.3c-8.181-1.067-13.647,2.347-16.4,10.24c-4,11.49,0.57,28.07,9.89,35.87   C250.77,364.82,252.23,366.38,253.76,367.84z"></path>
      <path fill="#B78429" d="M253.76,367.84c-1.53-1.46-3-3-4.61-4.369c-9.33-7.811-13.92-24.381-9.89-35.871   c2.773-7.899,8.24-11.313,16.4-10.24c-3.87,0.88-7.87,4.871-6.12,15.73c2.739,11.23,6.79,15.69,15,16.51   c8.729,1.42,18-6.649,18.75-17.33c0.81-12.41-1-23.689-11.67-31.339c-1.23-0.88-3.29-2.66-5-3   c20.939,3.63,33.409,21.93,29.189,42.77c-0.359,1.771-2.45,9.771-10.42,17.88C276.54,367,266,370.46,253.76,367.84z"></path>
</g>
    <path fill="#E0A01F" d="M268.95,210.77c0.369-1.25,1.55-1.13,2.439-1.28c6-1,12-1.79,18-2.81c1.804-0.415,3.699-0.099,5.271,0.88  c0.677,0.441,1.223,1.056,1.579,1.78c0.45,1,1.101,0.93,2,0.85c0.867-0.144,1.754-0.117,2.61,0.08c5.5,1.75,11,3.6,16.45,5.39  c1.094,0.309,1.951,1.159,2.27,2.25c0.93,2.76,1.8,5.55,2.94,8.21c0.91,2.12,0.399,4.16,0.21,6.23  c-0.36,3.93-0.851,7.84-1.271,11.77c-0.38,3.57-0.729,7.14-1.14,10.7c-0.106,1.145-0.898,2.111-2,2.44  c-17.167,6.627-34.33,13.273-51.49,19.94c-1.939,0.75-2.76,0.48-4.069-1.16c-4-5.07-8.11-10.11-12.07-15.23  c-0.715-0.956-1.163-2.084-1.3-3.27c-0.57-5.49-1-11-1.45-16.5c-0.229-2.59-0.52-5.18-0.77-7.77c-0.32-3.34,1.05-6.43,1.439-9.66  c0.271-2.23,1.54-3,3.601-3.42c5.09-1,10.149-2.16,15.21-3.27c0.304-0.093,0.601-0.207,0.89-0.34c-0.51-2-1.34-4.16,0.74-5.85  l-0.891,2.44c0.465-1.378,1.746-2.315,3.2-2.34c0.53-0.06,1.061-0.2,1.59-0.3l12.34-2.271c-3.189,0.21-6.34,0.62-9.479,1.14  C273.47,209.77,271.21,210.3,268.95,210.77z M306.48,236.09c-5.06,1.447-10.12,2.89-15.18,4.33c-8.606,2.474-17.21,4.954-25.81,7.44  c-0.438,0.173-0.924,0.173-1.36,0c-1.311-1.42-2.521-2.94-3.76-4.42l0.38-0.35l3.7,3.77c-0.217-5.465-1.91-10.77-4.9-15.35  l45.4-10.45l-0.091-0.4c-1.079,0.27-2.149,0.56-3.229,0.79L262.56,230c-0.614,0.249-1.287,0.318-1.939,0.2  c-0.4-0.2-0.471-1.09-0.69-1.68c-0.035-0.083-0.086-0.157-0.15-0.22c-1.704-1.992-3.875-3.531-6.319-4.48  c-0.583-0.304-1.302-0.078-1.605,0.505c-0.091,0.174-0.137,0.368-0.135,0.565c-0.39,1.71-0.91,3.39-1.23,5.12  c-0.083,0.629,0.051,1.268,0.381,1.81c0.909,1.45,1.949,2.82,3.149,4.52l-0.67-0.28c1.33,2.09,2.87,4.35,4.25,6.7  c0.938,1.642,1.776,3.338,2.51,5.08c0.139,0.733,0.845,1.215,1.577,1.077c0.18-0.034,0.352-0.104,0.503-0.207  c1.221-0.51,1.48-0.31,1.55,1c0.374,7.553,0.747,15.11,1.12,22.67c0,0.45,0.101,0.9,0.15,1.34h0.33c0-0.33,0.06-0.66,0.05-1  c-0.27-7.65-0.52-15.3-0.83-23c-0.18-0.684,0.229-1.383,0.912-1.563c0.068-0.018,0.138-0.03,0.208-0.037  c2.22-0.57,4.41-1.26,6.62-1.9l8-2.32c0.066,0.575,0.164,1.146,0.29,1.71c0.419,1.882,0.977,3.731,1.67,5.53  c2.57,5.67,7.52,8,13.439,6.05c3.48-1.15,6.711-3,10.08-4.5c0.723-0.276,1.144-1.03,1-1.79c0-2.38-1-4.87,0.84-7.11  c-6.289,0.7-8.329,1.45-10.1,3.77l5.101-1.32c0.109,2,0.229,3.87,0.27,5.71c-0.029,0.397-0.229,0.762-0.55,1  c-3.71,2.61-9.851,3.82-14.271-1.27c-1.718-2.043-2.888-4.49-3.399-7.11c-0.4-1.8-0.391-1.8,1.319-2.29  c6.394-1.86,12.787-3.727,19.181-5.6c0.443-0.175,0.871-0.385,1.279-0.63l8.07-2l-0.11-0.38L306.48,236.09z M305.81,229  c-4.93-3.49-13.83-3.49-18.78-0.12c-4.239,2.89-7.47,9.72-6.46,13.76c0.766-0.249,1.543-0.455,2.33-0.62c1-0.17,1.33-0.68,1.32-1.73  c-0.121-3,0.773-5.952,2.54-8.38c3.43-4.427,9.799-5.236,14.226-1.806c0.415,0.321,0.805,0.674,1.164,1.056l-0.64,1.63  C303.64,232,304.4,230.21,305.81,229z M292.6,211.31c-1.2-1.26-2.29-0.91-3.29-0.73c-5.17,0.94-10.33,1.92-15.5,2.88  c-1.52,0.28-1.649,0.58-0.79,2.15L292.6,211.31z"></path>
    <polygon fill="#182D3D" points="461.23,319.29 358.39,364.109 314.199,421.62 417.039,376.811 "></polygon>
</svg>