<svg xmlns="http://www.w3.org/2000/svg" id="back" width="187px" height="auto" viewBox="0 0 640 640" class="svg replaced-svg">
  <title>restlet_illustration_tho</title>
  <g>
    <polygon points="469.38 443.81 436.25 458.25 436.25 447.29 436.25 447.29 436.25 447.29 382.59 423.59 329.94 446.53 329.95 446.54 329.94 446.54 329.94 506.13 371.03 524.27 356.06 530.8 356.07 530.8 356.06 530.8 356.06 590.4 409.73 614.09 462.38 591.15 462.38 546.51 470.4 550.05 523.05 527.11 523.05 467.51 523.04 467.51 523.05 467.51 469.38 443.81" fill="#182d3d"></polygon>
    <path d="M142.54,69.09V82.79a1,1,0,0,0,.6.92l15.64,6.88a1,1,0,0,0,1.39.61l12.18,5.35v92c-4.18.67-7.16,2.23-7.39,4.06-5.72,1.49-9.49,4-9.49,6.86,0,0.09,0,.18,0,0.28h0v4.69a3.45,3.45,0,0,0,.32,1.38,3.45,3.45,0,0,0-.32,1.38c0,0.09,0,.18,0,0.28h0v4.69c0,4.57,9.64,8.28,21.53,8.28s21.53-3.71,21.53-8.28v-4.73h0c0-.08,0-0.16,0-0.24a3.44,3.44,0,0,0-.32-1.38,3.44,3.44,0,0,0,.32-1.38V199.7h0c0-.08,0-0.16,0-0.24,0-2.86-3.76-5.38-9.49-6.86-0.23-1.81-3.13-3.34-7.22-4V100.71l18,7.9a1,1,0,0,0,.76.71,1,1,0,0,0,.63-0.1l9,4a1,1,0,0,0,0,.16s0,0,0,.05h0v20.11l-0.25.24a1.2,1.2,0,0,0-.1,1.41l0.35,0.46v19.81l-0.24.24a1,1,0,0,0-.28.59v0.05a1,1,0,0,0,0,.16,1,1,0,0,0,.18.56l0.35,0.46v19.85l-0.24.24a0.94,0.94,0,0,0-.12.18l-0.05.08a1,1,0,0,0-.08.24,1.11,1.11,0,0,0,0,.55,0.94,0.94,0,0,0,.05.11,1,1,0,0,0,.09.18l0.35,0.46V199.3l-0.12.12h0a0.92,0.92,0,0,0-.09.09l0,0h0a1,1,0,0,0-.2.29l0,0.09a1,1,0,0,0,0,.24,0.94,0.94,0,0,0,0,.2,1,1,0,0,0,0,.14,1,1,0,0,0,.14.29v0l0,0.05s0,0.05,0,.07h0l0.24,0.33v19.93l0,0-0.1,0a1.1,1.1,0,0,0-.38,1v0.06a1,1,0,0,0,.25.51l0.08,0.05,0.18,0.24v19.95a0.94,0.94,0,0,0-.14.07,1.16,1.16,0,0,0-.12,1.61,1,1,0,0,0,.14.09l0.12,0.16V265a0.94,0.94,0,0,0-.14.07,1.22,1.22,0,0,0-.12,1.65,1,1,0,0,0,.2.13l0.06,0.08v19.95a0.92,0.92,0,0,0-.14.07,1.08,1.08,0,0,0,.14,1.86v19.95a0.91,0.91,0,0,0-.14.07,1.1,1.1,0,0,0,.14,1.91v19.9a0.91,0.91,0,0,0-.14.07,1.13,1.13,0,0,0,.14,1.95V352.5a0.91,0.91,0,0,0-.14.07,1.15,1.15,0,0,0,.14,2v19.82a0.94,0.94,0,0,0-.14.07,1,1,0,0,0-.37,1,0.91,0.91,0,0,0,.52,1v19.78a0.92,0.92,0,0,0-.14.07,1,1,0,0,0-.37,1,0.91,0.91,0,0,0,.51,1v19.74a0.91,0.91,0,0,0-.14.07,1,1,0,0,0-.37,1.05,0.91,0.91,0,0,0,.51,1.06V440a0.91,0.91,0,0,0-.14.07,1,1,0,0,0-.36,1.07,0.91,0.91,0,0,0,.5,1.08v15.4l-6.3,2.7h0v22.91l-29.21,12.49h0v14.21l55.42,24.33,57.58-24.62V495.44h0l-29.21-12.82V460.19h0l-7.61-3.34v-271L269,177.91,280.33,144l1.83,0.8a1,1,0,0,0,.32.16h0l19.71,8.66v0a1,1,0,0,0,1.69.72l18.84,8.28a1,1,0,0,0,1.47.64l19.14,8.41a0.85,0.85,0,0,0,1.07.47l19.89,8.75h0l8.12,3.57-1.91.81h0v8.09l16.55,7.27L387.47,319c-1.26.46-2.05,1.11-2.05,1.83,0,0,0,.06,0,0.08h0v8.88c0,1.21,2.24,2.23,5.21,2.47,0,0,0,0,0,.05a10.24,10.24,0,0,0,2.56,7.19,7.47,7.47,0,0,1,2,5.35c0,1.93-.85,3.06-2.33,3.1a3.78,3.78,0,0,1-3.73-3.55,1.14,1.14,0,0,0-2.27.14,6,6,0,0,0,5.91,5.69h0.16c2.09-.06,4.53-1.51,4.53-5.37a9.68,9.68,0,0,0-2.46-6.74,8,8,0,0,1-2.09-5.8v0c3.18-.17,5.63-1.22,5.63-2.49v-8.89h0s0,0,0-.07a1.75,1.75,0,0,0-1-1.36h0.07l-0.35-114.36,0.14,0.06,11.27-4.77,53.25,23.41h0.06a1,1,0,0,0,.34.07h0a1,1,0,0,0,.34-0.07h0.05l20.47-8.91a1,1,0,0,0,.6-0.92V200.27h0s0,0,0,0a1,1,0,0,0,0-.11,0.87,0.87,0,0,0,0-.09l0-.08s0,0,0-.06h0l0,0,0,0,0,0a1,1,0,0,0-.1-0.14l-0.05-.07-0.05,0-0.05,0-0.05,0L243.75,46.57a1,1,0,0,0-.7-0.14l-79.2,12.75a1,1,0,0,0-.24.07l-20.46,8.91-0.06,0h0l-0.11.07,0,0,0,0-0.11.11a1,1,0,0,0-.09.14l0,0.08,0,0.11a180.26,180.26,0,0,0-.05.29v0h0Zm37-10.41,12.77-2.06L179.91,62.1a1,1,0,0,0-.31.23l-12.9,2,12.73-5.63A1,1,0,0,0,179.54,58.68Zm33.75-5.43-12.87,5.69a1,1,0,0,0-.18.12L187,61.16l12.6-5.57a1,1,0,0,0,.25-0.18Zm48.27,7.07,18.91,12.07-18.1,8L243.69,68.45l17.41-7.7A1,1,0,0,0,261.56,60.31Zm100.24,64-18.05,8-0.05,0-18-11.48,17.88-7.91a1,1,0,0,0,.19-0.13Zm21.33,13.61-18.1,8h0l-19.28-12.31,17.72-7.83a1,1,0,0,0,.32-0.22Zm61.39,39.18L426.67,185l-0.25.14-18.58-11.86,18.09-8,0,0ZM465,190.17l-16.34,7.23-9.9-4.38-10.37-6.62,18-8,0.09-.06Zm15.56,9.93-13,5.66-16.42-7.27,15.61-6.9a1,1,0,0,0,.23-0.16Zm-53.42-10,10.66,4.72,6.42,4.1-17.08,6.18v-15ZM304.24,135.63l7.21,3.19-7.21,11.4V135.63Zm-20.5-1.77,2-6.09h0l-2-.9v-0.3l6.21,2.75-6.21,10.92v-6.37Zm-71.54,132,7.83-7.67,8.24,11-8,7.82-8.09-10.84V265.9Zm0-21.92,7.82-7.65,8.24,11-8,7.82-8.07-10.82V244Zm0-21.92,7.8-7.64,8.24,11-8,7.82-8.05-10.79v-0.44Zm0-21.92,7.78-7.62,8.24,11-8,7.82-8-10.77v-0.48Zm0-21.92,7.76-7.6,8.24,11-8,7.82-8-10.75v-0.53Zm0-21.92,7.75-7.58,8.24,11-8,7.82-8-10.72V156.3Zm0-21.92,7.69-7.56,8.28,11.05-8,7.82-8-10.7v-0.61Zm8-38.12-11.57-5.12,11.57-29.07V96.26Zm-13.4-5.93-5.1-2.26V60.84l18-2.86Zm-5.1-.07,4.36,1.93-4.36,10.94V90.26Zm-2-3.07L190,82.88l9.71-18.76V87.18Zm-11.54-5.11-7-3.08V64.1L199,61.28Zm-7-.89,6,2.67-6,11.66V81.18Zm-2-3.07-6.78-3,6.78-9v12Zm-8.66-3.83-5.46-2.42a1,1,0,0,0-.8,0l-3.57,1.55V67.36l17.11-2.72Zm-9.84,1.31,4-1.73,4.63,2.05-8.6,11.4V75.59Zm-2-1.31-9.88,4.3L158.74,69v5.32Zm0,2.18V88.38l-13.63-6Zm12.48,0.29,8,3.55v17.1L161.51,89.6Zm17.89,7.92,10.63,4.71v17l-17.83-7.84ZM207.92,93l12.31,5.45v9.95l-8,3.49-10.05-4.42ZM247,112.32l-0.17.36-4.12,1.8v-4Zm16.21,5.49v-0.33l5.64,2.5-0.14.26Zm-2-.88-10.4-4.59a1,1,0,0,0,0-.17s0-.05,0-0.08h0l0,0v0l-0.05-.06v0l10.57,4.68v0.34Zm-10.75-7.28,10.75-22.92v27.68Zm-9.75,5.7-10.38,4.52-7.71-3.39,3.57-8.5,5.44-2.37,9.08,4v5.77Zm-18.5-3.06V109.7l1.32-.58Zm-2,3.13L214.7,113l5.53-2.41v4.84Zm10.15,63.88v-0.4l0.23,0.1Zm40.18-58.25,0.13-.26,11,4.88V126Zm1-2,10.12-19.7v24.18Zm-1.83-.81-6.55-2.9v-32l18.43,11.76Zm-21.13-9.35-5.92-2.62v-36L261.23,82Zm-7.92-3.51-11.31-5,11.31-27v32Zm-9-1.81a1,1,0,0,0-.44.07l-3.93,1.71,1.32-3.14Zm-7,2.94-2.44,1.06V99.33l4.58,2Zm-0.79,13.61-3.78,3.72-6-8Zm2,0.86,2.52,1.1v12.8l-7.07-9.43Zm2.52,19.52V156.7l-7-9.39Zm0,21.92v16.21l-7-9.37Zm0,21.92v16.17l-7-9.34Zm-16.19,235,8-7.79,8.17,11a1,1,0,0,0,0,.15l-7.94,7.77-8.21-11v-0.07Zm0-21.92,7.94-7.77,8.19,11a1,1,0,0,0,0,.11l-8,7.79-8.19-11v-0.11Zm0-21.92,7.92-7.76,8.21,11s0,0,0,.06l-8,7.8-8.17-11v-0.16Zm0-21.92,7.9-7.74,8.24,11h0l-8,7.82-8.16-10.94v-0.2Zm0-21.92,7.89-7.72,8.24,11-8,7.82-8.14-10.91v-0.24Zm0-21.92,7.87-7.71,8.24,11-8,7.82L212.19,310v-0.28Zm26.05-74.82-7.86,10V227.6Zm1.07,195.53-8.43-7.85s0,0,0-.06l8.67-11,8.45,7.87Zm0-21.9-8.45-7.87h0l8.7-11.08,8.45,7.87Zm0-21.9-8.45-7.87,8.7-11.09,8.45,7.87Zm0-21.9-8.45-7.87,8.7-11.09,8.45,7.87Zm0-21.9L230.94,335l8.7-11.09,8.45,7.87Zm0-21.9L231,313.07l8.7-11.09,8.45,7.87Zm0-21.9L231,291.17l8.7-11.09,8.45,7.87Zm0-21.9L231,269.27l8.7-11.09,8.45,7.87Zm-1.26,23.48-7.8,9.94V293.36Zm0,21.9-7.78,9.92V315.27Zm0,21.9-7.77,9.9V337.19Zm0,21.9-7.75,9.87V359.11Zm0,21.9-7.73,9.85V381Zm0,21.9L230.39,420V403Zm0,21.9-7.69,9.8v-17Zm-6.53,16.47-1.16.5v-1.58Zm5.29,2.19-6-5.55a3,3,0,0,0,0-.65l8.71-11.1,8.45,7.87-8.36,10.66Zm3.94-18.88,8.07-10.28v17.79Zm0-21.9,8-10.26v17.75Zm0-21.9,8-10.23v17.71Zm0-21.9,8-10.21v17.67Zm0-21.9,8-10.19v17.63Zm0-21.9,8-10.16v17.58Zm0-21.9,8-10.14v17.54Zm0-21.9,7.94-10.11v17.5Zm0-21.9,7.92-10.09V264Zm0-21.9,7.9-10.07v17.42Zm7.21,9.45-8.7,11.09L231,247.37l8.7-11.09Zm-9.94,12.67-7.84,10V249.52Zm0,21.9-7.82,10V271.44Zm-9.82,15.16v16l-6.88-9.23Zm0,21.92v15.92l-6.86-9.2Zm0,21.92V353.6l-6.85-9.18Zm0,21.92v15.84l-6.83-9.15Zm0,21.92v15.8l-6.81-9.13Zm0,21.92v15.76l-6.79-9.11Zm0,21.92v15.72L221.61,432Zm0,24.46-3.47,1.48,3.47-3.4v1.91Zm20.47-229.72L241,212.8l7.88-10v17.38Zm-0.67,2.11-8.7,11.09L231,225.47l8.7-11.09Zm-17.8.8V205.68l7.88,7.33Zm-2-16.85v16.13l-7-9.32Zm0,21.92v16.09l-6.94-9.3Zm0,21.92v16l-6.92-9.27Zm0,21.92v16l-6.9-9.25Zm-0.1,19.22-8,7.82-8.1-10.86v-0.32l7.85-7.69Zm-9.43,9.23-6.66,6.52V291.48Zm0,21.9-6.68,6.54v-15.5Zm0,21.9-6.7,6.56V335.23Zm0,21.9-6.72,6.58V357.11Zm0,21.9-6.73,6.59V379Zm0,21.9-6.75,6.61V400.87Zm0,21.9-6.77,6.63v-15.7Zm-6.77,9.43,8-7.81,8.22,11v0a3,3,0,0,0,0,.71l-7.65,7.49-8.5-11.39v0ZM239.5,211.43l-8.45-7.87,8.7-11.09,8.45,7.87Zm-9.12-10.26V183.76l7.9,7.35Zm0.68-19.51,1.44-1.84,10.89,4.76-3.88,4.94Zm52.66-57.29v-28L302,108.07l-11.08,19.49Zm18.5-12.63v20.82l-9.46-4.19Zm2-2.26L322.6,121.2l-10.07,15.91-8.29-3.67v-24Zm51.52,46.77-10.52-4.66V135.66l18.21,11.63Zm8-6.24v9.77l-6.07-2.69Zm-18.5,3.77,9.16,4.06-9.16,10.7V153.78Zm-2-3.07-7.71-3.41,7.71-11v14.46Zm-9.57-4.24-8.93-4v-20l17.71,11.31Zm-8.93-1.77,7.76,3.44-7.76,11.13V144.71Zm-2-3.07-8.36-3.7,8.36-13.21v16.91Zm-9.44-2,9.44,4.18v16.65L305,152.7ZM334.36,149l8.87,3.93v16.59l-17.74-7.8Zm21.95,9.72,7.43,3.29V178.5L346,170.71Zm9.43,4.17,10.6,4.69-10.6,10.14V162.86Zm0-2.19V148.75l18.14,11.58-6,5.73Zm18.5,2.08v6.11l-4.36-1.93Zm2-.92,17.95,11.46-3.68,2.77-14.27-6.32v-7.91ZM402.6,177l2.14-1.61v2.56Zm2.14,3.13v3.82l-7.18-3.15,3.22-2.42Zm-6.06-2.68-3.22,2.43-5.89-2.59-3.32,1.41v-6.75ZM416.32,189h0l-9.59-4.21V181l15,6.66-5.44,3V189Zm-9.59-10.21v-3.9l17.68,11.29-0.44.24ZM447,200.63L460,209l-13,4.57V200.63ZM462.33,208L450,200.14l15.14,6.7Zm-17.2-7.5v13.73L428,206.75Zm16.11,10v10.85l-13.73-6Zm2-.69,4.33-1.89,13.14,5.82-17.48,7.6V209.83Zm6.83-3,11.64-5.06V212Zm-63.82-35.09-0.2.12-0.16.12-18.45-11.78,17.66-7.81a1,1,0,0,0,.35-0.28l18.49,11.8Zm-20.83-12.83h0L367,147.21l17.23-7.62a1,1,0,0,0,.54-0.62l18.73,12Zm-61.5-39.5a1,1,0,0,0-.19.12L305.32,107.8l17.44-7.71a1,1,0,0,0,.45-0.43l18.59,11.87ZM303.3,106.51l-18.48-11.8,17.62-7.79a1,1,0,0,0,.36-0.29L321.4,98.5Zm-20.5-13.09L264.4,81.67l17.53-7.75a1,1,0,0,0,.4-0.35l18.56,11.84Zm-55.2,6.1-5.36-2.37V57.58l0.57-.09,17.68,11.29ZM221.91,55.6h0l-14.08,2.24,12.28-5.43a1,1,0,0,0,.39-0.34l14.76-2.38ZM144.54,80V69.93l12.35-2ZM177,188.18a30.26,30.26,0,0,0-3.65.22V97l5.88,2.59v0a1,1,0,0,0,.76,1,1,1,0,0,0,.24,0,1,1,0,0,0,.59-0.2v88A30.08,30.08,0,0,0,177,188.18Zm35.19-71.62,6.48,8.65-6.48,6.37v-15Zm0,21.78,6.54,8.76-6.54,6.4V138.33Zm0,21.88,6.56,8.79-6.56,6.42V160.21Zm0,21.88,6.57,8.81-6.57,6.44V182.09Zm0,21.88,6.59,8.84-6.59,6.45V204Zm6.61,30.74-6.61,6.47V225.84Zm0,21.9-6.63,6.49V247.72Zm0,21.9L212.19,285V269.6Zm-6.64,166.12,6.88,9.22-6.87,2.94V444.62Zm29.33,8.13,7.33-9.34V456Zm7.33-254.53L241,190.9l4.3-5.48,3.21,1.4,0.35-.15v11.55Zm32.88-58.39v2.62l-0.77-.34Zm2.43,3.69,7.62-13.4,10.45,4.63v16.72Zm82.34,36.2,11.8-11.29,5.93,2.62v8.49L375,183.45Zm30,139.31a13.46,13.46,0,0,0-4.57-.72,15,15,0,0,0-3.49.39l-0.36-117.58,8.07,3.54Zm19.79-121.91v-4.19l7.74-4.25,1.23,0.55v16.33l-14.18-6.23Zm-156.57-138-17.56,7.77a0.9,0.9,0,0,0-.91,0L224.91,56.47l16.68-7.38a1,1,0,0,0,.48-0.48l0.91-.15Zm-95.47,2,7.57-1.22-12,5.29a1,1,0,0,0-.16,0,1,1,0,0,0-.81.45l-7.77,1.24Z" fill="#182d3d"></path>
  </g>
  <g>
    <polyline points="436.25 447.29 382.59 423.59 329.94 446.53 329.95 446.54 329.94 446.54 329.94 506.13 383.61 529.83 436.25 506.88 436.25 447.29 436.25 447.29 436.25 447.29" fill="#e0a01f"></polyline>
    <polyline points="436.25 447.29 436.25 447.29 383.61 470.23 383.61 529.83 436.25 506.88 436.25 447.29" fill="#b78429"></polyline>
    <polyline points="382.59 423.59 329.94 446.53 383.61 470.23 436.25 447.29 382.59 423.59" fill="#f2be61"></polyline>
  </g>
  <g>
    <polyline points="523.05 467.51 469.38 443.81 416.74 466.76 416.74 466.76 416.74 466.76 416.74 526.35 470.4 550.05 523.05 527.11 523.05 467.51 523.04 467.51 523.05 467.51" fill="#e0a01f"></polyline>
    <polyline points="523.05 467.51 523.05 467.51 470.4 490.45 470.4 550.05 523.05 527.11 523.05 467.51" fill="#b78429"></polyline>
    <polyline points="469.38 443.81 416.74 466.76 470.4 490.45 523.05 467.51 469.38 443.81" fill="#f2be61"></polyline>
  </g>
  <g>
    <polyline points="462.38 531.55 408.71 507.85 356.06 530.8 356.07 530.8 356.06 530.8 356.06 590.4 409.73 614.09 462.38 591.15 462.38 531.55 462.37 531.55 462.38 531.55" fill="#e0a01f"></polyline>
    <polyline points="462.38 531.55 462.38 531.55 409.73 554.49 409.73 614.09 462.38 591.15 462.38 531.55" fill="#b78429"></polyline>
    <polyline points="408.71 507.85 356.06 530.8 409.73 554.49 462.38 531.55 408.71 507.85" fill="#f2be61"></polyline>
  </g>
  <g>
    <path d="M198.53,207.43v4.73c0,4.57-9.64,8.28-21.53,8.28s-21.53-3.71-21.53-8.28v-4.69Z" fill="#e0a01f"></path>
    <ellipse cx="177" cy="207.18" rx="21.53" ry="8.28" fill="#f2be61"></ellipse>
  </g>
  <g>
    <path d="M198.53,199.7v4.73c0,4.57-9.64,8.28-21.53,8.28s-21.53-3.71-21.53-8.28v-4.69Z" fill="#e0a01f"></path>
    <ellipse cx="177" cy="199.46" rx="21.53" ry="8.28" fill="#f2be61"></ellipse>
  </g>
  <g>
    <path d="M189.07,193v2.65c0,2.56-5.4,4.64-12.07,4.64s-12.07-2.08-12.07-4.64V193Z" fill="#182d3d"></path>
    <ellipse cx="177" cy="192.82" rx="12.07" ry="4.64" fill="#4d6982"></ellipse>
  </g>
  <line x1="172.85" y1="95.93" x2="172.85" y2="192.6" fill="none" stroke="#182d3d" stroke-miterlimit="10"></line>
  <line x1="181.32" y1="98.35" x2="181.32" y2="190.61" fill="none" stroke="#182d3d" stroke-miterlimit="10"></line>
  <g>
    <path d="M367.46,556.17l13.84-5a4.36,4.36,0,0,1,4.27,1.19l13.89,12.7a7.15,7.15,0,0,1,2.39,4.73v17.67a3.54,3.54,0,0,1-2.32,3.36l-13.7,5a4.22,4.22,0,0,1-4.2-1.17l-14.14-12.78c-1.28-1.19-2.64-3.14-2.64-4.8V559.45A3.69,3.69,0,0,1,367.46,556.17Z" fill="#fff"></path>
    <path d="M386.36,581l0.11,0,2.64,0.73c-0.23-.61-3-6.62-3.32-7.07a3,3,0,0,0,1.86-1,3.79,3.79,0,0,0,.65-2.4,5.77,5.77,0,0,0-1.6-4.19,10,10,0,0,0-4.61-2.48c-0.48-.13-2.56-0.66-3.64-1a0.42,0.42,0,0,0-.59.34v14.78l3,0.83v-5.5h0v-6.85s1,0.24,1.24.3a5.76,5.76,0,0,1,2.27,1.07,2.32,2.32,0,0,1,.78,1.78,1.33,1.33,0,0,1-.71,1.43,4.32,4.32,0,0,1-2.42-.19h0c-0.44-.11-0.59.08-0.41,0.61l1.09,2.27c0.22,0.36,2.12,4.31,2.83,5.82A1.48,1.48,0,0,0,386.36,581Z" fill="#e0a01f"></path>
  </g>
  <g>
    <polyline points="287.68 495.44 232.26 471.11 174.68 495.73 174.69 495.74 174.68 495.74 174.68 509.95 230.09 534.28 287.68 509.65 287.68 495.44 287.67 495.44 287.68 495.44" fill="#182d3d"></polyline>
    <polyline points="287.68 495.44 287.68 495.44 230.09 520.06 230.09 534.28 287.68 509.65 287.68 495.44" fill="#345470"></polyline>
    <polyline points="232.26 471.11 174.68 495.73 230.09 520.06 287.68 495.44 232.26 471.11" fill="#4d6982"></polyline>
  </g>
  <g>
    <polyline points="258.47 460.19 231.7 448.44 203.89 460.33 203.9 460.33 203.89 460.33 203.89 493.88 230.66 505.64 258.47 493.74 258.47 460.19 258.46 460.19 258.47 460.19" fill="#182d3d"></polyline>
    <polyline points="258.47 460.19 258.47 460.19 230.66 472.08 230.66 505.64 258.47 493.74 258.47 460.19" fill="#345470"></polyline>
    <polyline points="231.7 448.44 203.89 460.33 230.66 472.08 258.47 460.19 231.7 448.44" fill="#4d6982"></polyline>
  </g>
  <g>
    <path d="M391.76,332.31c0,6.85,4.55,6.09,4.55,12.53s-8,4.92-8.33-.38" fill="none" stroke="#e0a01f" stroke-linecap="round" stroke-linejoin="round" stroke-width="2.27"></path>
    <g>
      <path d="M398.52,320.91v8.89c0,1.39-2.93,2.52-6.55,2.52s-6.55-1.13-6.55-2.52v-8.88h13.09Z" fill="#e0a01f"></path>
      <ellipse cx="391.97" cy="320.83" rx="6.55" ry="2.52" fill="#f2be61"></ellipse>
    </g>
    <line x1="387.59" y1="193.27" x2="387.99" y2="323.12" fill="none" stroke="#182d3d" stroke-miterlimit="10"></line>
    <line x1="396.64" y1="189.62" x2="397.04" y2="319.47" fill="none" stroke="#182d3d" stroke-miterlimit="10"></line>
  </g>
  <polyline points="482.42 213.42 164.71 72.77 144.24 81.67 160.15 66.19 179.03 57.84" fill="none" stroke="#e0a01f" stroke-linecap="round" stroke-linejoin="round" stroke-width="2"></polyline>
  <g>
    <polyline points="416.32 189.03 389.56 177.28 370.56 185.33 370.56 185.33 370.56 185.33 370.56 193.42 397.32 205.17 416.32 197.12 416.32 189.03 416.32 189.03 416.32 189.03" fill="#182d3d"></polyline>
    <polyline points="416.32 189.03 416.32 189.03 397.32 197.08 397.32 205.17 416.32 197.12 416.32 189.03" fill="#345470"></polyline>
    <polyline points="389.56 177.28 370.56 185.33 397.32 197.08 416.32 189.03 389.56 177.28" fill="#4d6982"></polyline>
  </g>
  <polyline points="249.85 112.47 249.84 112.47 249.85 112.47" fill="none" stroke="#e0a01f" stroke-linecap="round" stroke-linejoin="round" stroke-width="2"></polyline>
  <polyline points="249.85 112.47 231.66 104.51 211.19 113.42 211.2 113.43 211.19 113.43 211.19 459.03 229.39 466.99 249.85 458.08" fill="none" stroke="#e0a01f" stroke-linecap="round" stroke-linejoin="round" stroke-width="2"></polyline>
  <line x1="229.39" y1="121.38" x2="229.39" y2="466.99" fill="none" stroke="#e0a01f" stroke-linecap="round" stroke-linejoin="round" stroke-width="2"></line>
  <polyline points="211.19 113.42 229.39 121.38 249.85 112.47" fill="none" stroke="#e0a01f" stroke-linecap="round" stroke-linejoin="round" stroke-width="2"></polyline>
  <line x1="229.32" y1="466.69" x2="249.57" y2="440.88" fill="none" stroke="#345470" stroke-linecap="round" stroke-linejoin="round" stroke-width="0.99"></line>
  <line x1="229.32" y1="444.81" x2="249.57" y2="419" fill="none" stroke="#345470" stroke-linecap="round" stroke-linejoin="round" stroke-width="0.99"></line>
  <line x1="229.32" y1="422.94" x2="249.57" y2="397.13" fill="none" stroke="#345470" stroke-linecap="round" stroke-linejoin="round" stroke-width="0.99"></line>
  <line x1="229.32" y1="401.06" x2="249.57" y2="375.25" fill="none" stroke="#345470" stroke-linecap="round" stroke-linejoin="round" stroke-width="0.99"></line>
  <line x1="229.32" y1="379.18" x2="249.57" y2="353.37" fill="none" stroke="#345470" stroke-linecap="round" stroke-linejoin="round" stroke-width="0.99"></line>
  <line x1="229.32" y1="357.3" x2="249.57" y2="331.49" fill="none" stroke="#345470" stroke-linecap="round" stroke-linejoin="round" stroke-width="0.99"></line>
  <line x1="229.32" y1="335.43" x2="249.57" y2="309.61" fill="none" stroke="#345470" stroke-linecap="round" stroke-linejoin="round" stroke-width="0.99"></line>
  <line x1="229.32" y1="313.55" x2="249.57" y2="287.74" fill="none" stroke="#345470" stroke-linecap="round" stroke-linejoin="round" stroke-width="0.99"></line>
  <line x1="229.32" y1="291.67" x2="249.57" y2="265.86" fill="none" stroke="#345470" stroke-linecap="round" stroke-linejoin="round" stroke-width="0.99"></line>
  <line x1="229.32" y1="269.79" x2="249.57" y2="243.98" fill="none" stroke="#345470" stroke-linecap="round" stroke-linejoin="round" stroke-width="2"></line>
  <line x1="229.32" y1="247.91" x2="249.57" y2="222.1" fill="none" stroke="#345470" stroke-linecap="round" stroke-linejoin="round" stroke-width="2"></line>
  <line x1="229.32" y1="226.04" x2="249.57" y2="200.23" fill="none" stroke="#345470" stroke-linecap="round" stroke-linejoin="round" stroke-width="2"></line>
  <line x1="229.32" y1="204.16" x2="249.57" y2="178.35" fill="none" stroke="#345470" stroke-linecap="round" stroke-linejoin="round" stroke-width="2"></line>
  <line x1="229.32" y1="182.28" x2="249.57" y2="156.47" fill="none" stroke="#345470" stroke-linecap="round" stroke-linejoin="round" stroke-width="2"></line>
  <line x1="229.32" y1="160.4" x2="249.57" y2="134.59" fill="none" stroke="#345470" stroke-linecap="round" stroke-linejoin="round" stroke-width="2"></line>
  <line x1="229.32" y1="138.53" x2="249.57" y2="112.71" fill="none" stroke="#345470" stroke-linecap="round" stroke-linejoin="round" stroke-width="2"></line>
  <g>
    <line x1="229.9" y1="466.69" x2="210.65" y2="440.88" fill="none" stroke="#e0a01f" stroke-linecap="round" stroke-linejoin="round" stroke-width="2"></line>
    <line x1="229.9" y1="444.81" x2="210.65" y2="419" fill="none" stroke="#e0a01f" stroke-linecap="round" stroke-linejoin="round" stroke-width="2"></line>
    <line x1="229.9" y1="422.94" x2="210.65" y2="397.13" fill="none" stroke="#e0a01f" stroke-linecap="round" stroke-linejoin="round" stroke-width="2"></line>
    <line x1="229.9" y1="401.06" x2="210.65" y2="375.25" fill="none" stroke="#e0a01f" stroke-linecap="round" stroke-linejoin="round" stroke-width="2"></line>
    <line x1="229.9" y1="379.18" x2="210.65" y2="353.37" fill="none" stroke="#e0a01f" stroke-linecap="round" stroke-linejoin="round" stroke-width="2"></line>
    <line x1="229.9" y1="357.3" x2="210.65" y2="331.49" fill="none" stroke="#e0a01f" stroke-linecap="round" stroke-linejoin="round" stroke-width="2"></line>
    <line x1="229.9" y1="335.43" x2="210.65" y2="309.61" fill="none" stroke="#e0a01f" stroke-linecap="round" stroke-linejoin="round" stroke-width="2"></line>
    <line x1="229.9" y1="313.55" x2="210.65" y2="287.74" fill="none" stroke="#e0a01f" stroke-linecap="round" stroke-linejoin="round" stroke-width="2"></line>
    <line x1="229.9" y1="291.67" x2="210.65" y2="265.86" fill="none" stroke="#e0a01f" stroke-linecap="round" stroke-linejoin="round" stroke-width="2"></line>
    <line x1="229.9" y1="269.79" x2="210.65" y2="243.98" fill="none" stroke="#e0a01f" stroke-linecap="round" stroke-linejoin="round" stroke-width="2"></line>
    <line x1="229.9" y1="247.91" x2="210.65" y2="222.1" fill="none" stroke="#e0a01f" stroke-linecap="round" stroke-linejoin="round" stroke-width="2"></line>
    <line x1="229.9" y1="226.04" x2="210.65" y2="200.23" fill="none" stroke="#e0a01f" stroke-linecap="round" stroke-linejoin="round" stroke-width="2"></line>
    <line x1="229.9" y1="204.16" x2="210.65" y2="178.35" fill="none" stroke="#e0a01f" stroke-linecap="round" stroke-linejoin="round" stroke-width="2"></line>
    <line x1="229.9" y1="182.28" x2="210.65" y2="156.47" fill="none" stroke="#e0a01f" stroke-linecap="round" stroke-linejoin="round" stroke-width="2"></line>
    <line x1="229.9" y1="160.4" x2="210.65" y2="134.59" fill="none" stroke="#e0a01f" stroke-linecap="round" stroke-linejoin="round" stroke-width="2"></line>
    <line x1="229.9" y1="138.53" x2="211.23" y2="113.6" fill="none" stroke="#e0a01f" stroke-linecap="round" stroke-linejoin="round" stroke-width="2"></line>
  </g>
  <g>
    <line x1="210.65" y1="441.36" x2="229.9" y2="422.51" fill="none" stroke="#e0a01f" stroke-linecap="round" stroke-linejoin="round" stroke-width="2"></line>
    <line x1="210.65" y1="419.44" x2="229.9" y2="400.59" fill="none" stroke="#e0a01f" stroke-linecap="round" stroke-linejoin="round" stroke-width="2"></line>
    <line x1="210.65" y1="397.52" x2="229.9" y2="378.67" fill="none" stroke="#e0a01f" stroke-linecap="round" stroke-linejoin="round" stroke-width="2"></line>
    <line x1="210.65" y1="375.6" x2="229.9" y2="356.75" fill="none" stroke="#e0a01f" stroke-linecap="round" stroke-linejoin="round" stroke-width="2"></line>
    <line x1="210.65" y1="353.68" x2="229.9" y2="334.83" fill="none" stroke="#e0a01f" stroke-linecap="round" stroke-linejoin="round" stroke-width="2"></line>
    <line x1="210.65" y1="331.76" x2="229.9" y2="312.91" fill="none" stroke="#e0a01f" stroke-linecap="round" stroke-linejoin="round" stroke-width="2"></line>
    <line x1="210.65" y1="309.84" x2="229.9" y2="290.99" fill="none" stroke="#e0a01f" stroke-linecap="round" stroke-linejoin="round" stroke-width="2"></line>
    <line x1="210.65" y1="287.93" x2="229.9" y2="269.07" fill="none" stroke="#e0a01f" stroke-linecap="round" stroke-linejoin="round" stroke-width="2"></line>
    <line x1="210.65" y1="266.01" x2="229.9" y2="247.15" fill="none" stroke="#e0a01f" stroke-linecap="round" stroke-linejoin="round" stroke-width="2"></line>
    <line x1="210.65" y1="244.09" x2="229.9" y2="225.24" fill="none" stroke="#e0a01f" stroke-linecap="round" stroke-linejoin="round" stroke-width="2"></line>
    <line x1="210.65" y1="222.17" x2="229.9" y2="203.32" fill="none" stroke="#e0a01f" stroke-linecap="round" stroke-linejoin="round" stroke-width="2"></line>
    <line x1="210.65" y1="200.25" x2="229.9" y2="181.4" fill="none" stroke="#e0a01f" stroke-linecap="round" stroke-linejoin="round" stroke-width="2"></line>
    <line x1="210.65" y1="178.33" x2="229.9" y2="159.48" fill="none" stroke="#e0a01f" stroke-linecap="round" stroke-linejoin="round" stroke-width="2"></line>
    <line x1="210.65" y1="156.41" x2="229.9" y2="137.56" fill="none" stroke="#e0a01f" stroke-linecap="round" stroke-linejoin="round" stroke-width="2"></line>
    <line x1="210.65" y1="134.49" x2="225.54" y2="119.84" fill="none" stroke="#e0a01f" stroke-linecap="round" stroke-linejoin="round" stroke-width="2"></line>
    <line x1="214.47" y1="460.17" x2="229.9" y2="445.05" fill="none" stroke="#e0a01f" stroke-linecap="round" stroke-linejoin="round" stroke-width="2"></line>
  </g>
  <g>
    <line x1="229.32" y1="466.69" x2="249.57" y2="440.88" fill="none" stroke="#b78429" stroke-linecap="round" stroke-linejoin="round" stroke-width="2"></line>
    <line x1="229.32" y1="444.81" x2="249.57" y2="419" fill="none" stroke="#b78429" stroke-linecap="round" stroke-linejoin="round" stroke-width="2"></line>
    <line x1="229.32" y1="422.94" x2="249.57" y2="397.13" fill="none" stroke="#b78429" stroke-linecap="round" stroke-linejoin="round" stroke-width="2"></line>
    <line x1="229.32" y1="401.06" x2="249.57" y2="375.25" fill="none" stroke="#b78429" stroke-linecap="round" stroke-linejoin="round" stroke-width="2"></line>
    <line x1="229.32" y1="379.18" x2="249.57" y2="353.37" fill="none" stroke="#b78429" stroke-linecap="round" stroke-linejoin="round" stroke-width="2"></line>
    <line x1="229.32" y1="357.3" x2="249.57" y2="331.49" fill="none" stroke="#b78429" stroke-linecap="round" stroke-linejoin="round" stroke-width="2"></line>
    <line x1="229.32" y1="335.43" x2="249.57" y2="309.61" fill="none" stroke="#b78429" stroke-linecap="round" stroke-linejoin="round" stroke-width="2"></line>
    <line x1="229.32" y1="313.55" x2="249.57" y2="287.74" fill="none" stroke="#b78429" stroke-linecap="round" stroke-linejoin="round" stroke-width="2"></line>
    <line x1="229.32" y1="291.67" x2="249.57" y2="265.86" fill="none" stroke="#b78429" stroke-linecap="round" stroke-linejoin="round" stroke-width="2"></line>
    <line x1="229.32" y1="269.79" x2="249.57" y2="243.98" fill="none" stroke="#b78429" stroke-linecap="round" stroke-linejoin="round" stroke-width="2"></line>
    <line x1="229.32" y1="247.91" x2="249.57" y2="222.1" fill="none" stroke="#b78429" stroke-linecap="round" stroke-linejoin="round" stroke-width="2"></line>
    <line x1="229.32" y1="226.04" x2="249.57" y2="200.23" fill="none" stroke="#b78429" stroke-linecap="round" stroke-linejoin="round" stroke-width="2"></line>
    <line x1="229.32" y1="204.16" x2="249.57" y2="178.35" fill="none" stroke="#b78429" stroke-linecap="round" stroke-linejoin="round" stroke-width="2"></line>
    <line x1="229.32" y1="182.28" x2="249.57" y2="156.47" fill="none" stroke="#b78429" stroke-linecap="round" stroke-linejoin="round" stroke-width="2"></line>
    <line x1="229.32" y1="160.4" x2="249.57" y2="134.59" fill="none" stroke="#b78429" stroke-linecap="round" stroke-linejoin="round" stroke-width="2"></line>
    <line x1="229.32" y1="138.53" x2="249.57" y2="112.71" fill="none" stroke="#b78429" stroke-linecap="round" stroke-linejoin="round" stroke-width="2"></line>
  </g>
  <g>
    <line x1="249.57" y1="441.36" x2="229.32" y2="422.51" fill="none" stroke="#b78429" stroke-linecap="round" stroke-linejoin="round" stroke-width="2"></line>
    <line x1="249.57" y1="419.44" x2="229.32" y2="400.59" fill="none" stroke="#b78429" stroke-linecap="round" stroke-linejoin="round" stroke-width="2"></line>
    <line x1="249.57" y1="397.52" x2="229.32" y2="378.67" fill="none" stroke="#b78429" stroke-linecap="round" stroke-linejoin="round" stroke-width="2"></line>
    <line x1="249.57" y1="375.6" x2="229.32" y2="356.75" fill="none" stroke="#b78429" stroke-linecap="round" stroke-linejoin="round" stroke-width="2"></line>
    <line x1="249.57" y1="353.68" x2="229.32" y2="334.83" fill="none" stroke="#b78429" stroke-linecap="round" stroke-linejoin="round" stroke-width="2"></line>
    <line x1="249.57" y1="331.76" x2="229.32" y2="312.91" fill="none" stroke="#b78429" stroke-linecap="round" stroke-linejoin="round" stroke-width="2"></line>
    <line x1="249.57" y1="309.84" x2="229.32" y2="290.99" fill="none" stroke="#b78429" stroke-linecap="round" stroke-linejoin="round" stroke-width="2"></line>
    <line x1="249.57" y1="287.93" x2="229.32" y2="269.07" fill="none" stroke="#b78429" stroke-linecap="round" stroke-linejoin="round" stroke-width="2"></line>
    <line x1="249.57" y1="266.01" x2="229.32" y2="247.15" fill="none" stroke="#b78429" stroke-linecap="round" stroke-linejoin="round" stroke-width="2"></line>
    <line x1="249.57" y1="244.09" x2="229.32" y2="225.24" fill="none" stroke="#b78429" stroke-linecap="round" stroke-linejoin="round" stroke-width="2"></line>
    <line x1="249.57" y1="222.17" x2="229.32" y2="203.32" fill="none" stroke="#b78429" stroke-linecap="round" stroke-linejoin="round" stroke-width="2"></line>
    <line x1="249.57" y1="200.25" x2="229.32" y2="181.4" fill="none" stroke="#b78429" stroke-linecap="round" stroke-linejoin="round" stroke-width="2"></line>
    <line x1="249.57" y1="178.33" x2="229.32" y2="159.48" fill="none" stroke="#b78429" stroke-linecap="round" stroke-linejoin="round" stroke-width="2"></line>
    <line x1="249.57" y1="156.41" x2="229.32" y2="137.56" fill="none" stroke="#b78429" stroke-linecap="round" stroke-linejoin="round" stroke-width="2"></line>
    <line x1="249.57" y1="134.49" x2="233.9" y2="119.84" fill="none" stroke="#b78429" stroke-linecap="round" stroke-linejoin="round" stroke-width="2"></line>
    <line x1="245.55" y1="460.17" x2="229.32" y2="445.05" fill="none" stroke="#b78429" stroke-linecap="round" stroke-linejoin="round" stroke-width="2"></line>
  </g>
  <line x1="249.85" y1="458.08" x2="249.85" y2="112.47" fill="none" stroke="#b78429" stroke-linecap="round" stroke-linejoin="round" stroke-width="2"></line>
  <g>
    <polyline points="285.78 127.76 250.78 112.32 230.31 121.22 230.32 121.23 230.31 121.23 230.31 178.87 248.5 186.82 268.97 177.91 285.78 127.77 285.77 127.77 285.78 127.76" fill="#e0a01f"></polyline>
    <polyline points="285.78 127.77 285.78 127.77 265.31 136.67 248.5 186.82 268.97 177.91 285.78 127.77" fill="#b78429"></polyline>
    <polyline points="250.78 112.32 230.31 121.22 265.31 136.67 285.78 127.76 250.78 112.32" fill="#fff"></polyline>
  </g>
  <polygon points="235.99 131.17 235.99 146.92 258.49 156.3 279.36 146.3 283.74 133.67 262.74 143.3 235.99 131.17" opacity="0.25"></polygon>
  <g>
    <polyline points="482.71 200.27 482.7 200.27 482.71 200.26" fill="none" stroke="#e0a01f" stroke-linecap="round" stroke-linejoin="round" stroke-width="2"></polyline>
    <polyline points="143.54 69.08 143.55 69.08 143.54 69.08 143.54 82.8 462.24 222.89" fill="none" stroke="#e0a01f" stroke-linecap="round" stroke-linejoin="round" stroke-width="2"></polyline>
    <polyline points="482.71 200.27 482.71 200.27 462.24 209.17 462.24 222.89" fill="none" stroke="#e0a01f" stroke-linecap="round" stroke-linejoin="round" stroke-width="2"></polyline>
    <polyline points="143.54 69.08 223.03 56.45 462.24 209.17" fill="none" stroke="#e0a01f" stroke-linecap="round" stroke-linejoin="round" stroke-width="2"></polyline>
    <polyline points="482.71 200.26 243.21 47.41 164.01 60.17 143.54 69.08" fill="none" stroke="#b78429" stroke-linecap="round" stroke-linejoin="round" stroke-width="2"></polyline>
    <polyline points="462.24 222.89 482.71 213.98 482.71 200.27" fill="none" stroke="#b78429" stroke-linecap="round" stroke-linejoin="round" stroke-width="2"></polyline>
  </g>
  <line x1="466.36" y1="190.67" x2="447.49" y2="199.02" fill="none" stroke="#e0a01f" stroke-linecap="round" stroke-linejoin="round" stroke-width="2"></line>
  <line x1="241.19" y1="48.17" x2="222.32" y2="56.52" fill="none" stroke="#e0a01f" stroke-linecap="round" stroke-linejoin="round" stroke-width="2"></line>
  <g>
    <polyline points="426.24 186.17 426.24 206.39 446.07 199.21 446.07 214.84 462.24 209.17" fill="none" stroke="#e0a01f" stroke-linecap="round" stroke-linejoin="round" stroke-width="1.87"></polyline>
    <polyline points="405.74 173.6 405.74 197.6 427.15 185.85 446.03 177.51" fill="none" stroke="#e0a01f" stroke-linecap="round" stroke-linejoin="round" stroke-width="2"></polyline>
    <polyline points="385.24 160.43 385.24 188.82 406.65 172.69 425.53 164.34" fill="none" stroke="#e0a01f" stroke-linecap="round" stroke-linejoin="round" stroke-width="2"></polyline>
    <polyline points="364.74 146.85 364.74 180.03 385.82 159.85 404.69 151.51" fill="none" stroke="#e0a01f" stroke-linecap="round" stroke-linejoin="round" stroke-width="2"></polyline>
    <polyline points="344.24 133.47 344.24 171.24 364.99 147.02 383.86 138.67" fill="none" stroke="#e0a01f" stroke-linecap="round" stroke-linejoin="round" stroke-width="2"></polyline>
    <polyline points="323.74 120.9 323.74 162.46 344.15 133.19 363.03 124.84" fill="none" stroke="#e0a01f" stroke-linecap="round" stroke-linejoin="round" stroke-width="2"></polyline>
    <polyline points="303.24 107.53 303.24 153.67 324.32 120.35 343.19 112.01" fill="none" stroke="#e0a01f" stroke-linecap="round" stroke-linejoin="round" stroke-width="2"></polyline>
    <polyline points="282.74 94.76 282.74 144.01 303.49 107.52 322.36 99.17" fill="none" stroke="#e0a01f" stroke-linecap="round" stroke-linejoin="round" stroke-width="2"></polyline>
    <polyline points="262.24 81.38 262.24 135.09 283.15 94.35 302.03 86.01" fill="none" stroke="#e0a01f" stroke-linecap="round" stroke-linejoin="round" stroke-width="2"></polyline>
    <polyline points="241.74 67.8 241.74 125.97 262.65 81.35 281.53 73.01" fill="none" stroke="#e0a01f" stroke-linecap="round" stroke-linejoin="round" stroke-width="2"></polyline>
    <polyline points="200.74 60.3 200.74 108.34 221.24 56.85 221.24 117.25 241.82 68.19 260.69 59.84" fill="none" stroke="#e0a01f" stroke-linecap="round" stroke-linejoin="round" stroke-width="2"></polyline>
    <polyline points="180.24 63.14 180.24 99.62 200.82 59.85 219.69 51.51" fill="none" stroke="#e0a01f" stroke-linecap="round" stroke-linejoin="round" stroke-width="2"></polyline>
    <polyline points="159.74 66.17 159.74 90.3 180.32 63.02 199.19 54.67" fill="none" stroke="#e0a01f" stroke-linecap="round" stroke-linejoin="round" stroke-width="2"></polyline>
  </g>
</svg>