<svg xmlns="http://www.w3.org/2000/svg" xmlns:xlink="http://www.w3.org/1999/xlink" version="1.1" id="back" x="0px" y="0px" width="235px" height="auto" viewBox="0 169.5 640 376" enable-background="new 0 169.5 640 376" xml:space="preserve" class="svg larger replaced-svg">
<title>restlet_illustration_tho</title>
    <path fill="#182D3D" d="M591.329,259.58l-13.079-40.24c-0.921-2.83-4.511-5.35-9.37-6.59l-69.21-17.63  c-2.443-0.615-4.963-0.878-7.48-0.78c-2.323,0.064-4.619,0.521-6.79,1.35l-56.12,22.61c-3.149,1.27-5,3.28-5.12,5.47h-0.22v18.86  l-4.65-14.3c-0.92-2.83-4.51-5.35-9.369-6.59l-69.21-17.63c-2.444-0.615-4.963-0.877-7.48-0.78c-2.323,0.064-4.619,0.521-6.79,1.35  l-56.12,22.61c-3.149,1.27-5,3.28-5.119,5.47h-0.221v25.82l-6.609-20.33c-0.92-2.83-4.511-5.35-9.37-6.59L179.82,214.1  c-2.443-0.615-4.962-0.878-7.479-0.78c-2.323,0.064-4.619,0.521-6.79,1.35l-56.12,22.61c-3.15,1.27-5,3.28-5.12,5.47h-0.22v34  l0.21,0.23c0.001,0.472,0.075,0.941,0.22,1.39l7.12,21.89l-51.84,20.9c-3.15,1.27-5,3.279-5.12,5.47h-0.22v34l0.21,0.229  c0,0.473,0.074,0.941,0.22,1.391L68,402.52c0.92,2.83,4.51,5.351,9.37,6.591l69.21,17.63c2.443,0.614,4.962,0.877,7.479,0.779  c2.323-0.063,4.619-0.52,6.79-1.35l56.12-22.61c3.86-1.56,5.74-4.22,4.94-6.999v-23.41l6.279,19.31c0.92,2.83,4.511,5.35,9.37,6.59  l69.21,17.63c2.443,0.615,4.962,0.878,7.48,0.78c2.323-0.063,4.618-0.521,6.789-1.35l3.591-1.45v11.859l0.21,0.23  c0,0.472,0.074,0.94,0.22,1.39l13.08,40.24c0.92,2.83,4.51,5.351,9.37,6.59l69.21,17.63c2.443,0.615,4.962,0.878,7.479,0.78  c2.328-0.072,4.628-0.539,6.801-1.38l56.119-22.61c3.86-1.56,5.74-4.22,4.94-7V431c0.273-0.862,0.273-1.788,0-2.65l-7.4-22.75  l51.32-20.67c3.86-1.56,5.74-4.22,4.94-7v-31.51c0.273-0.862,0.273-1.787,0-2.65l-7.101-21.83l52.73-21.239  c3.859-1.56,5.739-4.22,4.939-7v-31.47C591.712,261.352,591.656,260.426,591.329,259.58z M271.52,287.14l0.92,2.83l-0.92,0.37  V287.14z"></path>
    <g opacity="0.15">
	<path d="M518.35,360.32l-69.21-17.631c-2.443-0.614-4.962-0.877-7.48-0.779c-2.323,0.064-4.619,0.52-6.79,1.35l-56.12,22.61   c-3.939,1.59-5.819,4.33-4.899,7.149l13.08,40.24c0.92,2.83,4.51,5.351,9.37,6.59l69.21,17.631   c2.443,0.614,4.962,0.877,7.479,0.779c2.323-0.063,4.619-0.521,6.79-1.35l56.12-22.61c3.94-1.59,5.82-4.33,4.9-7.149l-13.08-40.25   C526.8,364.08,523.21,361.55,518.35,360.32z"></path>
      <path d="M568.88,276.13l-69.21-17.63c-2.443-0.615-4.963-0.877-7.48-0.78c-2.323,0.064-4.619,0.521-6.79,1.35l-56.12,22.61   c-3.939,1.59-5.819,4.33-4.899,7.15l13.08,40.24c0.92,2.83,4.51,5.35,9.369,6.59L516,353.279c2.443,0.615,4.962,0.879,7.479,0.781   c2.323-0.064,4.619-0.521,6.79-1.351l56.12-22.61c3.939-1.59,5.819-4.33,4.899-7.149l-13.08-40.24   C577.329,279.89,573.74,277.36,568.88,276.13z"></path>
      <path d="M409.93,285.15l-69.21-17.63c-2.443-0.615-4.963-0.877-7.48-0.78c-2.323,0.063-4.619,0.52-6.79,1.35L270.33,290.7   c-3.94,1.59-5.82,4.33-4.9,7.15l13.08,40.24c0.92,2.83,4.51,5.35,9.37,6.59l69.22,17.62c2.443,0.615,4.962,0.878,7.479,0.78   c2.323-0.064,4.619-0.521,6.79-1.35l56.12-22.61c3.94-1.591,5.82-4.33,4.9-7.149L419.3,291.73   C418.38,288.91,414.789,286.38,409.93,285.15z"></path>
      <path d="M249,295.1l-69.21-17.63c-2.443-0.615-4.963-0.877-7.48-0.78c-2.323,0.064-4.619,0.521-6.79,1.35l-56.12,22.61   c-3.939,1.59-5.819,4.33-4.899,7.15l13.12,40.2c0.92,2.83,4.51,5.35,9.37,6.59l69.21,17.631c2.443,0.614,4.962,0.877,7.479,0.779   c2.323-0.064,4.619-0.521,6.79-1.35l56.12-22.61c3.939-1.59,5.82-4.33,4.899-7.149L258.41,301.65   C257.48,298.86,253.89,296.34,249,295.1z"></path>
      <path d="M359.579,368.93L290.37,351.3c-2.443-0.614-4.963-0.878-7.48-0.78c-2.323,0.064-4.619,0.521-6.79,1.351L220,374.471   c-3.94,1.59-5.82,4.329-4.9,7.149l13.08,40.24c0.92,2.83,4.51,5.35,9.37,6.59l69.21,17.63c2.443,0.615,4.962,0.878,7.479,0.78   c2.323-0.064,4.619-0.521,6.79-1.351l56.12-22.609c3.94-1.591,5.82-4.33,4.9-7.15l-13.08-40.24   C368,372.689,364.44,370.17,359.579,368.93z"></path>
      <path d="M199.39,379l-69.21-17.63c-2.443-0.615-4.962-0.878-7.479-0.78c-2.323,0.064-4.619,0.521-6.79,1.35l-56.11,22.59   c-3.94,1.591-5.82,4.33-4.9,7.15L68,431.93c0.92,2.83,4.51,5.351,9.37,6.59l69.21,17.631c2.443,0.614,4.962,0.877,7.479,0.779   c2.323-0.063,4.619-0.521,6.79-1.35L216.95,433c3.939-1.59,5.819-4.33,4.899-7.15l-13.08-40.24   C207.84,382.76,204.25,380.23,199.39,379z"></path>
      <path d="M469.53,444.86l-69.21-17.63c-2.443-0.615-4.962-0.878-7.479-0.78c-2.323,0.063-4.619,0.521-6.79,1.35L329.93,450.4   c-3.94,1.59-5.82,4.33-4.9,7.149l13.08,40.24c0.92,2.83,4.51,5.35,9.37,6.59L416.69,522c2.443,0.615,4.962,0.878,7.48,0.78   c2.323-0.064,4.618-0.521,6.79-1.351l56.119-22.609c3.94-1.59,5.82-4.33,4.9-7.15L478.9,451.44   C478,448.62,474.39,446.09,469.53,444.86z"></path>
</g>
    <g>
	<path fill="#182D3D" d="M591.369,293.71v-32.77l-63.279-45.2l-55.61,0.79l-48.54,7.27v34l0.21,0.23   c0.001,0.472,0.075,0.94,0.22,1.39l13.08,40.24c0.92,2.83,4.51,5.35,9.37,6.59L516,323.87c2.443,0.614,4.962,0.878,7.479,0.78   c2.323-0.064,4.619-0.521,6.79-1.351l56.12-22.61C590.289,299.14,592.17,296.48,591.369,293.71z"></path>
      <path fill="#4D6982" d="M568.88,212.76l-69.21-17.63c-2.443-0.615-4.963-0.877-7.48-0.78c-2.323,0.064-4.619,0.52-6.79,1.35   l-56.12,22.6c-3.939,1.59-5.819,4.33-4.899,7.15l13.08,40.24c0.92,2.83,4.51,5.35,9.369,6.59L516,289.91   c2.443,0.615,4.962,0.877,7.479,0.78c2.323-0.064,4.619-0.521,6.79-1.35l56.12-22.61c3.939-1.59,5.819-4.33,4.899-7.15   l-13.08-40.24C577.329,216.52,573.74,214,568.88,212.76z"></path>
</g>
    <g>
	<path fill="#B78429" d="M432.43,302.73V270l-63.28-45.2l-55.61,0.79L265,232.82v34l0.21,0.23c0,0.472,0.074,0.941,0.22,1.39   l13.08,40.24c0.92,2.83,4.51,5.35,9.37,6.59l69.21,17.63c2.443,0.615,4.962,0.877,7.479,0.779c2.323-0.063,4.619-0.52,6.79-1.35   l56.12-22.61C431.35,308.16,433.22,305.5,432.43,302.73z"></path>
      <path fill="#F2BE61" d="M409.93,221.77l-69.21-17.63c-2.443-0.615-4.963-0.878-7.48-0.78c-2.323,0.064-4.619,0.521-6.79,1.35   l-56.119,22.61c-3.94,1.59-5.82,4.33-4.9,7.15l13.08,40.24c0.92,2.83,4.51,5.35,9.37,6.59l69.21,17.63   c2.443,0.615,4.962,0.877,7.479,0.78c2.323-0.064,4.619-0.521,6.79-1.35l56.12-22.61c3.94-1.59,5.82-4.33,4.9-7.15l-13.08-40.24   C418.38,225.54,414.789,223,409.93,221.77z"></path>
</g>
    <g>
	<path fill="#B78429" d="M540.85,377.9V345.13l-63.28-45.2l-55.61,0.79L373.42,308v34l0.21,0.23c0,0.472,0.074,0.94,0.22,1.39   l13.08,40.239c0.92,2.83,4.51,5.351,9.37,6.591l69.21,17.63c2.443,0.615,4.962,0.878,7.479,0.78   c2.323-0.064,4.619-0.521,6.79-1.351L535.9,384.9C539.77,383.33,541.64,380.67,540.85,377.9z"></path>
      <path fill="#F2BE61" d="M518.35,296.94l-69.21-17.63c-2.443-0.615-4.962-0.877-7.48-0.78c-2.323,0.063-4.619,0.52-6.79,1.35   l-56.12,22.61c-3.939,1.59-5.819,4.33-4.899,7.15l13.08,40.24c0.92,2.83,4.51,5.351,9.37,6.59l69.21,17.63   c2.443,0.615,4.962,0.878,7.479,0.78c2.323-0.063,4.619-0.521,6.79-1.351l56.12-22.609c3.94-1.59,5.82-4.33,4.9-7.15l-13.08-40.239   C526.8,300.71,523.21,298.18,518.35,296.94z"></path>
</g>
    <g>
	<path fill="#B78429" d="M271.52,312.69v-32.78l-63.28-45.2l-55.609,0.79l-48.54,7.27v34l0.21,0.23   c0.001,0.472,0.075,0.941,0.22,1.39l13.08,40.24c0.92,2.83,4.51,5.351,9.37,6.591l69.21,17.629c2.443,0.615,4.962,0.878,7.48,0.78   c2.323-0.063,4.618-0.521,6.79-1.35l56.119-22.61C270.44,318.12,272.31,315.45,271.52,312.69z"></path>
      <path fill="#F2BE61" d="M249,231.73L179.82,214.1c-2.443-0.615-4.962-0.877-7.479-0.78c-2.323,0.064-4.619,0.521-6.79,1.35   l-56.12,22.61c-3.939,1.59-5.82,4.33-4.9,7.15l13.08,40.24c0.92,2.83,4.511,5.35,9.37,6.59l69.21,17.63   c2.443,0.615,4.963,0.877,7.48,0.78c2.323-0.064,4.619-0.521,6.79-1.35l56.12-22.61c3.939-1.59,5.819-4.33,4.899-7.15l-13.08-40.24   C257.48,235.49,253.89,233,249,231.73z"></path>
</g>
    <g>
	<path fill="#182D3D" d="M382.07,386.52V353.74l-63.28-45.2l-55.609,0.79l-48.54,7.27v34l0.21,0.23   c0.001,0.472,0.075,0.941,0.22,1.391l13.08,40.239c0.92,2.83,4.511,5.35,9.37,6.59l69.21,17.63c2.443,0.615,4.962,0.878,7.48,0.78   c2.323-0.063,4.618-0.521,6.79-1.35l56.119-22.61C381,391.95,382.869,389.279,382.07,386.52z"></path>
      <path fill="#4D6982" d="M359.579,305.56l-69.209-17.63c-2.443-0.615-4.963-0.878-7.48-0.78c-2.323,0.064-4.619,0.521-6.79,1.35   L220,311.1c-3.94,1.59-5.82,4.33-4.9,7.15l13.08,40.24c0.92,2.83,4.51,5.35,9.37,6.59l69.21,17.63   c2.443,0.615,4.962,0.878,7.479,0.78c2.323-0.064,4.619-0.521,6.79-1.35l56.12-22.611c3.94-1.59,5.82-4.329,4.9-7.149l-13.08-40.24   C368,309.32,364.44,306.8,359.579,305.56z"></path>
</g>
    <g>
	<path fill="#182D3D" d="M221.89,396.58v-32.77l-63.28-45.201L103,319.4l-48.54,7.27v34l0.21,0.23c0,0.472,0.074,0.94,0.22,1.39   L68,402.52c0.92,2.83,4.51,5.351,9.37,6.591l69.21,17.63c2.443,0.615,4.962,0.878,7.479,0.779c2.323-0.063,4.619-0.52,6.79-1.35   l56.12-22.61C220.81,402,222.68,399.35,221.89,396.58z"></path>
      <path fill="#4D6982" d="M199.39,315.62L130.19,298c-2.443-0.615-4.962-0.877-7.479-0.78c-2.323,0.064-4.619,0.521-6.79,1.35   L59.8,321.16c-3.94,1.59-5.82,4.33-4.9,7.15L68,368.561c0.92,2.83,4.51,5.35,9.37,6.59l69.21,17.629   c2.443,0.615,4.962,0.879,7.479,0.781c2.323-0.064,4.619-0.521,6.79-1.351l56.12-22.61c3.94-1.59,5.82-4.33,4.9-7.149l-13.08-40.24   C207.84,319.39,204.25,316.86,199.39,315.62z"></path>
</g>
    <g>
	<path fill="#182D3D" d="M492,462.44V429.67l-63.28-45.199l-55.61,0.789l-48.54,7.27v34.001l0.21,0.229   c0.001,0.473,0.075,0.941,0.22,1.391l13.08,40.239c0.92,2.83,4.511,5.351,9.37,6.591l69.21,17.63   c2.443,0.614,4.963,0.877,7.48,0.779c2.349-0.068,4.669-0.538,6.86-1.39l56.119-22.61C490.949,467.87,492.82,465.21,492,462.44z"></path>
      <path fill="#4D6982" d="M469.53,381.48l-69.21-17.631c-2.443-0.615-4.962-0.877-7.479-0.779c-2.323,0.063-4.619,0.52-6.79,1.35   L329.93,387c-3.94,1.59-5.82,4.33-4.9,7.15l13.08,40.239c0.92,2.83,4.51,5.351,9.37,6.591l69.21,17.63   c2.443,0.614,4.962,0.877,7.48,0.779c2.323-0.063,4.618-0.521,6.79-1.35l56.119-22.61c3.94-1.59,5.82-4.33,4.9-7.149l-13.08-40.21   C478,385.25,474.39,382.721,469.53,381.48z"></path>
</g>
    <path fill="#FFFFFF" d="M501.659,236.8l-11.399,11l5,1.5l11.399-11L501.659,236.8z M507.409,242.52l-8.25,8l5,1.51l0.271-0.26  l4.859-4.68c0.087-0.102,0.202-0.175,0.33-0.21c1.18-0.22,2.391-0.196,3.561,0.07c0.714,0.107,1.338,0.539,1.689,1.17  c1.391-0.53,2.75-1,4.08-1.58c0.069-0.063,0.074-0.171,0.01-0.24c-0.003-0.003-0.006-0.007-0.01-0.01c-1.09-1.34-3.55-2-6.149-1.6  c-0.88,0.13-1.7,0.37-2.521,0.56c0.311-0.4,0.641-0.83,1-1.26c0.141-0.16,0.12-0.25-0.2-0.33c-0.319-0.08-0.84-0.25-1.26-0.37  L507.409,242.52z M492.89,229.94l1.62-1.56c0.533-0.418,1.245-0.528,1.88-0.29c0.649,0.17,0.85,0.41,0.62,0.76  c-0.104,0.142-0.221,0.272-0.351,0.39l-1.43,1.38l1.09,0.33c0.668-0.591,1.306-1.215,1.91-1.87c0.71-0.85-0.3-1.58-2.07-1.6h-0.76  l1.26-1.22l-1.09-0.33l-3.79,3.65L492.89,229.94z M492.15,227.09c0.76-0.71,0.83-0.64-0.42-1.12c-1.168-0.513-2.508-0.458-3.63,0.15  c-0.398,0.261-0.739,0.601-1,1c-0.38,0.59,0,1.18,1,1.51c0.588,0.166,1.186,0.296,1.79,0.39c0.108,0.028,0.222,0.028,0.33,0  c0.25-0.16,0.46-0.34,0.71-0.53c-1.59-0.05-2.391-0.29-2.57-0.75c-0.18-0.46,0.48-1.16,1.32-1.33c0.887-0.208,1.819,0.052,2.47,0.69  V227.09z M459.06,227.6l0.7-0.41c2.102-1.018,4.464-1.367,6.77-1c2.175,0.241,4.31,0.762,6.351,1.55c1.63,0.62,3.14,1.33,4.699,2  c0.29,0.12,0.33,0.22,0.141,0.4c-0.69,0.68-1.32,1.38-2,2.07l-0.271,0.29l-0.59-0.38c-1.93-1.274-4.04-2.252-6.26-2.9  c-0.62-0.176-1.252-0.31-1.89-0.4c-0.452-0.057-0.909-0.057-1.36,0c-1.27,0.15-1.83,0.9-1,1.45c0.773,0.472,1.575,0.896,2.4,1.27  c1.149,0.58,2.42,1.1,3.479,1.72c2.66,1.55,2.771,3.06,0.65,4.85c-1.5,1.26-3.67,1.89-6.57,1.74c-1.229-0.068-2.448-0.255-3.64-0.56  l-3.601-1.08c-1.914-0.631-3.779-1.403-5.58-2.31c-0.22-0.11-0.229-0.2-0.1-0.33c0.689-0.75,1.36-1.5,2-2.25  c0.13-0.14,0.229-0.29,0.37-0.46l0.399,0.27c1.793,1.28,3.765,2.291,5.851,3c1.06,0.389,2.16,0.657,3.279,0.8  c0.625,0.106,1.267,0.034,1.851-0.21c0.86-0.42,1-1,0.2-1.51s-1.53-0.8-2.3-1.19c-1.29-0.67-2.671-1.29-3.86-2  c-1.46-0.88-1.811-1.94-1.3-3.06c0.08-0.17,0.18-0.34,0.27-0.51L459.06,227.6z M479.61,245l-2.62-0.79  c-3.38-1.24-5.45-3.28-3.87-5.66c0.755-1.059,1.796-1.88,3-2.37c2.182-0.938,4.572-1.283,6.931-1c2.76,0.17,5.439,0.993,7.819,2.4  c2.181,1.4,2.57,3,1.42,4.63c-0.643,0.886-1.499,1.594-2.489,2.06c-2.933,1.323-6.22,1.639-9.351,0.9  C480.15,245.14,479.89,245.07,479.61,245z M486.61,241.48c0.278-0.399,0.517-0.824,0.71-1.27c0.3-0.93-0.51-1.7-2.18-2.2  c-1.511-0.501-3.15-0.44-4.62,0.17c-0.706,0.312-1.332,0.78-1.83,1.37c-1.28,1.5-0.16,2.84,2.78,3.32  c1.057,0.193,2.145,0.11,3.16-0.24c0.706-0.275,1.363-0.66,1.949-1.14L486.61,241.48z M473.32,223.75c0.13-1.32,0.24-2.65,0.42-4  c0.05-0.38-0.1-0.6-0.79-0.76c-0.278-0.097-0.581-0.097-0.859,0l-6.351,2.43l-0.38,0.16c0.646,0.44,1.49,0.464,2.16,0.06l0.14-0.06  c0.244-0.117,0.527-0.117,0.771,0c0.72,0.23,1.43,0.48,2.2,0.65c1,0.22,1.46,0.55,1.159,1.11c-0.02,0.03-0.02,0.07,0,0.1  c0.038,0.071,0.098,0.127,0.171,0.16l1.329,0.4c-0.029-0.07-0.02-0.15-0.01-0.23L473.32,223.75z M469,221.1l3.159-1.22L471.92,222  L469,221.1z M481.19,224c0.47-1-0.93-1.81-2.88-1.62H478c0.1-0.38,0-0.45-0.771-0.55l-3.31,3.2l1.1,0.33l1-0.93l0.19,0.17  c1.133,0.818,2.619,0.963,3.89,0.38C480.565,224.788,480.949,224.441,481.19,224z M479.19,224.46  c-0.463,0.248-1.002,0.312-1.51,0.18c-0.427-0.012-0.812-0.258-1-0.64c0.055-0.222,0.173-0.424,0.34-0.58  c0.484-0.519,1.221-0.716,1.9-0.51c0.729,0.08,1.229,0.45,1,0.83c-0.188,0.286-0.441,0.523-0.74,0.69L479.19,224.46z M485.68,226.53  c0.34-0.34,0.72-0.67,1-1c0.28-0.33,0.29-0.74-0.271-1c-0.893-0.418-1.864-0.64-2.85-0.65c-0.107-0.004-0.213,0.027-0.3,0.09  c-0.065,0.127-0.115,0.261-0.15,0.4c0.61,0.1,1.18,0.15,1.69,0.27c0.93,0.23,1,0.5,0.319,0.92c-0.166-0.062-0.336-0.112-0.51-0.15  c-0.687-0.139-1.382-0.239-2.08-0.3c-0.678-0.104-1.354,0.197-1.729,0.77c-0.15,0.39,0.189,0.71,1,0.95  c0.183,0.056,0.37,0.096,0.56,0.12l1.46,0.13v0.11c0.08,0.3,0.141,0.33,0.7,0.29l0.89-0.07c-0.409-0.41-0.01-0.65,0.25-0.91  L485.68,226.53z M483.89,226.58c-0.559,0.043-1.117-0.075-1.61-0.34c-0.104-0.09-0.117-0.248-0.027-0.353  c0.009-0.01,0.018-0.019,0.027-0.028c0.231-0.143,0.498-0.219,0.771-0.22c0.569,0,1.13,0.18,1.77,0.29  c-0.107,0.119-0.225,0.229-0.35,0.33c-0.129,0.204-0.361,0.316-0.601,0.29L483.89,226.58z M502.38,232.14  c-0.647-0.051-1.283-0.206-1.881-0.46c-0.64-0.31-0.77-0.74-0.279-1.13l3.5,1c0.188-0.22,0.358-0.454,0.51-0.7  c0.29-0.58-0.05-1.09-0.9-1.42c-0.962-0.364-2.02-0.392-3-0.08c-0.769,0.15-1.403,0.693-1.67,1.43  c-0.039,0.588,0.355,1.118,0.931,1.25c0.776,0.34,1.604,0.55,2.449,0.62c0.134,0.014,0.268-0.006,0.391-0.06  c0.17-0.135,0.331-0.282,0.479-0.44L502.38,232.14z M502.52,229.86c0.63,0.19,0.78,0.57,0.36,1l-2.21-0.66  c0.511-0.418,1.196-0.557,1.83-0.37L502.52,229.86z M542.59,259.56c0.076,0.045,0.149,0.095,0.22,0.15h-0.69  c-1.84,0.17-3.71,0.23-5.59,0.21c-0.439,0.045-0.881-0.072-1.24-0.33c-0.108-0.083-0.222-0.161-0.34-0.23l-3.28-2.09l-3.22-2  L523,251.82l-2.69-1.71c-0.095-0.044-0.164-0.128-0.19-0.23l1.25,0.53l8.271,3.55l0.13,0.06l0.38,0.19l2,0.88l1.79,0.77l0,0  l2.83,1.19l0.37,0.16l1.09,0.49L542.59,259.56z M552.44,256.41l1.85,0.44l-0.38,0.18c-1.917,0.763-3.894,1.368-5.91,1.81  c-0.265,0.079-0.549,0.058-0.8-0.06l-0.22-0.09l-0.229-0.09l-2.75-1l-2.841-1.07l-3.439-1.31l-2.561-0.95l-0.42-0.16l-1.239-0.49  l-2.591-1l-4.659-1.77c-1.641-0.62-3.28-1.25-4.881-1.91l1.261,0.29l5.109,1.24l5.09,1.21l2.28,0.56l4.16,1l1.19,0.27l1.189,0.28  l1.29,0.33l3.58,0.86l1.93,0.47l1,0.23L552.44,256.41z M560.19,244.82l2.06-0.11l2.11-0.11c0,0.22,0,0.41,0.05,0.61  c0.067,1.235-0.145,2.469-0.62,3.61c-0.08,0.189-0.21,0.25-0.58,0.22c-0.899-0.07-1.81-0.12-2.71-0.17l-5.659-0.32l-4.83-0.27  l-2.11-0.11l-2.11-0.11h-0.38l-1.13-0.08l-4.9-0.26l-1-0.07l-3.77-0.2l-11.72-0.67c-0.124-0.001-0.245-0.025-0.36-0.07l0.78-0.05  l14.47-0.71h0.32h0.43l5.5-0.27l0,0l5.85-0.29l4.721-0.23L560.19,244.82z M530.51,233.34l-2.15,1.63l-1.79,1.36l-3.09,2.32  l-3.22,2.35l-2.09,1.58c-0.08,0.056-0.173,0.091-0.271,0.1l2.09-2.54c0.73-0.89,1.44-1.79,2.181-2.69c0.5-0.61,1-1.21,1.529-1.81  l2.811-3.44l0.55-0.68l0.19-0.22c0.089-0.071,0.196-0.116,0.31-0.13c2.067-0.351,4.155-0.564,6.25-0.64h0.33l-2.29,1.72  L530.51,233.34z M562.11,251.43l-7.16-0.63l-4.399-0.4l0,0l-5.061-0.45l-0.76-0.09l-5.86-0.51l-0.489-0.06L524.78,248l-2.63-0.23  c1.76,0.41,3.53,0.77,5.311,1.13l7.729,1.57l3.09,0.6l0,0l3.4,0.71l2.859,0.56l1.381,0.29l3.739,0.74l4,0.8l2.95,0.61  c1.24,0.25,1.25,0.25,2-0.29c0.54-0.38,1.07-0.76,1.601-1.14l1.71-1.65L562.11,251.43z M550.369,250.61L550.369,250.61z   M553.369,239.3l1.54-0.31l2.58-0.5l2.88-0.58c1.365,1.152,2.476,2.575,3.261,4.18l-2,0.15l-1.921,0.15l-1.56,0.13l-4.38,0.37  l-5.24,0.43l-3.52,0.3l-1.65,0.14l-5.57,0.46l0,0l-3.39,0.3l-11.66,1c-0.232,0.02-0.467,0.02-0.7,0l2.051-0.41l8.479-1.68l4.38-0.85  l5.11-1l2.34-0.46l2.34-0.46l0,0l0.71-0.14l4.351-0.86L553.369,239.3z M539.72,237.3l3.899-1.49l2.45-0.94l0.21,0.2l-0.21-0.2  l3.5-1.34l1.55-0.64l0.73,0.22c0.82,0.34,1.68,0.65,2.45,1c1,0.48,1.949,1,2.909,1.5c0.094,0.058,0.185,0.122,0.271,0.19l-3.94,0.92  l-3.93,0.94l-3,0.71l-4.35,1l-2.11,0.52l-4.17,1l-5.75,1.37l-8.5,2c-0.187,0.048-0.378,0.075-0.57,0.08l1.931-0.75l10.64-4.06  l0.35-0.11l4.181-1.62L539.72,237.3z M528.19,257.7l2.439,1.74l-0.069,0.06c-1.502-0.178-2.991-0.449-4.46-0.81  c-0.44-0.007-0.861-0.186-1.17-0.5c-2.2-2.5-4.41-5-6.62-7.49c0,0,0,0,0-0.09l0.49,0.33l9,6.48l0.189,0.14L528.19,257.7z   M524.11,241.6c-1.43,0.62-2.85,1.25-4.35,1.84l0.46-0.32l8.319-5.49c0.141-0.09,0.311-0.18,0.46-0.26l0,0l1.66-1.11l1.67-1.11  c0.44-0.29,0.91-0.58,1.36-0.87L537,232l2-1.33c0.118-0.048,0.242-0.078,0.369-0.09c2.354,0.169,4.693,0.503,7,1  c0.102,0.028,0.202,0.062,0.301,0.1l-3,1.3l-2.67,1.2l-2.211,1l-1.52,0.64l-0.51,0.21l-1.061,0.479l-1.069,0.48l-3.4,1.479  L524.11,241.6z M516.27,251l4.45,5.94h-0.11l-0.66-0.25c-0.179-0.086-0.362-0.163-0.55-0.23c-1.105-0.196-1.96-1.079-2.12-2.19  c-0.3-1-0.689-2-1-3.07C516.246,251.138,516.242,251.064,516.27,251z M516.07,242c-0.055,0.079-0.137,0.136-0.229,0.16l0.31-1.14  l1.17-4.31c0.021-0.056,0.048-0.109,0.08-0.16c0.22-0.84,0.43-1.67,0.65-2.51c0.032-0.074,0.094-0.132,0.17-0.16  c1.421-0.651,2.896-1.176,4.41-1.57c-0.11,0.18-0.221,0.37-0.351,0.55l-2.6,3.83l-0.09,0.11l-0.101,0.11l-0.77,1.2l-0.26,0.4  c-0.801,1.22-1.601,2.38-2.4,3.55L516.07,242z M514.64,236l-0.93,6.06h-0.11l-0.3-1.33c-0.22-1-0.46-2-0.66-3  c-0.028-0.152,0.024-0.307,0.14-0.41c0.54-0.47,1.12-0.93,1.681-1.39L514.64,236z M514,251.11l0.609,2.71h-0.13  c-0.41-0.33-1-0.6-0.85-1.09c0.137-0.535,0.227-1.08,0.27-1.63H514V251.11z M510.61,239.76l0.88,2.521h-0.1  c-0.463-0.552-0.884-1.137-1.26-1.75c0.01-0.294,0.132-0.573,0.34-0.78h0.14V239.76z"></path>
    <path fill="#FFFFFF" d="M120.76,325.55l-0.76,2.16c0,0.069,0,0.149,0.17,0.19l3.67,1.1c0.28,0.08,0.2,0.311-0.11,0.33l-4.13,0.23  c-0.111-0.008-0.219,0.045-0.28,0.14l-0.75,2.159c-0.177,0.167-0.452,0.167-0.63,0l-1.8-2c-0.095-0.078-0.218-0.113-0.34-0.1  l-4.13,0.23c-0.32,0-0.51-0.19-0.271-0.311l3-1.479c0.101-0.05,0.13-0.13,0.07-0.2l-1.8-2c-0.141-0.16,0.17-0.311,0.46-0.221  l3.67,1.101c0.126,0.046,0.264,0.046,0.39,0l3-1.479C120.43,325.26,120.81,325.38,120.76,325.55z M89.88,328.46  c1.85,2.351,6.17,3.28,5,4.38c-0.601,0.58-2.4,0.27-3,0.07c-5.41-1.62-2.53-4-4.62-4.58c-0.729-0.23-1.525-0.056-2.09,0.46  c-0.811,0.78-1.82,2.61-0.84,3.45c1.907,1.242,3.99,2.193,6.18,2.82c6.85,2.06,11.78,0.879,13.64-0.92  c1.19-1.15,1.08-2.19-0.1-3.371c-2.19-2.209-6.55-3.09-5.3-4.31c0.812-0.485,1.805-0.56,2.68-0.2c3.061,0.92,2.39,3,4.37,3.6  c0.968,0.303,2.022,0.107,2.82-0.52c0.824-0.824,0.824-2.16,0-2.984c-0.194-0.194-0.426-0.35-0.681-0.455  c-0.62-0.19-1.25-0.09-1.66-0.221c-1.291-0.677-2.628-1.265-4-1.76c-5.71-1.71-10.699-0.62-12.35,1c-1.18,1.08-0.93,2.38-0.06,3.54  H89.88z M117.35,333.46c0.33-0.319,0.67-0.681-0.21-0.95c-0.29-0.09-8.24-1.869-9.37-0.779c-0.72,0.689,1,1,0.67,1.59  c-0.962,1.32-2.176,2.438-3.569,3.289c-0.851,0.371-2.08,0-2.66,0.591c-0.38,0.37-0.8,1,4.26,2.55c1.32,0.4,5.06,1.52,6.14,0.47  c0.841-0.81-1.58-0.67,0.301-2.489L117.35,333.46z M117.06,339c-2,1.92-3.37,1-4.09,1.71s2.64,1.84,3.79,2.181  c4,1.209,5.26,0.879,5.68,0.479c0.57-0.55-0.319-0.7,1.15-2.11l1.29-1.24c0.718-1,1.976-1.461,3.17-1.16  c1.68,0.5,0.1,1.841-0.47,2.391l-0.91,0.87c-1.8,1.851-2.61,0.771-3.48,1.569c-0.47,0.42-0.68,0.92,3.761,2.25  c1.06,0.32,4.6,1.36,5.59,0.41c0.59-0.569-0.801-0.56,1.149-2.449l1-1c0.719-1.001,1.976-1.461,3.17-1.16  c1.681,0.5,0.19,1.75-0.47,2.39l-1.43,1.38c-0.92,0.891-1.94,0.57-2.521,1.131c-0.83,0.799,2.471,1.93,3.45,2.219  c1.15,0.341,4.55,1.301,5.55,0.341c0.46-0.45-0.55-0.851,0.37-1.74l3.351-3.239c1.56-1.5,0.649-2.82-2.15-3.66  c-1.387-0.377-2.828-0.51-4.26-0.391c-0.772,0.115-1.55,0.186-2.33,0.21c-0.62-0.19,0.77-1.56-2.73-2.61  c-1.438-0.426-2.944-0.578-4.439-0.449c-0.761,0.13-1.529,0.199-2.3,0.21c-0.62-0.19,0-0.671,0.229-0.86  c0.23-0.189,0.62-0.68-0.11-0.9c-0.06,0-7.8-1.779-9-0.64c-0.409,0.4,0,0.511,0.221,0.79c0.22,0.28,0.25,0.62-0.771,1.6L117.06,339z   M146.72,348.779c-1.76,1.701-2.34,2.111-3,2.351c-1.15,0.44-2.09-0.18-2.8,0.511c-0.71,0.689,1.5,2.459,5.439,3.64  c1.15,0.34,3.94,1,4.83,0.18c0.891-0.819-1.43-0.93-0.22-2.101c0.248-0.285,0.628-0.418,1-0.35c0.828,0.523,1.71,0.955,2.63,1.29  c4.29,1.29,9.36-0.069,11.49-2.12c1.86-1.8,1.88-4.42-2-5.58c-1.749-0.389-3.539-0.561-5.33-0.51c-0.29-0.09-0.1-0.31,0-0.42  c0.35-0.34,0.36-0.5-0.35-0.71c-2.181-0.649-9.061-1.67-10.141-0.63c-0.91,0.87,0.891,1.15,1.061,1.47  c0.069,0.12-0.12,0.53-1.79,2.14L146.72,348.779z M158.41,350.42c-0.97,1.098-2.48,1.544-3.891,1.15  c-1-0.311-1.31-0.631-0.779-1.141c2.89-2.789,3.479-2.92,4.539-2.6c1.851,0.54,0.881,1.84,0.12,2.58L158.41,350.42z M177.56,353.42  c2.271-2.189,4.4-3.77,4.771-4.12c0.37-0.35,0.59-0.87-0.41-1.17c-0.41-0.12-8.391-2.101-9.78-0.76c-0.91,0.87,1.24,1,0.51,2.26  c-0.683,0.913-1.46,1.751-2.319,2.5c-1.152,1.19-2.426,2.255-3.801,3.181c-0.939,0.459-2-0.121-2.56,0.42  c-1.13,1.09,3.07,2.25,4.39,2.649c1.32,0.399,4.771,1.53,5.841,0.511c0.67-0.641-0.931-0.781-0.681-1.431  c0.262-0.399,0.582-0.757,0.95-1.06L177.56,353.42z M191.56,360.49c1.029,0.429,2.216,0.191,3-0.6c1.19-1.15,1.07-3.82-3.93-5.32  c-4.41-1.32-10-0.76-12.49,1.6c-2.05,2-1.38,4.801,3.91,6.38c2.65,0.79,7.69,1.181,8.91,0c0.251-0.271,0.234-0.695-0.037-0.946  c-0.088-0.082-0.196-0.139-0.313-0.164c-0.619-0.189-2.42,0.181-4.63-0.479c-1.38-0.41-2.63-1.63-1.83-2.399  c0.31-0.18,0.691-0.18,1,0L191.56,360.49z M187.56,357.35c-0.76-0.229-1.89-0.41-1.32-1c0.818-0.571,1.85-0.748,2.811-0.479  c1.09,0.33,1.29,1,0.72,1.5c-0.569,0.5-1.49,0.19-2.29-0.04L187.56,357.35z"></path>
    <path fill="#FFFFFF" d="M375.72,414.53c-0.689,0.159-1.412-0.058-1.9-0.57L365,398.14c-0.25-0.439,0.199-0.87,1-1l29.649-4.27  c0.689-0.159,1.412,0.058,1.9,0.569l0.95,1.701c0.25,0.439-0.2,0.869-1,1l-25,3.6l7.46,13.34c0.25,0.44-0.2,0.87-1,1L375.72,414.53z   M382.909,421.6c-0.667,0.305-1.433,0.305-2.1,0l-2.18-1.13c-0.591-0.319-0.601-0.83,0-1.13l44.22-23.189  c0.667-0.305,1.433-0.305,2.1,0l2.181,1.13c0.59,0.319,0.6,0.83,0,1.13L382.909,421.6z M410.09,424.84  c-0.689,0.16-1.412-0.057-1.9-0.57l-0.95-1.699c-0.25-0.44,0.2-0.87,1-1l25-3.601l-7.46-13.34c-0.25-0.439,0.2-0.87,1-1l3.181-0.46  c0.689-0.159,1.412,0.058,1.899,0.57l8.851,15.819c0.25,0.44-0.2,0.87-1,1L410.09,424.84z"></path>
    <g id="g10302">
	<path id="path3265" fill="#FFFFFF" d="M325.909,252.34c0,0-3.35,0,0.74,1.58c4.556,1.802,9.299,3.09,14.14,3.84   c0.842,0.743,1.745,1.413,2.7,2c-16.1-1-29.41-9-17.59-7.46"></path>
      <path id="path3267" fill="#FFFFFF" d="M328.26,248c0,0-4,0.25,0.12,1.79c5.917,2.253,12.049,3.899,18.3,4.91   c0.465,0.709,1.097,1.292,1.84,1.7c-18.3-2.33-33.6-9.83-20.27-8.4"></path>
      <path id="path3269" fill="#FFFFFF" d="M348.43,245.62c1.22,2.9-4.65,3.42-4.65,3.42s10.46,0.25,9.561-3.63   c-0.84-3.62-2.21-5.71,16.92-5.75c0,0-25.94-3.88-21.82,6"></path>
      <path id="path3271" fill="#FFFFFF" d="M352.14,263.91c0,0,1,1.38-3.57,0.82c-8.78-1.07-33-7.87-38.08-11.36   c-1.819-1.26,3.42-0.67,5-0.4c0.827,0.124,1.643,0.311,2.44,0.56c-1.641-1.771-19.11-3.23-10.19,0.53   c24.32,10.25,49.63,13.56,44.41,9.86"></path>
      <path id="path3273" fill="#FFFFFF" d="M335.18,244.94c0,0-13.69-2.14-6.42,0.76c5.292,1.873,10.684,3.451,16.149,4.73   c5.25,1.29,10.78,2.33,10.78,2.33s-2.18-0.14-3.93-0.06c-14.08-2-37.07-9.94-28.42-9.61c4.016,0.084,8.001,0.71,11.85,1.86"></path>
      <path id="path3275" fill="#FFFFFF" d="M350.369,257.82c16,0.36,13.631-4.64,9.141-5.41c-1.101-0.19-1.641-0.23-1.641-0.23   c0.497-0.121,1.011-0.159,1.521-0.11c9.52,0.93,9.67,8.57-9.44,5.85c0.146-0.017,0.291-0.05,0.431-0.1"></path>
      <path id="path3277" fill="#FFFFFF" d="M369.26,230c0,0,3.189,5.7-16.101,7.21c-15.47,1.21-9.739,6.27-10.279,9.92   c-3.24-4.88-5.17-8.89,0.47-10.4c8.28-2.21,22.75-0.15,25.91-6.74"></path>
      <path id="path3279" fill="#FFFFFF" d="M320.3,260.86c11.609,4,30.72,8.93,34.229,6.09c0,0-2,0.87-12-1   c-10.488-1.97-20.763-4.947-30.68-8.89c0,0,0.85,1.12,8.479,3.76"></path>
</g>
    <g>
	<path fill="#FFFFFF" d="M264.85,326c0.099,1.191,0.978,2.172,2.15,2.4c1.966,0.746,4.188,0.196,5.58-1.381l8.939-8.629l5.79,1.74   l-9.17,8.87c-2.66,2.57-7.38,3.91-13,2.221c-3.91-1.171-5.67-2.74-5.76-4.881L264.85,326z"></path>
      <path fill="#FFFFFF" d="M293.12,321.87l7.189,2.159c7.82,2.351,10.729,5.871,6,10.441c-4.729,4.569-12,5.209-19.43,3l-7.55-2.261   L293.12,321.87z M288.74,334.811c4.301,1.289,8.37,1.069,11.671-2.11c3.3-3.181,1.38-5-2.921-6.33l-1.09-0.33l-8.75,8.44   L288.74,334.811z"></path>
      <path fill="#FFFFFF" d="M317.909,329.311l5.79,1.689l-5.64,5.45h0.12l13.27-3.16l6.3,1.89l-13.199,3L325.4,349l-6.33-1.9   l-0.37-7.459l-5.08,1.149l-3.699,3.569l-5.79-1.739L317.909,329.311z"></path>
</g>
    <g>
	<path fill="#FFFFFF" d="M124.74,246.2l1.699,0.19c4.55,0.5,9.101,1,13.641,1.49c4.54,0.49,9.22,1.1,13.83,1.66h0.26   c0.045-0.965-0.349-1.898-1.07-2.54c-0.37-0.45-0.8-0.88-1.2-1.32c-0.04-0.036-0.07-0.08-0.09-0.13c1.681,1,3.391,1.9,4.08,3.24   c0.369-0.886,0.975-1.654,1.75-2.22c0.166-0.136,0.34-0.263,0.521-0.38c-0.341,1-0.73,2-0.19,3l1.29-0.17   c1.597-0.25,3.169-0.634,4.7-1.15c1.613-0.543,3.195-1.174,4.74-1.89h0.1c-0.424,0.592-0.933,1.118-1.51,1.56   c-0.645,0.552-1.361,1.013-2.13,1.37h1.659c2.32,0,4.641,0.05,7,0.17c4.074,0.207,8.113,0.54,12.12,1c5,0.6,9.88,1.38,14.7,2.31   c6.106,1.173,12.087,2.506,17.94,4h0.14c-0.85,0.32-1.71,0.64-2.55,1c-0.159,0.06-0.301,0.16-0.41,0.29   c-0.144,0.191-0.273,0.391-0.39,0.6c-0.29,0.479-0.591,1-0.88,1.439c-0.131,0.21-0.12,0.22-0.521,0.2h-0.21l-2.14-0.43   c-3.74-0.72-7.471-1.46-11.221-2.15c-6.229-1.15-12.529-2.18-18.859-3.16c-6.561-1.02-13.153-1.974-19.78-2.86   c-4.771-0.63-9.55-1.26-14.35-1.84c-6.12-0.73-12.25-1.41-18.381-2.11l-2.18-0.23c-0.831-0.004-1.629-0.326-2.229-0.9h0.159   L124.74,246.2z"></path>
      <path fill="#FFFFFF" d="M240.36,262.75c1,0.36,2,0.71,3.051,1.09c1.63,0.6,3.229,1.22,4.72,1.92   c0.493,0.227,0.974,0.467,1.439,0.72c0.617,0.266,1.146,0.699,1.53,1.25l0.11,0.47c-0.45,1.79-2.601,2.82-5.54,3.47   c-1.808,0.362-3.646,0.54-5.49,0.53c-0.76,0-1.53,0-2.29,0h-0.26l-0.08-0.12c-0.55-1-1.1-2.08-1.63-3.13   c-0.25-0.49-0.47-1-0.7-1.48c-0.229-0.479-0.35-0.8-0.52-1.2c-0.171-0.4-0.261-0.7-0.391-1c1.431,0.4,2.87,0.79,4.28,1.21   c1.24,0.36,2.46,0.76,3.72,1.12l-0.21-0.08c-2.45-0.88-5-1.69-7.56-2.44l-0.17-0.06l1.21-0.44l2.58-0.92l2.08-0.73   C240.292,262.879,240.333,262.818,240.36,262.75z"></path>
      <path fill="#FFFFFF" d="M212.69,265.74c0.681,1.169,1.621,2.165,2.75,2.91l-1.26-0.09c-2.331-0.224-4.646-0.595-6.93-1.11   c-2.357-0.447-4.565-1.479-6.42-3l-0.271-0.23h-0.069c0.702,1.17,1.689,2.144,2.869,2.83c-3.779-0.75-7-1.9-9-3.81   c0.43,0.878,1.06,1.642,1.841,2.229h-0.261c-3.859-0.45-7.68-1-11.38-1.75c-3.115-0.588-6.172-1.458-9.13-2.6   c-3.162-1.166-6.027-3.017-8.39-5.42c-0.189-0.209-0.367-0.43-0.53-0.66c-0.16-0.22-0.29-0.44-0.45-0.7   c-0.29,2.82,1.71,5.08,5.87,6.84c-2.15-0.374-4.253-0.984-6.27-1.82c-1.638-0.756-3.157-1.747-4.511-2.94   c0.141,1.17,0.7,2.23,2.71,2.95h-0.26c-2.394-0.368-4.635-1.408-6.46-3c-0.9-0.823-1.586-1.853-2-3c-0.2-0.56-0.31-1.12-0.47-1.68   v-0.17c-1.36,0.875-2.926,1.378-4.54,1.46c1.34-0.56,2.77-1.07,3.45-2l1.59,0.19c10.58,1.333,21.09,2.81,31.53,4.43   c6.706,1.06,13.373,2.207,20,3.44c2.17,0.41,4.319,0.84,6.489,1.27l-1.46,2.44c-0.016,0.025-0.041,0.043-0.069,0.05   c-0.381,0-0.2,0.12,0,0.18c-0.038,0.034-0.062,0.08-0.07,0.13c0.05,0.12,0.14,0.23,0.21,0.35c0.063,0.102,0.117,0.208,0.16,0.32   c0,0.13,0,0.26,0.09,0.39c0.13,0.31,0.28,0.61,0.42,0.92L212.69,265.74z"></path>
      <path fill="#FFFFFF" d="M234.32,265.18c0.131,0.35,0.25,0.7,0.391,1c0.14,0.3,0.34,0.8,0.52,1.2c0.181,0.4,0.45,1,0.7,1.48   c0.53,1,1.09,2.09,1.63,3.13l0.08,0.12c-1.795-0.064-3.584-0.231-5.36-0.5c-1.159-0.18-2.31-0.37-3.449-0.58   c-1.33-0.25-2.67-0.5-4-0.8c-1.94-0.45-3.851-0.94-5.771-1.41l-0.2-0.07h0.36c0.114,0.04,0.24-0.001,0.31-0.1l1-1.66   c0.681-1.12,1.37-2.24,2-3.36c0.25-0.42,0.48-0.84,0.721-1.26c1.229,0.28,2.46,0.55,3.67,0.85c2.43,0.6,4.84,1.22,7.25,1.83   L234.32,265.18z"></path>
      <path fill="#FFFFFF" d="M240.36,262.75c-0.033,0.028-0.07,0.052-0.109,0.07l-2.08,0.73l-2.58,0.92l-1.21,0.44   c-1.58-0.44-3.15-0.89-4.74-1.31c-3.06-0.82-6.18-1.56-9.33-2.27c-2.14-0.48-4.29-0.94-6.439-1.41h-0.141h0.21   c0.41,0,0.4,0,0.521-0.2c0.29-0.48,0.58-1,0.88-1.44c0.116-0.209,0.247-0.409,0.39-0.6c0.11-0.13,0.251-0.23,0.41-0.29   c0.84-0.33,1.7-0.65,2.55-1l3,0.76c3.66,0.954,7.261,1.954,10.801,3c2.13,0.65,4.21,1.34,6.31,2   C239.3,262.38,239.82,262.57,240.36,262.75z"></path>
      <path fill="#FFFFFF" d="M223.32,262.47c-0.239,0.42-0.46,0.84-0.72,1.26c-0.68,1.12-1.359,2.24-2,3.36l-1,1.66   c-0.069,0.099-0.195,0.14-0.31,0.1h-0.36c-1.505-0.352-2.945-0.936-4.27-1.73c-0.62-0.4-1.15-0.82-1.721-1.24l-0.13-0.11h-0.06   l-0.311-0.66c-0.14-0.31-0.29-0.61-0.42-0.92c-0.05-0.13,0-0.26-0.09-0.39c-0.043-0.111-0.097-0.218-0.16-0.32   c-0.069-0.12-0.149-0.23-0.21-0.35c0.008-0.05,0.032-0.096,0.07-0.13c-0.18-0.07-0.351-0.14,0-0.18   c0.029-0.006,0.055-0.024,0.07-0.05l1.46-2.44c1.34,0.27,2.68,0.54,4,0.82l5.56,1.21L223.32,262.47z"></path>
</g>
    <g>
	<g opacity="0.5">
		<path fill="#FFFFFF" d="M503.289,345.54c-0.449,0-0.92-0.11-1.409-0.181c-0.917-0.15-1.823-0.364-2.71-0.639    c-1.027-0.275-2.01-0.693-2.92-1.24c-0.548-0.315-0.981-0.795-1.24-1.371c-0.169-0.498-0.11-1.047,0.16-1.5    c0.519-0.771,1.122-1.482,1.8-2.119l7.58-7.32l5.14,1L507,334.76l5.68,1.7l-2.13,2.05l-5.681-1.699l-3.17,3.06    c-0.589,0.501-1.028,1.155-1.27,1.89c0,0.414,0.543,0.78,1.63,1.1c1.084,0.318,2.195,0.529,3.32,0.631L503.289,345.54z     M479.89,322.109l-13.13,12.681l5.06,1.521l13.57-13.101L479.89,322.109z M495.27,337.109c-0.16,0.154-0.344,0.317-0.55,0.49    l-0.22,0.18l-10.83-3.25l-0.24,0.311c-0.463,0.465-0.463,1.216,0,1.68c0.771,0.717,1.721,1.215,2.75,1.44    c0.884,0.266,1.781,0.479,2.689,0.64c0.787,0.146,1.582,0.244,2.381,0.291l-1.551,2.299c-0.326,0-0.736-0.033-1.229-0.1    s-1.026-0.146-1.601-0.24c-0.573-0.1-1.173-0.223-1.8-0.369c-0.626-0.146-1.236-0.307-1.83-0.48    c-1.249-0.338-2.441-0.856-3.54-1.54c-0.73-0.44-1.326-1.073-1.72-1.83c-0.293-0.63-0.314-1.353-0.06-2    c0.322-0.765,0.811-1.447,1.43-2c0.843-0.812,1.825-1.466,2.9-1.93c1.076-0.476,2.208-0.812,3.369-1    c1.161-0.186,2.338-0.239,3.511-0.16c1.114,0.069,2.218,0.265,3.29,0.58c2.366,0.714,3.826,1.673,4.38,2.88    c0.553,1.207,0.04,2.573-1.54,4.1L495.27,337.109z M485.55,332.88l6.149,1.851c0.118-0.154,0.215-0.322,0.29-0.5    c0.09-0.232,0.09-0.488,0-0.721c-0.098-0.27-0.271-0.506-0.5-0.68c-0.366-0.266-0.78-0.459-1.22-0.57    c-0.493-0.151-1.004-0.238-1.52-0.26c-0.456-0.017-0.913,0.021-1.36,0.109c-0.404,0.082-0.798,0.213-1.17,0.391    c-0.233,0.111-0.46,0.235-0.681,0.37L485.55,332.88z"></path>
	</g>
      <path fill="#FFFFFF" d="M471.53,326.83l2.13-2.051l-5.68-1.699l2.66-2.57l-5.14-1L463.9,321c-0.34,0.318-0.795,0.484-1.26,0.46   c-1.07-0.128-2.114-0.415-3.101-0.851c-0.54-0.209-1.14-0.459-1.68-0.709c-0.899-0.396-1.825-0.73-2.77-1   c-1.796-0.583-3.687-0.816-5.57-0.69c-1.424,0.047-2.787,0.584-3.86,1.52c-0.386,0.328-0.674,0.758-0.83,1.24   c-0.096,0.374-0.046,0.771,0.141,1.11c0.24,0.392,0.557,0.732,0.93,1c0.491,0.386,1.002,0.746,1.53,1.08   c0.558,0.342,1.083,0.733,1.57,1.17c0.3,0.3,0.343,0.553,0.13,0.76c-0.316,0.297-0.736,0.459-1.17,0.45   c-0.681-0.056-1.353-0.194-2-0.41c-0.806-0.24-1.591-0.541-2.351-0.899c-0.71-0.334-1.396-0.718-2.05-1.15l-2.91,1.8   c0.541,0.369,1.105,0.704,1.69,1c1.118,0.543,2.282,0.985,3.479,1.32c1.935,0.635,3.965,0.933,6,0.88   c1.473,0.008,2.896-0.526,4-1.5c0.339-0.303,0.614-0.67,0.811-1.08c0.131-0.32,0.131-0.68,0-1c-0.214-0.447-0.524-0.84-0.91-1.15   c-0.604-0.513-1.247-0.98-1.92-1.399c-0.4-0.261-0.733-0.483-1-0.671c-0.188-0.143-0.363-0.303-0.521-0.479   c-0.098-0.089-0.149-0.218-0.14-0.35c0.067-0.155,0.166-0.295,0.29-0.41c0.474-0.454,1.45-0.454,2.93,0c0.8,0.239,2.36,0.94,2.58,1   c1.269,0.593,2.615,1.001,4,1.21c1.245,0.018,2.49-0.032,3.73-0.15c-2.01,0.59-3.841,1.668-5.33,3.141   c-0.841,0.82-1.598,1.721-2.261,2.689c-0.27,0.453-0.328,1.001-0.159,1.5c0.259,0.576,0.692,1.056,1.239,1.37   c0.911,0.548,1.894,0.966,2.92,1.24c0.888,0.274,1.794,0.489,2.71,0.64c0.49,0.08,1,0.131,1.41,0.18l2.12-2   c-1.124-0.102-2.236-0.312-3.319-0.629c-1.061-0.32-1.604-0.688-1.631-1.101c0.04-0.554,0.317-1.064,0.761-1.399l3.68-3.551   L471.53,326.83z"></path>
      <path fill="#FFFFFF" d="M438.25,313.87c-1.072-0.316-2.176-0.51-3.29-0.58c-1.173-0.079-2.351-0.025-3.511,0.16   c-1.161,0.189-2.293,0.525-3.37,1c-1.074,0.463-2.057,1.117-2.899,1.93c-0.619,0.553-1.107,1.236-1.43,2   c-0.255,0.647-0.233,1.37,0.06,2c0.394,0.757,0.989,1.39,1.72,1.83c1.099,0.684,2.291,1.202,3.54,1.54   c0.594,0.18,1.203,0.34,1.83,0.48c0.627,0.14,1.227,0.263,1.8,0.369c0.573,0.101,1.107,0.18,1.601,0.24s0.903,0.094,1.229,0.1   l1.55-2.299c-0.798-0.047-1.593-0.145-2.38-0.291c-0.908-0.16-1.807-0.374-2.689-0.64c-1.029-0.226-1.979-0.724-2.75-1.44   c-0.463-0.464-0.463-1.216,0-1.68l0.239-0.31l10.83,3.25l0.221-0.18c0.206-0.173,0.39-0.336,0.55-0.49   c1.6-1.546,2.127-2.923,1.58-4.129S440.656,314.57,438.25,313.87z M431.329,316.66c0.23-0.143,0.467-0.273,0.71-0.39   c0.373-0.178,0.766-0.309,1.171-0.39c0.447-0.089,0.903-0.126,1.359-0.11c0.516,0.021,1.026,0.108,1.521,0.26   c0.438,0.111,0.854,0.304,1.22,0.57c0.229,0.174,0.402,0.41,0.5,0.68c0.089,0.232,0.089,0.489,0,0.72   c-0.075,0.178-0.173,0.346-0.29,0.5L431.329,316.66z"></path>
      <path fill="#FFFFFF" d="M415.21,319.31l0.18,0.06l4.34,1.3c0.05-0.53-0.46-5.9-0.6-6.32c1.435,0.127,2.881,0.04,4.29-0.26   c1.163-0.253,2.235-0.82,3.1-1.64c1.333-1.293,1.44-2.51,0.32-3.65c-1.12-1.14-3.33-2.207-6.63-3.2l-5.74-1.72   c-0.356-0.15-0.765-0.096-1.07,0.14l-11.66,11.26l5,1.49l4.34-4.19l0,0l2.131-2.05l3.279-3.16c0.271,0.07,1.42,0.43,1.78,0.53   c1.156,0.277,2.251,0.766,3.23,1.44c0.433,0.275,0.562,0.85,0.286,1.284c-0.073,0.115-0.171,0.213-0.286,0.287   c-0.681,0.613-1.576,0.93-2.49,0.88c-1.492-0.078-2.966-0.36-4.38-0.84h-0.07c-0.73-0.21-1.16-0.1-1.24,0.35l0.23,2   c0.13,0.33,0.55,3.88,0.689,5.23C414.418,318.931,414.78,319.222,415.21,319.31z"></path>
</g>
</svg>